<?xml version="1.0" encoding="UTF-8" standalone="no"?>
<svg width="94px" height="35px" viewBox="0 0 94 35" version="1.1" xmlns="http://www.w3.org/2000/svg" xmlns:xlink="http://www.w3.org/1999/xlink">
    <!-- Generator: Sketch 48.2 (47327) - http://www.bohemiancoding.com/sketch -->
    <title>3</title>
    <desc>Created with Sketch.</desc>
    <defs></defs>
    <g id="Page-1" stroke="none" stroke-width="1" fill="none" fill-rule="evenodd">
        <g id="sprite-bodytypes" transform="translate(-248.000000, -6.000000)" fill="#2B2B2B" fill-rule="nonzero">
            <g id="cars">
                <path d="M340.966218,23.2923594 C341.34214,23.6056284 341.608415,24.0285351 341.765049,24.5610923 C341.921684,25.0936495 342,25.861147 342,26.8636076 C342,29.2444516 340.277047,32.1578091 336.831088,35.6037675 L336.549148,35.8857082 C336.110571,36.1989771 335.76598,36.4182621 335.515365,36.5435697 L334.387603,37.107451 L334.387603,35.0398862 C334.387603,33.1602726 333.980359,31.421656 333.16586,29.8239843 C332.351361,28.2263127 331.254936,26.9575925 329.876552,26.0177857 C328.498169,25.0779788 326.994501,24.6080824 325.365502,24.6080824 C323.736504,24.6080824 322.232835,25.0779788 320.854452,26.0177857 C319.476068,26.9575925 318.379644,28.2263127 317.565144,29.8239843 C316.750645,31.421656 316.343401,33.1602726 316.343401,35.0398862 L316.343401,37.2014312 L274.240265,37.2014312 L274.240265,35.0398862 C274.240265,33.1602726 273.833022,31.421656 273.018523,29.8239843 C272.204023,28.2263127 271.107599,26.9575925 269.729215,26.0177857 C268.350832,25.0779788 266.847163,24.6080824 265.218165,24.6080824 C263.589166,24.6080824 262.085498,25.0779788 260.707115,26.0177857 C259.328731,26.9575925 258.232306,28.2263127 257.417807,29.8239843 C256.603308,31.421656 256.196064,33.1602726 256.196064,35.0398862 L256.196064,37.2014312 L255.162282,37.2014312 C253.47063,37.2014312 251.685023,35.7604156 249.80541,32.8783413 C248.740295,31.3119966 248.145093,29.5890432 248.019786,27.7094295 C247.894478,25.7045083 248.364374,24.2008399 249.429489,23.1983792 C251.43441,21.193458 253.110374,19.7524424 254.45743,18.8752894 C255.804487,17.9981363 257.104533,17.4969135 258.357609,17.3716059 C262.868682,16.9330294 268.476112,16.5257859 275.180068,16.1498632 L276.11987,15.5859819 C281.445442,12.265331 285.267266,9.94717558 287.585456,8.631446 C289.46507,7.56633158 291.375981,6.81449738 293.318249,6.37592086 C294.446017,6.1253057 295.38581,6 296.137655,6 L329.218691,6 C330.659728,6 331.724826,6.1253057 332.414018,6.37592086 C332.977902,6.62653602 333.573104,7.06510596 334.199642,7.69164386 L334.387603,7.9735845 C335.076794,8.66277619 337.019033,11.9833772 340.214376,17.9354872 C340.402337,18.31141 340.574633,18.7813063 340.731267,19.3451904 C340.887902,19.9090745 340.966218,20.3476445 340.966218,20.6609134 L340.966218,23.2923594 Z M254.880341,23.6682803 L256.478005,19.7211113 C255.851467,19.7211113 254.974327,19.7837641 253.846559,19.9090717 C252.718791,20.6609172 251.183796,21.976627 249.241528,23.8562407 L249.241528,23.9502209 L254.880341,23.6682803 Z M297.641339,17.4655862 L299.520943,8.72542622 L294.821932,8.72542622 C294.44601,8.72542622 294.00744,8.78807907 293.506209,8.91338665 C293.004979,9.03869422 292.629062,9.19532635 292.378447,9.38328772 L285.893812,13.3304567 C282.88643,15.2100704 280.599601,16.651086 279.033256,17.6535466 L279.503157,17.7475268 C283.01177,17.684873 289.05777,17.5908937 297.641339,17.4655862 Z M305.347716,17.2776257 L318.786887,17.0896653 L316.061461,8.72542622 L305.347716,8.72542622 L305.347716,17.2776257 Z M334.199642,16.6197642 L330.346453,9.66522836 C330.158492,9.4146132 329.892217,9.19532823 329.547622,9.00736686 C329.203026,8.81940549 328.811445,8.72542622 328.372869,8.72542622 L321.794254,8.72542622 L325.083561,16.9017049 L330.346453,16.8077247 L333.635761,16.8077247 C333.886376,16.8077247 334.074335,16.7450718 334.199642,16.6197642 Z M340.308356,23.1983792 L340.308356,20.6609134 C340.308356,19.909068 340.120398,19.1572338 339.744475,18.4053883 L339.086613,17.1836455 L336.361187,17.1836455 L337.864871,23.2923594 L340.308356,23.1983792 Z M265.218165,26.5816669 C267.097779,26.5816669 268.711089,27.2551851 270.058146,28.6022416 C271.405202,29.949298 272.078721,31.5626089 272.078721,33.4422226 C272.078721,35.3218363 271.405202,36.9351472 270.058146,38.2822036 C268.711089,39.6292601 267.097779,40.3027782 265.218165,40.3027782 C263.338551,40.3027782 261.740904,39.6292601 260.425174,38.2822036 C259.109444,36.9351472 258.451589,35.3218363 258.451589,33.4422226 C258.451589,31.5626089 259.109444,29.949298 260.425174,28.6022416 C261.740904,27.2551851 263.338551,26.5816669 265.218165,26.5816669 Z M265.218165,37.107451 C266.283279,37.107451 267.160419,36.7471971 267.849611,36.0266785 C268.538803,35.3061599 268.883393,34.42902 268.883393,33.3952325 C268.883393,32.361445 268.538803,31.4999683 267.849611,30.8107766 C267.160419,30.1215849 266.298942,29.7769942 265.265155,29.7769942 C264.231367,29.7769942 263.354228,30.1215849 262.633709,30.8107766 C261.91319,31.4999683 261.552936,32.361445 261.552936,33.3952325 C261.552936,34.42902 261.91319,35.3061599 262.633709,36.0266785 C263.354228,36.7471971 264.215704,37.107451 265.218165,37.107451 Z M325.365502,26.5816669 C327.245116,26.5816669 328.858427,27.2551851 330.205483,28.6022416 C331.55254,29.949298 332.226058,31.5626089 332.226058,33.4422226 C332.226058,35.3218363 331.55254,36.9351472 330.205483,38.2822036 C328.858427,39.6292601 327.245116,40.3027782 325.365502,40.3027782 C323.485888,40.3027782 321.872577,39.6292601 320.525521,38.2822036 C319.178465,36.9351472 318.504946,35.3218363 318.504946,33.4422226 C318.504946,31.5626089 319.178465,29.949298 320.525521,28.6022416 C321.872577,27.2551851 323.485888,26.5816669 325.365502,26.5816669 Z M325.365502,37.107451 C326.430616,37.107451 327.307756,36.7471971 327.996948,36.0266785 C328.68614,35.3061599 329.03073,34.42902 329.03073,33.3952325 C329.03073,32.361445 328.68614,31.4999683 327.996948,30.8107766 C327.307756,30.1215849 326.44628,29.7769942 325.412492,29.7769942 C324.378705,29.7769942 323.501565,30.1215849 322.781046,30.8107766 C322.060528,31.4999683 321.700274,32.361445 321.700274,33.3952325 C321.700274,34.42902 322.060528,35.3061599 322.781046,36.0266785 C323.501565,36.7471971 324.363041,37.107451 325.365502,37.107451 Z" id="3"></path>
            </g>
        </g>
    </g>
</svg>