<svg xmlns="http://www.w3.org/2000/svg" xmlns:xlink="http://www.w3.org/1999/xlink" width="14" height="14" viewBox="0 0 14 14"><defs><path id="zxf2a" d="M661 126.6c0 .77-.63 1.4-1.4 1.4a1.4 1.4 0 0 1-1.4-1.4c0-.7.5-1.27 1.17-1.38v-3.99h-3.27v3.99a1.4 1.4 0 0 1 1.17 1.38c0 .77-.63 1.4-1.4 1.4a1.4 1.4 0 0 1-1.4-1.4c0-.7.5-1.27 1.16-1.38v-3.99h-3.26v3.99a1.4 1.4 0 0 1 1.16 1.38c0 .77-.63 1.4-1.4 1.4a1.4 1.4 0 0 1-1.4-1.4c0-.7.51-1.27 1.17-1.38v-3.99h-3.5c-.14 0-.23-.09-.23-.23v-4.22a1.4 1.4 0 0 1-1.17-1.38c0-.77.63-1.4 1.4-1.4.77 0 1.4.63 1.4 1.4 0 .7-.5 1.27-1.17 1.38v3.99h3.27v-3.99a1.4 1.4 0 0 1-1.17-1.38c0-.77.63-1.4 1.4-1.4.77 0 1.4.63 1.4 1.4 0 .7-.5 1.27-1.16 1.38v3.99h3.26v-3.99a1.4 1.4 0 0 1-1.16-1.38c0-.77.63-1.4 1.4-1.4.77 0 1.4.63 1.4 1.4 0 .7-.51 1.27-1.17 1.38v3.99h3.27v-3.99a1.4 1.4 0 0 1-1.17-1.38c0-.77.63-1.4 1.4-1.4.77 0 1.4.63 1.4 1.4 0 .7-.5 1.27-1.17 1.38v8.44a1.4 1.4 0 0 1 1.17 1.38zm-1.4-10.27c.51 0 .93-.42.93-.93a.94.94 0 0 0-.93-.93.94.94 0 0 0-.93.93c0 .51.42.93.93.93zm-3.73 0c.51 0 .93-.42.93-.93a.94.94 0 0 0-.93-.93.94.94 0 0 0-.94.93c0 .51.42.93.94.93zm-3.74 0c.52 0 .94-.42.94-.93a.94.94 0 0 0-.94-.93.94.94 0 0 0-.93.93c0 .51.42.93.93.93zm-3.73 0c.51 0 .93-.42.93-.93a.94.94 0 0 0-.93-.93.94.94 0 0 0-.93.93c0 .51.42.93.93.93zm3.73 9.34a.94.94 0 0 0-.93.93c0 .51.42.93.93.93.52 0 .94-.42.94-.93a.94.94 0 0 0-.94-.93zm3.74 0a.94.94 0 0 0-.94.93.94.94 0 1 0 1.87 0 .94.94 0 0 0-.93-.93zm4.66.93a.94.94 0 0 0-.93-.93.94.94 0 0 0-.93.93c0 .51.42.93.93.93s.93-.42.93-.93z"/></defs><g><g transform="translate(-647 -114)"><use fill="#de1f26" xlink:href="#zxf2a"/></g></g></svg>