<?xml version="1.0" encoding="UTF-8"?>
<svg width="40px" height="40px" viewBox="0 0 40 40" version="1.1" xmlns="http://www.w3.org/2000/svg" xmlns:xlink="http://www.w3.org/1999/xlink">
    <!-- Generator: Sketch 51.3 (57544) - http://www.bohemiancoding.com/sketch -->
    <title>car-door</title>
    <desc>Created with Sketch.</desc>
    <defs></defs>
    <g id="Salepage" stroke="none" stroke-width="1" fill="none" fill-rule="evenodd">
        <g id="Sale-page-spare-parts-ECV" transform="translate(-871.000000, -737.000000)" fill="#264AA1" fill-rule="nonzero" stroke="#FFFFFF" stroke-width="0.6">
            <g id="sell-your-car" transform="translate(0.000000, 109.000000)">
                <g id="vehicle" transform="translate(354.000000, 175.000000)">
                    <g id="Group-5-Copy" transform="translate(141.000000, 177.000000)">
                        <g id="Group-6">
                            <g id="Group-3-Copy-4" transform="translate(344.000000, 264.000000)">
                                <g id="car-door" transform="translate(33.000000, 13.000000)">
                                    <path d="M37.0217969,15.3341133 L22.6659609,0.978203125 C22.0351758,0.34734375 21.1964297,0 20.3043203,0 L3.33984375,0 C1.49825391,0 0,1.49825391 0,3.33984375 L0,34.6601562 C0,36.5017461 1.49825391,38 3.33984375,38 L21.2265625,38 C21.6482734,38 22.0336914,37.7617578 22.2223555,37.3845781 C24.7630859,32.3029687 30.0578516,29.0195312 35.7113906,29.0195312 L36.8867188,29.0195312 C37.5015469,29.0195312 38,28.5210781 38,27.90625 L38,17.6957539 C38,16.8036445 37.652582,15.9649727 37.0217969,15.3341133 Z M35.7734375,26.7929688 L35.7113906,26.7929688 C32.5127109,26.7929688 29.3678398,27.6957656 26.6166992,29.4037617 C24.0705508,30.9845469 21.9861914,33.1773398 20.5541406,35.7734375 L3.33984375,35.7734375 C2.72598047,35.7734375 2.2265625,35.2740195 2.2265625,34.6601562 L2.2265625,3.33984375 C2.2265625,2.72598047 2.72598047,2.2265625 3.33984375,2.2265625 L20.3043203,2.2265625 C20.6016406,2.2265625 20.8812227,2.34234375 21.0914844,2.55267969 L35.4473203,16.9085156 C35.657582,17.1187773 35.7734375,17.3983594 35.7734375,17.6957539 L35.7734375,26.7929688 Z" id="Shape"></path>
                                    <path d="M33.1488398,17.8334297 L20.1710234,4.78146875 C19.9620977,4.57128125 19.6779883,4.453125 19.3816328,4.453125 L5.56640625,4.453125 C4.95157812,4.453125 4.453125,4.95157812 4.453125,5.56640625 L4.453125,19 C4.453125,19.6148281 4.95157812,20.1132812 5.56640625,20.1132812 L32.359375,20.1132812 C32.9742031,20.1132812 33.4726562,19.6148281 33.4726562,19 L33.4726562,18.6183672 C33.4726562,18.3242383 33.356207,18.0419844 33.1488398,17.8334297 Z M6.6796875,17.8867188 L6.6796875,6.6796875 L18.918582,6.6796875 L30.0618594,17.8867188 L6.6796875,17.8867188 Z" id="Shape"></path>
                                    <path d="M12.2460938,24.5664062 L5.56640625,24.5664062 C4.95157812,24.5664062 4.453125,25.0648594 4.453125,25.6796875 L4.453125,26.7929688 C4.453125,29.2484219 6.45079687,31.2460938 8.90625,31.2460938 C11.3617031,31.2460938 13.359375,29.2484219 13.359375,26.7929688 L13.359375,25.6796875 C13.359375,25.0648594 12.8609219,24.5664062 12.2460938,24.5664062 Z M8.90625,29.0195312 C7.67852344,29.0195312 6.6796875,28.0132734 6.6796875,26.7855469 L11.1328125,26.7855469 C11.1328125,28.0132734 10.1339766,29.0195312 8.90625,29.0195312 Z" id="Shape"></path>
                                </g>
                            </g>
                        </g>
                    </g>
                </g>
            </g>
        </g>
    </g>
</svg>