<?xml version="1.0" encoding="UTF-8" standalone="no"?>
<svg width="94px" height="40px" viewBox="0 0 94 40" version="1.1" xmlns="http://www.w3.org/2000/svg" xmlns:xlink="http://www.w3.org/1999/xlink">
    <!-- Generator: Sketch 48.2 (47327) - http://www.bohemiancoding.com/sketch -->
    <title>5</title>
    <desc>Created with Sketch.</desc>
    <defs></defs>
    <g id="Page-1" stroke="none" stroke-width="1" fill="none" fill-rule="evenodd">
        <g id="sprite-bodytypes" transform="translate(-496.000000, 0.000000)" fill="#2B2B2B" fill-rule="nonzero">
            <g id="cars">
                <path d="M507.656,28.952 C509.097341,28.952 510.350661,29.4846613 511.416,30.55 C512.481339,31.6153387 513.014,32.8999925 513.014,34.404 C513.014,35.9080075 512.481339,37.1769948 511.416,38.211 C510.350661,39.2450052 509.081674,39.762 507.609,39.762 C506.136326,39.762 504.867339,39.2450052 503.802,38.211 C502.736661,37.1769948 502.204,35.9080075 502.204,34.404 C502.204,32.8999925 502.736661,31.6153387 503.802,30.55 C504.867339,29.4846613 506.151992,28.952 507.656,28.952 Z M507.656,37.318 C508.470671,37.318 509.159997,37.0360028 509.724,36.472 C510.288003,35.9079972 510.57,35.2186707 510.57,34.404 C510.57,33.5893293 510.288003,32.9000028 509.724,32.336 C509.159997,31.7719972 508.470671,31.49 507.656,31.49 C506.841329,31.49 506.152003,31.7719972 505.588,32.336 C505.023997,32.9000028 504.742,33.5893293 504.742,34.404 C504.742,35.2186707 505.023997,35.9079972 505.588,36.472 C506.152003,37.0360028 506.841329,37.318 507.656,37.318 Z M542.248,6.298 C543.313339,6.298 544.221996,6.67399624 544.974,7.426 C545.726004,8.17800376 546.102,9.08666134 546.102,10.152 L546.102,25.474 C546.102,26.5393387 545.726004,27.4479962 544.974,28.2 C544.221996,28.9520038 543.313339,29.328 542.248,29.328 L537.924,29.328 C536.858661,29.328 535.950004,28.9520038 535.198,28.2 C534.445996,27.4479962 534.07,26.5393387 534.07,25.474 L534.07,10.152 C534.07,9.08666134 534.445996,8.17800376 535.198,7.426 C535.950004,6.67399624 536.858661,6.298 537.924,6.298 L542.248,6.298 Z M540.18,18.8 C540.305334,18.8 540.399333,18.7530005 540.462,18.659 C540.524667,18.5649995 540.556,18.486667 540.556,18.424 C540.556,18.1733321 540.430668,18.048 540.18,18.048 L539.616,18.048 C539.427999,17.7346651 539.083336,17.578 538.582,17.578 C538.080664,17.578 537.736001,17.7346651 537.548,18.048 L536.984,18.048 C536.733332,18.048 536.608,18.1733321 536.608,18.424 C536.608,18.486667 536.655,18.5649995 536.749,18.659 C536.843,18.7530005 536.921333,18.8 536.984,18.8 L537.548,18.8 C537.798668,19.0506679 538.158998,19.176 538.629,19.176 C539.099002,19.176 539.427999,19.0506679 539.616,18.8 L540.18,18.8 Z M543.376,14.758 L543.376,9.776 C543.376,9.4626651 543.250668,9.18066792 543,8.93 C542.749332,8.67933208 542.467335,8.554 542.154,8.554 L538.112,8.554 C537.735998,8.554 537.422668,8.67933208 537.172,8.93 C536.921332,9.18066792 536.796,9.4626651 536.796,9.776 L536.796,14.758 C536.796,15.0713349 536.921332,15.3533321 537.172,15.604 C537.422668,15.8546679 537.735998,15.98 538.112,15.98 L542.154,15.98 C542.467335,15.98 542.749332,15.8546679 543,15.604 C543.250668,15.3533321 543.376,15.0713349 543.376,14.758 Z M582.198,24.064 C582.198,24.6280028 582.010002,25.0979981 581.634,25.474 C581.257998,25.8500019 580.788003,26.038 580.224,26.038 C579.659997,26.038 579.174335,25.8500019 578.767,25.474 C578.359665,25.0979981 578.156,24.6280028 578.156,24.064 C578.156,23.4999972 578.359665,23.0143354 578.767,22.607 C579.174335,22.1996646 579.659997,21.996 580.224,21.996 C580.788003,21.996 581.257998,22.1996646 581.634,22.607 C582.010002,23.0143354 582.198,23.4999972 582.198,24.064 Z M588.966,28.2 C589.279335,28.262667 589.529999,28.4036656 589.718,28.623 C589.906001,28.8423344 590,29.1086651 590,29.422 L590,33.746 C590,34.0593349 589.874668,34.3413321 589.624,34.592 C589.373332,34.8426679 589.091335,34.968 588.778,34.968 L578.25,34.968 L578.25,34.404 C578.25,32.4613236 577.57634,30.8163401 576.229,29.469 C574.88166,28.1216599 573.236676,27.448 571.294,27.448 C569.351324,27.448 567.70634,28.1216599 566.359,29.469 C565.01166,30.8163401 564.338,32.4613236 564.338,34.404 L564.338,34.968 L514.518,34.968 C514.580667,34.842666 514.612,34.6546679 514.612,34.404 C514.612,32.4613236 513.93834,30.8163401 512.591,29.469 C511.24366,28.1216599 509.598676,27.448 507.656,27.448 C505.713324,27.448 504.06834,28.1216599 502.721,29.469 C501.37366,30.8163401 500.7,32.4613236 500.7,34.404 L500.7,34.968 L497.316,34.968 C496.939998,34.968 496.626668,34.8426679 496.376,34.592 C496.125332,34.3413321 496,34.0593349 496,33.746 L496,29.422 C496,29.1086651 496.125332,28.8266679 496.376,28.576 C496.626668,28.3253321 496.939998,28.2 497.316,28.2 L497.316,26.32 C497.316,24.6279915 498.130659,22.7793434 499.76,20.774 L499.948,20.586 L500.042,20.586 L501.076,19.74 C511.854721,10.339953 518.371989,4.76267544 520.628,3.008 C522.257341,1.81732738 524.231322,0.97133584 526.55,0.47 C527.866007,0.1566651 529.087994,0 530.216,0 L580.694,0 C583.639348,0 585.754327,0.4699953 587.039,1.41 C588.323673,2.3500047 588.966,3.9166557 588.966,6.11 L588.966,28.2 Z M499.29,24.722 C499.91667,24.722 500.449331,24.5026689 500.888,24.064 C501.326669,23.6253311 501.546,23.0613368 501.546,22.372 C501.546,21.6826632 501.295336,21.1500019 500.794,20.774 L500.7,20.774 L500.512,21.056 C499.446661,22.3720066 498.757335,23.5626613 498.444,24.628 C498.632001,24.690667 498.913998,24.722 499.29,24.722 Z M522.414,22.56 C522.539334,22.56 522.664666,22.5130005 522.79,22.419 C522.915334,22.3249995 522.978,22.215334 522.978,22.09 C522.978,21.7139981 522.790002,21.526 522.414,21.526 L521.568,21.526 C521.317332,21.0873311 520.816004,20.868 520.064,20.868 C519.311996,20.868 518.810668,21.0873311 518.56,21.526 L517.714,21.526 C517.337998,21.526 517.15,21.7139981 517.15,22.09 C517.15,22.215334 517.212666,22.3249995 517.338,22.419 C517.463334,22.5130005 517.588666,22.56 517.714,22.56 L518.56,22.56 C518.873335,23.0613358 519.374663,23.312 520.064,23.312 C520.753337,23.312 521.254665,23.0613358 521.568,22.56 L522.414,22.56 Z M527.772,17.39 L527.772,9.024 C527.772,8.33466322 527.521336,7.73933584 527.02,7.238 C526.518664,6.73666416 525.923337,6.486 525.234,6.486 L520.722,6.486 C520.157997,6.486 519.56267,6.61133208 518.936,6.862 C518.30933,7.11266792 517.776669,7.42599812 517.338,7.802 L507.186,17.108 C506.621997,17.6720028 506.433999,18.2673302 506.622,18.894 C506.810001,19.5206698 507.373995,19.834 508.314,19.834 L525.234,19.834 C525.923337,19.834 526.518664,19.5990024 527.02,19.129 C527.521336,18.6589977 527.772,18.0793368 527.772,17.39 Z M546.572,25.474 L546.572,10.152 C546.572,8.96132738 546.149004,7.95867074 545.303,7.144 C544.456996,6.32932926 543.438673,5.922 542.248,5.922 L537.924,5.922 C536.733327,5.922 535.715004,6.32932926 534.869,7.144 C534.022996,7.95867074 533.6,8.96132738 533.6,10.152 L533.6,25.474 C533.6,26.6646726 534.022996,27.6673293 534.869,28.482 C535.715004,29.2966707 536.733327,29.704 537.924,29.704 L542.248,29.704 C543.438673,29.704 544.456996,29.2966707 545.303,28.482 C546.149004,27.6673293 546.572,26.6646726 546.572,25.474 Z M574.866,15.04 L574.866,8.178 C574.866,7.67666416 574.709335,7.2693349 574.396,6.956 C574.082665,6.6426651 573.675336,6.486 573.174,6.486 L557.852,6.486 C557.350664,6.486 556.927668,6.65833161 556.583,7.003 C556.238332,7.34766839 556.066,7.73933114 556.066,8.178 L556.066,15.04 C556.066,15.5413358 556.238332,15.9643316 556.583,16.309 C556.927668,16.6536684 557.350664,16.826 557.852,16.826 L573.174,16.826 C573.612669,16.826 574.004332,16.6536684 574.349,16.309 C574.693668,15.9643316 574.866,15.5413358 574.866,15.04 Z M580.224,26.414 C580.85067,26.414 581.398998,26.1790024 581.869,25.709 C582.339002,25.2389977 582.574,24.6750033 582.574,24.017 C582.574,23.3589967 582.354669,22.8106689 581.916,22.372 C581.477331,21.9333311 580.929003,21.714 580.271,21.714 C579.612997,21.714 579.049002,21.9333311 578.579,22.372 C578.108998,22.8106689 577.874,23.3589967 577.874,24.017 C577.874,24.6750033 578.108998,25.2389977 578.579,25.709 C579.049002,26.1790024 579.59733,26.414 580.224,26.414 Z M588.026,22.748 L588.026,15.792 L585.958,15.792 C585.832666,15.792 585.707334,15.854666 585.582,15.98 C585.456666,16.105334 585.394,16.2619991 585.394,16.45 L585.394,22.09 C585.394,22.2780009 585.456666,22.434666 585.582,22.56 C585.707334,22.685334 585.832666,22.748 585.958,22.748 L588.026,22.748 Z M571.294,28.952 C572.798008,28.952 574.066995,29.4846613 575.101,30.55 C576.135005,31.6153387 576.652,32.8999925 576.652,34.404 C576.652,35.9080075 576.135005,37.1769948 575.101,38.211 C574.066995,39.2450052 572.798008,39.762 571.294,39.762 C569.789992,39.762 568.505339,39.2450052 567.44,38.211 C566.374661,37.1769948 565.842,35.9080075 565.842,34.404 C565.842,32.8999925 566.374661,31.6153387 567.44,30.55 C568.505339,29.4846613 569.789992,28.952 571.294,28.952 Z M571.294,37.318 C572.108671,37.318 572.797997,37.0360028 573.362,36.472 C573.926003,35.9079972 574.208,35.2186707 574.208,34.404 C574.208,33.5893293 573.926003,32.9000028 573.362,32.336 C572.797997,31.7719972 572.108671,31.49 571.294,31.49 C570.479329,31.49 569.790003,31.7719972 569.226,32.336 C568.661997,32.9000028 568.38,33.5893293 568.38,34.404 C568.38,35.2186707 568.661997,35.9079972 569.226,36.472 C569.790003,37.0360028 570.479329,37.318 571.294,37.318 Z" id="5"></path>
            </g>
        </g>
    </g>
</svg>