<?xml version="1.0" encoding="UTF-8"?>
<svg width="54px" height="54px" viewBox="0 0 54 54" version="1.1" xmlns="http://www.w3.org/2000/svg" xmlns:xlink="http://www.w3.org/1999/xlink">
    <!-- Generator: Sketch 51.3 (57544) - http://www.bohemiancoding.com/sketch -->
    <title>ic-my-business</title>
    <desc>Created with Sketch.</desc>
    <defs></defs>
    <g id="Directories" stroke="none" stroke-width="1" fill="none" fill-rule="evenodd">
        <g id="Sale-page-directories" transform="translate(-593.000000, -669.000000)" fill-rule="nonzero">
            <g id="sell-your-car" transform="translate(0.000000, 109.000000)">
                <g id="Group-Copy-2" transform="translate(538.000000, 549.000000)">
                    <g id="ic-my-business" transform="translate(56.000000, 12.000000)">
                        <ellipse id="Oval" fill="#FFFFFF" cx="26" cy="26" rx="26" ry="25"></ellipse>
                        <path d="M26,52 C40.3365574,52 52,40.3365574 52,26 C52,11.6634426 40.3365574,0 26,0 C11.6634426,0 0,11.6634426 0,26 C0,40.3365574 11.6634426,52 26,52 Z M26,2.44507314 C38.9882073,2.44507314 49.5549269,13.0116453 49.5549269,26 C49.5549269,38.9883547 38.9882073,49.5549269 26,49.5549269 C13.0117927,49.5549269 2.44507314,38.9882073 2.44507314,26 C2.44507314,13.0117927 13.0117927,2.44507314 26,2.44507314 Z" id="Shape" stroke="#FFFFFF" stroke-width="0.9" fill="#264AA1"></path>
                        <g id="portfolio" transform="translate(13.000000, 14.000000)" fill="#264AA1" stroke="#FFFFFF" stroke-width="0.2">
                            <path d="M25.243042,3.04707335 C25.2414551,3.04707335 25.2398682,3.046875 25.2382812,3.046875 L18.3320312,3.046875 L18.3320312,2.28515625 C18.3320312,1.02514648 17.3068848,0 16.046875,0 L9.953125,0 C8.69311523,0 7.66796875,1.02514648 7.66796875,2.28515625 L7.66796875,3.046875 L0.76171875,3.046875 C0.337615992,3.046875 0,3.39440918 0,3.80859375 L0,20.5664062 C0,21.826416 1.02514648,22.8515625 2.28515625,22.8515625 L23.7148438,22.8515625 C24.9748535,22.8515625 26,21.826416 26,20.5664062 L26,3.82466124 C26,3.82366943 26,3.82267762 26,3.82168577 C25.9708404,3.32141113 25.6631775,3.04985048 25.243042,3.04707335 Z M9.19140625,2.28515625 C9.19140625,1.86521913 9.53318788,1.5234375 9.953125,1.5234375 L16.046875,1.5234375 C16.4668121,1.5234375 16.8085938,1.86521913 16.8085938,2.28515625 L16.8085938,3.046875 L9.19140625,3.046875 L9.19140625,2.28515625 Z M24.1813965,4.5703125 L21.8159027,11.6665955 C21.7121582,11.9782257 21.4217529,12.1875 21.0934601,12.1875 L16.8085938,12.1875 L16.8085938,11.4257812 C16.8085938,11.0050507 16.4676056,10.6640625 16.046875,10.6640625 L9.953125,10.6640625 C9.53239442,10.6640625 9.19140625,11.0050507 9.19140625,11.4257812 L9.19140625,12.1875 L4.90653993,12.1875 C4.57824707,12.1875 4.2878418,11.9782257 4.18409728,11.6665955 L1.81860352,4.5703125 L24.1813965,4.5703125 Z M15.2851562,12.1875 L15.2851562,13.7109375 L10.7148438,13.7109375 L10.7148438,12.1875 L15.2851562,12.1875 Z M24.4765625,20.5664062 C24.4765625,20.9863434 24.1347809,21.328125 23.7148438,21.328125 L2.28515625,21.328125 C1.86521913,21.328125 1.5234375,20.9863434 1.5234375,20.5664062 L1.5234375,8.5024872 L2.73881532,12.1484223 C3.05024718,13.0831146 3.921463,13.7109375 4.90653993,13.7109375 L9.19140625,13.7109375 L9.19140625,14.4726562 C9.19140625,14.8933868 9.53239442,15.234375 9.953125,15.234375 L16.046875,15.234375 C16.4676056,15.234375 16.8085938,14.8933868 16.8085938,14.4726562 L16.8085938,13.7109375 L21.0934601,13.7109375 C22.078537,13.7109375 22.9497528,13.0831146 23.2611847,12.1484223 L24.4765625,8.5024872 L24.4765625,20.5664062 Z" id="Shape"></path>
                        </g>
                    </g>
                </g>
            </g>
        </g>
    </g>
</svg>