<?xml version="1.0" encoding="UTF-8"?>
<svg width="54px" height="54px" viewBox="0 0 54 54" version="1.1" xmlns="http://www.w3.org/2000/svg" xmlns:xlink="http://www.w3.org/1999/xlink">
    <!-- Generator: Sketch 49.3 (51167) - http://www.bohemiancoding.com/sketch -->
    <title>ic-vehicle</title>
    <desc>Created with Sketch.</desc>
    <defs></defs>
    <g id="Salepage" stroke="none" stroke-width="1" fill="none" fill-rule="evenodd">
        <g id="Sale-page/Desktop/d-salepage-selection-Copy" transform="translate(-593.000000, -472.000000)" fill-rule="nonzero">
            <g id="sell-your-car" transform="translate(0.000000, 109.000000)">
                <g id="Group" transform="translate(538.000000, 350.000000)">
                    <g id="ic-vehicle" transform="translate(56.000000, 14.000000)">
                        <ellipse id="Oval" fill="#FFFFFF" cx="26" cy="25" rx="26" ry="25"></ellipse>
                        <path d="M26,52 C40.3365574,52 52,40.3365574 52,26 C52,11.6634426 40.3365574,0 26,0 C11.6634426,0 0,11.6634426 0,26 C0,40.3365574 11.6634426,52 26,52 Z M26,2.44507314 C38.9882073,2.44507314 49.5549269,13.0116453 49.5549269,26 C49.5549269,38.9883547 38.9882073,49.5549269 26,49.5549269 C13.0117927,49.5549269 2.44507314,38.9882073 2.44507314,26 C2.44507314,13.0117927 13.0117927,2.44507314 26,2.44507314 Z" id="Shape" stroke="#F0F3F8" stroke-width="0.9" fill="#264AA1"></path>
                        <g id="car" transform="translate(10.000000, 14.000000)" fill="#264AA1">
                            <path d="M30.7760684,9.1965812 L30.0786325,8.45811966 L27.6307692,1.85982906 C27.2136752,0.745299145 26.1470085,0.00683760684 24.957265,0 L7.47350427,0 C6.28376068,0 5.21709402,0.745299145 4.8,1.85982906 L2.38632479,8.37606838 L1.38119658,9.30598291 C0.505982906,10.0512821 0,11.1452991 0,12.2940171 L0,21.9076923 C0.00683760684,23.4803419 1.28547009,24.7521368 2.85811966,24.7521368 L4.66324786,24.7521368 C6.23589744,24.7521368 7.51452991,23.4803419 7.52136752,21.9076923 L7.52136752,20.5128205 L24.4786325,20.5128205 L24.4786325,21.9076923 C24.4854701,23.4803419 25.7641026,24.7521368 27.3367521,24.7521368 L29.1418803,24.7521368 C30.7145299,24.7521368 31.9931624,23.4803419 32,21.9076923 L32,12.0410256 C31.9931624,10.9675214 31.5555556,9.94188034 30.7760684,9.1965812 Z M6.08547009,2.32478632 C6.3042735,1.74358974 6.85811966,1.36752137 7.47350427,1.36752137 L24.9641026,1.36752137 C25.5794872,1.36752137 26.1333333,1.75042735 26.3521368,2.32478632 L28.4854701,8.06837607 L26.8923077,8.06837607 C26.5162393,5.5042735 24.1299145,3.73333333 21.565812,4.11623932 C19.5213675,4.41709402 17.9145299,6.02393162 17.6136752,8.06837607 L3.95213675,8.06837607 L6.08547009,2.32478632 Z M25.4974359,8.06837607 L18.9948718,8.06837607 C19.3709402,6.27008547 21.1350427,5.12136752 22.9333333,5.4974359 C24.2188034,5.77094017 25.2239316,6.77606838 25.4974359,8.06837607 Z M6.15384615,21.9076923 C6.14700855,22.7282051 5.48376068,23.3846154 4.66324786,23.3846154 L2.85811966,23.3846154 C2.03760684,23.3846154 1.37435897,22.7282051 1.36752137,21.9076923 L1.36752137,20.1162393 C1.77777778,20.382906 2.31794872,20.5128205 2.85811966,20.5128205 L6.15384615,20.5128205 L6.15384615,21.9076923 Z M30.6324786,21.9076923 C30.625641,22.7282051 29.9623932,23.3846154 29.1418803,23.3846154 L27.3367521,23.3846154 C26.5162393,23.3846154 25.8529915,22.7213675 25.8461538,21.9076923 L25.8461538,20.5128205 L29.1418803,20.5128205 C29.6820513,20.5128205 30.2222222,20.382906 30.6324786,20.1162393 L30.6324786,21.9076923 Z M29.1418803,19.1452991 L2.85811966,19.1452991 C2.04444444,19.1521368 1.37435897,18.5025641 1.36752137,17.6820513 L1.36752137,12.2940171 C1.36752137,11.5418803 1.7025641,10.8239316 2.27692308,10.3384615 C2.28376068,10.3316239 2.2974359,10.3179487 2.3042735,10.3111111 L3.23418803,9.43589744 L29.1282051,9.43589744 L29.7846154,10.1401709 C29.791453,10.1538462 29.8119658,10.1606838 29.8188034,10.174359 C30.3316239,10.6598291 30.625641,11.3367521 30.625641,12.0410256 L30.625641,17.6820513 L30.6324786,17.6820513 C30.625641,18.4957265 29.9555556,19.1521368 29.1418803,19.1452991 Z" id="Shape"></path>
                            <path d="M9.02564103,12.1709402 L3.8974359,12.1709402 C3.52136752,12.1709402 3.21367521,12.4786325 3.21367521,12.8547009 L3.21367521,16.4102564 C3.21367521,16.7863248 3.52136752,17.0940171 3.8974359,17.0940171 L9.02564103,17.0940171 C9.4017094,17.0940171 9.70940171,16.7863248 9.70940171,16.4102564 L9.70940171,12.8547009 C9.70940171,12.4786325 9.4017094,12.1709402 9.02564103,12.1709402 Z M8.34188034,15.7264957 L4.58119658,15.7264957 L4.58119658,13.5384615 L8.34188034,13.5384615 L8.34188034,15.7264957 Z" id="Shape"></path>
                            <path d="M28.1025641,12.1709402 L22.974359,12.1709402 C22.5982906,12.1709402 22.2905983,12.4786325 22.2905983,12.8547009 L22.2905983,16.4102564 C22.2905983,16.7863248 22.5982906,17.0940171 22.974359,17.0940171 L28.1025641,17.0940171 C28.4786325,17.0940171 28.7863248,16.7863248 28.7863248,16.4102564 L28.7863248,12.8547009 C28.7863248,12.4786325 28.4786325,12.1709402 28.1025641,12.1709402 Z M27.4188034,15.7264957 L23.6581197,15.7264957 L23.6581197,13.5384615 L27.4188034,13.5384615 L27.4188034,15.7264957 Z" id="Shape"></path>
                            <path d="M19.3025641,15.042735 L12.6974359,15.042735 C12.3213675,15.042735 12.0136752,15.3504274 12.0136752,15.7264957 C12.0136752,16.1025641 12.3213675,16.4102564 12.6974359,16.4102564 L19.3025641,16.4102564 C19.6786325,16.4102564 19.9863248,16.1025641 19.9863248,15.7264957 C19.9863248,15.3504274 19.6786325,15.042735 19.3025641,15.042735 Z" id="Shape"></path>
                            <path d="M19.3025641,12.9230769 L12.6974359,12.9230769 C12.3213675,12.9230769 12.0136752,13.2307692 12.0136752,13.6068376 C12.0136752,13.982906 12.3213675,14.2905983 12.6974359,14.2905983 L19.3025641,14.2905983 C19.6786325,14.2905983 19.9863248,13.982906 19.9863248,13.6068376 C19.9863248,13.2307692 19.6786325,12.9230769 19.3025641,12.9230769 Z" id="Shape"></path>
                        </g>
                    </g>
                </g>
            </g>
        </g>
    </g>
</svg>