<?xml version="1.0" encoding="UTF-8" standalone="no"?>
<svg width="120px" height="37px" viewBox="0 0 120 37" version="1.1" xmlns="http://www.w3.org/2000/svg" xmlns:xlink="http://www.w3.org/1999/xlink">
    <!-- Generator: Sketch 48.2 (47327) - http://www.bohemiancoding.com/sketch -->
    <title>Artboard</title>
    <desc>Created with Sketch.</desc>
    <defs></defs>
    <g id="Homepage" stroke="none" stroke-width="1" fill="none" fill-rule="evenodd">
        <g id="Artboard" fill-rule="nonzero">
            <g id="ic-search" transform="translate(91.000000, 25.000000)" fill="#888888">
                <path d="M11.7063185,10.2881524 L9.09937997,7.68126179 C9.08552526,7.66740708 9.06927355,7.65772316 9.05479562,7.64482726 C9.56775544,6.86671035 9.86714181,5.93528077 9.86714181,4.93361884 C9.86714181,2.20884336 7.65829844,0 4.9335709,0 C2.20884336,0 0,2.20884336 0,4.9335709 C0,7.6582505 2.20879542,9.86714181 4.93352296,9.86714181 C5.93523283,9.86714181 6.86661447,9.56775544 7.64473138,9.05479562 C7.65762728,9.06922561 7.66726326,9.08547732 7.68111796,9.09933203 L10.2881044,11.7063185 C10.6797277,12.0978938 11.3146473,12.0978938 11.7063185,11.7063185 C12.0978938,11.3146953 12.0978938,10.6797756 11.7063185,10.2881524 Z M4.9335709,8.15682828 C3.15336061,8.15682828 1.71026559,6.71373326 1.71026559,4.9335709 C1.71026559,3.15336061 3.15340855,1.71026559 4.9335709,1.71026559 C6.71368532,1.71026559 8.15682828,3.15340855 8.15682828,4.9335709 C8.15682828,6.71373326 6.71368532,8.15682828 4.9335709,8.15682828 Z" id="Shape"></path>
            </g>
            <path d="M25.7841282,11.0445566 L21.258274,15.774235 C20.970375,16.075255 20.5035961,16.075255 20.2158369,15.774235 C19.9280544,15.4734827 19.9280544,14.9856915 20.2158369,14.6849636 L24.2205191,10.4999209 L20.2159534,6.31502422 C19.9281708,6.01415025 19.9281708,5.52640772 20.2159534,5.22565548 C20.5037359,4.92478151 20.9704915,4.92478151 21.2583905,5.22565548 L25.7842446,9.95540692 C25.9281359,10.1058561 26,10.3028276 26,10.4998965 C26,10.6970628 25.9279961,10.8941804 25.7841282,11.0445566 Z" id="Shape" fill="#000000" transform="translate(23.000000, 10.500000) rotate(90.000000) translate(-23.000000, -10.500000) "></path>
            <path d="M62.7841282,11.0445566 L58.258274,15.774235 C57.970375,16.075255 57.5035961,16.075255 57.2158369,15.774235 C56.9280544,15.4734827 56.9280544,14.9856915 57.2158369,14.6849636 L61.2205191,10.4999209 L57.2159534,6.31502422 C56.9281708,6.01415025 56.9281708,5.52640772 57.2159534,5.22565548 C57.5037359,4.92478151 57.9704915,4.92478151 58.2583905,5.22565548 L62.7842446,9.95540692 C62.9281359,10.1058561 63,10.3028276 63,10.4998965 C63,10.6970628 62.9279961,10.8941804 62.7841282,11.0445566 Z" id="Shape-Copy-2" fill="#000000" transform="translate(60.000000, 10.500000) scale(1, -1) rotate(90.000000) translate(-60.000000, -10.500000) "></path>
            <path d="M116.29595,4.50009381 L119.835088,0.960808022 C120.054971,0.741103629 120.054971,0.384623403 119.835088,0.16491901 C119.615205,-0.0549730034 119.259115,-0.0549730034 119.039232,0.16491901 L115.500094,3.7042048 L111.960768,0.16491901 C111.740885,-0.0549730034 111.384795,-0.0549730034 111.164912,0.16491901 C110.945029,0.384623403 110.945029,0.741103629 111.164912,0.960808022 L114.704238,4.50009381 L111.164912,8.0393796 C110.945029,8.25908399 110.945029,8.61556422 111.164912,8.83526861 C111.274854,8.945027 111.418941,9 111.56284,9 C111.706739,9 111.850827,8.945027 111.960768,8.83508099 L115.500094,5.2957952 L119.039232,8.83508099 C119.149173,8.945027 119.293261,9 119.43716,9 C119.581059,9 119.725146,8.945027 119.835088,8.83508099 C120.054971,8.6153766 120.054971,8.25889637 119.835088,8.03919198 L116.29595,4.50009381 Z" id="Shape" fill="#888888"></path>
            <path d="M116.29595,15.5000938 L119.835088,11.960808 C120.054971,11.7411036 120.054971,11.3846234 119.835088,11.164919 C119.615205,10.945027 119.259115,10.945027 119.039232,11.164919 L115.500094,14.7042048 L111.960768,11.164919 C111.740885,10.945027 111.384795,10.945027 111.164912,11.164919 C110.945029,11.3846234 110.945029,11.7411036 111.164912,11.960808 L114.704238,15.5000938 L111.164912,19.0393796 C110.945029,19.259084 110.945029,19.6155642 111.164912,19.8352686 C111.274854,19.945027 111.418941,20 111.56284,20 C111.706739,20 111.850827,19.945027 111.960768,19.835081 L115.500094,16.2957952 L119.039232,19.835081 C119.149173,19.945027 119.293261,20 119.43716,20 C119.581059,20 119.725146,19.945027 119.835088,19.835081 C120.054971,19.6153766 120.054971,19.2588964 119.835088,19.039192 L116.29595,15.5000938 Z" id="Shape-Copy" fill="#000000"></path>
        </g>
    </g>
</svg>