<svg xmlns="http://www.w3.org/2000/svg" xmlns:xlink="http://www.w3.org/1999/xlink" width="12" height="12" viewBox="0 0 12 12"><defs><path id="9mrca" d="M1059 438a6 6 0 1 1-12.01-.01 6 6 0 0 1 12.01.01zm-.4 0a5.6 5.6 0 1 0-11.21.01 5.6 5.6 0 0 0 11.21-.01z"/><path id="9mrcb" d="M1053.78 433c-.12 0-.22.09-.22.2v4.42h-3.34c-.12 0-.22.08-.22.19 0 .1.1.19.22.19h3.56c.12 0 .22-.09.22-.2v-4.6c0-.11-.1-.2-.22-.2z"/></defs><g><g opacity=".5" transform="translate(-1047 -432)"><use xlink:href="#9mrca"/></g><g opacity=".5" transform="translate(-1047 -432)"><use xlink:href="#9mrcb"/></g></g></svg>