<svg xmlns="http://www.w3.org/2000/svg" xmlns:xlink="http://www.w3.org/1999/xlink" width="12" height="12" viewBox="0 0 12 12"><defs><path id="50fua" d="M195.88 303.1l-.8.8-1.98-1.98.8-.8a.44.44 0 0 1 .6 0l1.38 1.38c.16.17.16.44 0 .6zm-6.63 6.65l-1.99-2 5.13-5.13 1.98 1.99zm-2.45-1.03l1.49 1.48-2.07.59zm9.78-6.92l-1.38-1.39c-.27-.27-1.24-.77-2.01 0l-7 7a.48.48 0 0 0-.12.21l-1.05 3.75c-.05.18 0 .36.13.5.12.12.38.15.49.12l3.74-1.05a.48.48 0 0 0 .22-.13l6.98-7c.56-.55.56-1.46 0-2.01z"/></defs><g><g transform="translate(-185 -300)"><use fill="#0d8ae4" xlink:href="#50fua"/></g></g></svg>