<svg xmlns="http://www.w3.org/2000/svg" xmlns:xlink="http://www.w3.org/1999/xlink" width="22" height="26" viewBox="0 0 22 26"><defs><path id="lh9ra" d="M927.12 306.71l-.02.29-.02.64h-21.04l-.03-.65-.01-.28a10.7 10.7 0 0 1 6.01-9.6l.09-.04c.3-.15.63-.28.96-.4l.1-.03a9.86 9.86 0 0 1 1.76-.44l.05-.01.45-.06.17-.02h.06l.15-.02c.48-.03.99-.03 1.48 0l.4.03.34.05h.04l.05.01.4.07.06.01a8.68 8.68 0 0 1 2.33.75l.06.03a10.68 10.68 0 0 1 6.16 9.67zm-20.09-.11zm0 0h19.05a9.64 9.64 0 0 0-5.56-8.62h-.03a8.7 8.7 0 0 0-2.11-.7h-.06a9.2 9.2 0 0 0-.37-.07l-.12-.01-.26-.04-.33-.03a8.97 8.97 0 0 0-1.37 0l-.34.03-.44.06-.04.01-.25.04a12.11 12.11 0 0 0-1.31.36l-.09.03c-.27.1-.53.2-.79.32h-.01l-.1.05a9.65 9.65 0 0 0-5.47 8.57zm2.96-17.96c0-.11 0-.22.02-.33v-.09a6.61 6.61 0 0 1 6.56-6.22 6.62 6.62 0 0 1 6.58 6.64v.05c0 1.93-.87 3.8-2.39 5.06l-.26.2a3.73 3.73 0 0 1-.7.47l-.1.06-.41.2-.05.02a2.58 2.58 0 0 1-.42.17l-.14.05a3.11 3.11 0 0 1-.42.13l-.18.04a3.19 3.19 0 0 1-.46.1l-.16.02-.22.03a6.5 6.5 0 0 1-.67.04h-.05a6.48 6.48 0 0 1-2.1-.37l-.17-.07-.24-.09a6.63 6.63 0 0 1-4.02-6.11zm1.03 0a5.6 5.6 0 0 0 3.39 5.16l.18.06.2.07.13.05c.53.17 1.08.26 1.65.26h.05a5.36 5.36 0 0 0 .66-.05l.2-.03.2-.04c.05 0 .09-.02.13-.03l.21-.05.2-.05.1-.04.16-.06c.08-.03.17-.06.24-.1l.14-.06c.12-.05.24-.1.35-.17l.08-.04a5.56 5.56 0 0 0 .56-.38l.25-.18a5.62 5.62 0 0 0 2.02-4.31v-.06c0-3.04-2.49-5.55-5.55-5.55a5.57 5.57 0 0 0-5.53 5.24v.1l-.02.26z"/></defs><g><g transform="translate(-906 -282)"><use fill="#9b9b9b" xlink:href="#lh9ra"/></g></g></svg>