<?xml version="1.0" encoding="UTF-8"?>
<svg width="42px" height="42px" viewBox="0 0 42 42" version="1.1" xmlns="http://www.w3.org/2000/svg" xmlns:xlink="http://www.w3.org/1999/xlink">
    <!-- Generator: Sketch 51.3 (57544) - http://www.bohemiancoding.com/sketch -->
    <title>air-conditioner</title>
    <desc>Created with Sketch.</desc>
    <defs></defs>
    <g id="Salepage" stroke="none" stroke-width="1" fill="none" fill-rule="evenodd">
        <g id="Sale-page-spare-parts-ECV" transform="translate(-757.000000, -738.000000)" fill="#264AA1" fill-rule="nonzero" stroke="#264AA1" stroke-width="0.2">
            <g id="sell-your-car" transform="translate(0.000000, 109.000000)">
                <g id="vehicle" transform="translate(354.000000, 175.000000)">
                    <g id="Group-5-Copy" transform="translate(141.000000, 177.000000)">
                        <g id="Group-6">
                            <g id="Group-3-Copy-5" transform="translate(230.000000, 264.000000)">
                                <g id="air-conditioner" transform="translate(33.000000, 14.000000)">
                                    <path d="M35.9219048,0.0821428571 C33.6869841,0.0821428571 31.8584127,1.91071429 31.8584127,4.14563492 C31.8584127,6.38055556 33.6869841,8.20912698 35.9219048,8.20912698 C38.1568254,8.20912698 39.9853968,6.38055556 39.9853968,4.14563492 C39.9853968,1.91071429 38.1568254,0.0821428571 35.9219048,0.0821428571 Z M35.9219048,6.85460317 C34.4319841,6.85460317 33.2129365,5.63555556 33.2129365,4.14563492 C33.2129365,2.65571429 34.4319841,1.43666667 35.9219048,1.43666667 C37.4118254,1.43666667 38.630873,2.65571429 38.630873,4.14563492 C38.630873,5.63555556 37.4119048,6.85460317 35.9219048,6.85460317 Z" id="Shape"></path>
                                    <path d="M33.6869841,9.225 C31.2488889,8.61547619 28.7430952,9.90222222 27.9303968,12.272619 L24.2055556,23.1085714 C24.0700794,23.5149206 23.5960317,23.7857937 23.1896825,23.7180952 L16.3494444,22.9053968 C15.3335714,22.7699206 14.3853968,23.3794444 14.1145238,24.327619 L9.57698413,37.3984921 C9.37380952,38.2788889 9.57698413,39.1593651 10.1865079,39.7688889 C10.7960317,40.3784127 11.5410317,40.7170635 12.2859524,40.7170635 C12.5568254,40.7170635 12.76,40.7170635 12.9631746,40.6493651 C13.9113492,40.3784921 14.6562698,39.7011905 14.9272222,38.8207937 L18.7198413,29.5424603 C18.7875397,29.2038095 19.1261905,29.0006349 19.4648413,29.0684127 L29.6912698,30.4906349 C30.7748413,30.6261111 31.8584921,29.9488095 32.1970635,28.9329365 L36.8700794,15.3202381 C37.344127,14.1011905 37.2087302,12.7466667 36.5992063,11.5953968 C35.9896825,10.4440476 34.9738095,9.56357143 33.6869841,9.225 Z M35.6510317,14.7784127 L30.9780159,28.3911111 C30.8425397,28.7974603 30.4361905,29.0683333 29.9621429,29.0006349 L19.7357143,27.5784127 C18.7198413,27.4429365 17.7716667,28.0524603 17.5007937,28.9329365 L13.6404762,38.3466667 C13.505,38.8207143 13.0986508,39.1593651 12.6246032,39.2948413 C12.0827778,39.4303175 11.6087302,39.2948413 11.1346825,38.8207937 C10.8638095,38.617619 10.7960317,38.1435714 10.8638095,37.8049206 L15.4013492,24.6662698 C15.4690476,24.3953968 15.74,24.1922222 16.0785714,24.1922222 C16.0785714,24.1922222 16.1462698,24.1922222 16.2140476,24.1245238 L23.0542857,24.9372222 C24.1378571,25.0726984 25.1537302,24.3953968 25.492381,23.3795238 L29.2172222,12.5435714 C29.826746,10.8504762 31.6553175,9.90230159 33.3484127,10.3763492 C34.2965873,10.6472222 34.9738095,11.256746 35.4478571,12.0694444 C35.8542063,12.9498413 35.9896825,13.8980159 35.6510317,14.7784127 Z" id="Shape"></path>
                                    <path d="M7.47746032,10.240873 L17.6361905,10.240873 L17.6361905,12.9498413 C17.6361905,13.2207143 17.7716667,13.4916667 18.0425397,13.5593651 C18.1102381,13.6270635 18.2457143,13.6270635 18.3134127,13.6270635 C18.5165873,13.6270635 18.6520635,13.5593651 18.7874603,13.4238889 L24.8826984,7.32865079 C25.1535714,7.05777778 25.1535714,6.65142857 24.8826984,6.38047619 L18.7874603,0.285238095 C18.5842857,0.0820634921 18.3134127,0.0143650794 18.0424603,0.149761905 C17.7715873,0.217460317 17.6361111,0.488412698 17.6361111,0.759285714 L17.6361111,3.46825397 L7.47738095,3.46825397 C7.07103175,3.46825397 6.80015873,3.73912698 6.80015873,4.14547619 L6.80015873,9.56349206 C6.8002381,9.96992063 7.07111111,10.240873 7.47746032,10.240873 Z M8.1547619,4.82285714 L18.3134921,4.82285714 C18.7198413,4.82285714 18.9907143,4.55198413 18.9907143,4.14563492 L18.9907143,2.3847619 L23.4605556,6.85460317 L18.9907143,11.3244444 L18.9907143,9.56357143 C18.9907143,9.15722222 18.7198413,8.88634921 18.3134921,8.88634921 L8.1547619,8.88634921 L8.1547619,4.82285714 Z" id="Shape"></path>
                                    <path d="M8.96746032,21.1445238 C8.95587302,21.1329365 8.94674603,21.1189683 8.93849206,21.104127 C9.58492063,21.1201587 10.232619,21.1553968 10.8811905,21.2087302 C10.8938095,21.234127 10.9087302,21.2571429 10.9315079,21.28 L10.9315079,21.3476984 C10.9992063,21.4831746 11.0669841,21.6185714 11.1346825,21.7540476 C11.3378571,22.1603968 11.5410317,22.6344444 11.5410317,23.1085714 C11.5410317,24.056746 10.6606349,25.072619 10.3896825,25.3434921 C10.1187302,25.6143651 10.1188095,26.0207143 10.3896825,26.2916667 C10.5251587,26.4271429 10.6605556,26.4948413 10.8637302,26.4948413 C10.9992063,26.4948413 11.202381,26.4271429 11.4055556,26.2916667 C11.473254,26.2239683 12.963254,24.801746 12.963254,23.1085714 C12.963254,22.420873 12.7207937,21.8307143 12.4820635,21.3780159 C13.2515079,21.4774603 14.0216667,21.602381 14.7918254,21.7540476 C14.995,21.7540476 15.1981746,21.7540476 15.3336508,21.6185714 C15.469127,21.4830952 15.6045238,21.3476984 15.6045238,21.1445238 L16.281746,14.3720635 C16.281746,14.0334127 16.0785714,13.6948413 15.7399206,13.6270635 C11.6087302,12.6788889 4.83619048,12.6788889 0.56952381,13.6270635 C0.230873016,13.6947619 -0.04,14.0334127 0.0276984127,14.3720635 L0.704920635,21.1445238 C0.704920635,21.3476984 0.840396825,21.4831746 0.975793651,21.6185714 C1.11126984,21.6862698 1.24666667,21.7540476 1.38214286,21.7540476 C1.44984127,21.7540476 1.44984127,21.7540476 1.51761905,21.7540476 C2.39285714,21.5762698 3.27373016,21.435 4.15888889,21.3290476 L4.15888889,21.3476984 C4.2265873,21.4831746 4.29436508,21.6185714 4.36206349,21.7540476 C4.5652381,22.1603968 4.7684127,22.6344444 4.7684127,23.1085714 C4.7684127,24.056746 3.95571429,25.072619 3.61706349,25.3434921 C3.34619048,25.6143651 3.34619048,26.0207143 3.61706349,26.2916667 C3.75253968,26.4271429 3.88793651,26.4948413 4.09111111,26.4948413 C4.2265873,26.4948413 4.4297619,26.4271429 4.56515873,26.2916667 C4.63285714,26.2239683 6.12285714,24.801746 6.12285714,23.1085714 C6.12285714,22.3226984 5.80642857,21.664127 5.54055556,21.1927778 C6.16944444,21.1442063 6.8002381,21.1138095 7.43253968,21.1011111 C7.45809524,21.1647619 7.50142857,21.2363492 7.54507937,21.28 L7.54507937,21.3476984 C7.61277778,21.4831746 7.68055556,21.6185714 7.74825397,21.7540476 C7.95142857,22.1603968 8.15460317,22.6344444 8.15460317,23.1085714 C8.15460317,24.056746 7.34190476,25.072619 7.00325397,25.3434921 C6.73238095,25.6143651 6.73238095,26.0207143 7.00325397,26.2916667 C7.13873016,26.4271429 7.27412698,26.4948413 7.47730159,26.4948413 C7.61277778,26.4948413 7.81595238,26.4271429 8.01912698,26.2916667 C8.0868254,26.2239683 9.5768254,24.801746 9.5768254,23.1085714 C9.57698413,22.295873 9.23833333,21.6186508 8.96746032,21.1445238 Z M1.45,14.8461111 C5.31031746,14.1011111 11.0669048,14.1011111 14.8595238,14.8461111 L14.3176984,20.264127 C13.4524603,20.1246032 12.5987302,20.0084921 11.7470635,19.9196825 C11.6207937,19.6392857 11.5409524,19.3421429 11.5409524,19.0450794 C11.5409524,18.5710317 11.744127,18.0969048 11.9473016,17.6905556 C12.015,17.5550794 12.0827778,17.4196825 12.1504762,17.2842063 C12.2859524,16.9455556 12.1504762,16.5392063 11.8118254,16.4038095 C11.4731746,16.2683333 11.0668254,16.4038095 10.9314286,16.7424603 C10.9314286,16.8779365 10.8637302,16.9456349 10.7959524,17.0811111 C10.5250794,17.5551587 10.1864286,18.2324603 10.1864286,19.0451587 C10.1864286,19.3105556 10.2229365,19.5611111 10.2810317,19.7952381 C9.6181746,19.7521429 8.95309524,19.727619 8.28166667,19.7235714 C8.20230159,19.5024603 8.15468254,19.2738095 8.15468254,19.0451587 C8.15468254,18.5711111 8.35785714,18.0969841 8.56103175,17.6906349 C8.62873016,17.5551587 8.69650794,17.4197619 8.76420635,17.2842857 C8.89968254,16.9456349 8.76420635,16.5392857 8.42555556,16.4038889 C8.08690476,16.2684127 7.68055556,16.4038889 7.54515873,16.7425397 C7.54515873,16.8780159 7.47746032,16.9457143 7.40968254,17.0811905 C7.13880952,17.5552381 6.80015873,18.2325397 6.80015873,19.0452381 C6.80015873,19.2920635 6.83166667,19.5261111 6.88277778,19.7460317 C6.24015873,19.7705556 5.59753968,19.814127 4.95492063,19.8745238 C4.8402381,19.6074603 4.7684127,19.3264286 4.7684127,19.0451587 C4.7684127,18.5711111 4.9715873,18.0969841 5.1747619,17.6906349 C5.24246032,17.5551587 5.3102381,17.4197619 5.37793651,17.2842857 C5.5134127,16.9456349 5.37793651,16.5392857 5.03928571,16.4038889 C4.70063492,16.2684127 4.29428571,16.4038889 4.15888889,16.7425397 C4.15888889,16.8780159 4.09119048,16.9457143 4.0234127,17.0811905 C3.75253968,17.5552381 3.41388889,18.2325397 3.41388889,19.0452381 C3.41388889,19.4011111 3.47880952,19.7310317 3.57460317,20.0292857 C3.04698413,20.0977778 2.51928571,20.1763492 1.99166667,20.2642857 L1.45,14.8461111 Z" id="Shape"></path>
                                </g>
                            </g>
                        </g>
                    </g>
                </g>
            </g>
        </g>
    </g>
</svg>