<?xml version="1.0" encoding="UTF-8"?>
<svg width="64px" height="567px" viewBox="0 0 64 567" version="1.1" xmlns="http://www.w3.org/2000/svg" xmlns:xlink="http://www.w3.org/1999/xlink">
    <!-- Generator: Sketch 51.3 (57544) - http://www.bohemiancoding.com/sketch -->
    <title>dashboard-icons</title>
    <desc>Created with Sketch.</desc>
    <defs></defs>
    <g id="dashboard-icons" stroke="none" stroke-width="1" fill="none" fill-rule="evenodd">
        <g transform="translate(23.000000, 23.000000)" fill="#264AA1" fill-rule="nonzero">
            <g id="ic-stats" transform="translate(2.000000, 0.000000)">
                <path d="M1.97428571,11.2742857 C2.07428571,11.3428571 2.46,11.5342857 2.78571429,11.1228571 L4.99142857,7.9 L7.32571429,10.1514286 C7.44857143,10.2685714 7.61714286,10.3314286 7.78857143,10.3114286 C7.95714286,10.2942857 8.11142857,10.2057143 8.21142857,10.0657143 L12.0828571,4.51428571 L12.2228571,6.37142857 C12.2571429,6.84285714 12.7,6.92 12.8485714,6.90857143 C13.1685714,6.88285714 13.4114286,6.60571429 13.3857143,6.28285714 L13.14,3.01714286 C13.1171429,2.69714286 12.8371429,2.45428571 12.5142857,2.48 L9.24857143,2.72571429 C8.92857143,2.74857143 8.68571429,3.02857143 8.71142857,3.35142857 C8.73428571,3.67142857 9.01142857,3.91142857 9.33714286,3.88857143 L11.1942857,3.74857143 L7.64571429,8.83428571 L5.30571429,6.57714286 C5.18285714,6.45714286 5.01142857,6.39714286 4.84285714,6.41714286 C4.67142857,6.43428571 4.51714286,6.52571429 4.42,6.66857143 L1.82285714,10.4628571 C1.64,10.7285714 1.70857143,11.0914286 1.97428571,11.2742857 Z" id="Shape"></path>
                <path d="M13.4171429,12.8342857 L1.16571429,12.8342857 L1.16571429,0.582857143 C1.16571429,0.26 0.905714286,0 0.582857143,0 C0.26,0 0,0.26 0,0.582857143 L0,13.4171429 C0,13.74 0.26,14 0.582857143,14 L13.4171429,14 C13.74,14 14,13.74 14,13.4171429 C14,13.0942857 13.74,12.8342857 13.4171429,12.8342857 Z" id="Shape"></path>
            </g>
            <g id="ic-cars" transform="translate(2.000000, 50.000000)" stroke="#264AA1" stroke-width="0.3">
                <path d="M13,4.84166667 C13,4.825 13,4.80833333 13,4.79166667 L12.2333333,1.34166667 C12.0666667,0.575 11.3833333,0.025 10.6,0.025 L3.23333333,0.025 C2.45,0.025 1.76666667,0.575 1.6,1.34166667 L0.833333333,4.80833333 C0.816666667,4.85833333 0.816666667,4.89166667 0.833333333,4.94166667 C0.333333333,5.225 0,5.775 0,6.39166667 L0,9.725 C0,10.2416667 0.283333333,10.675 0.683333333,10.975 C0.683333333,10.9916667 0.666666667,11.025 0.666666667,11.0583333 L0.666666667,12.225 C0.666666667,12.875 1.18333333,13.3916667 1.83333333,13.3916667 L2.16666667,13.3916667 C2.81666667,13.3916667 3.33333333,12.875 3.33333333,12.225 L3.33333333,11.3916667 L10.6666667,11.3916667 L10.6666667,12.225 C10.6666667,12.875 11.1833333,13.3916667 11.8333333,13.3916667 L12.1666667,13.3916667 C12.8166667,13.3916667 13.3333333,12.875 13.3333333,12.225 L13.3333333,11.0583333 C13.7333333,10.7583333 14,10.275 14,9.725 L14,6.375 C14,5.69166667 13.5833333,5.10833333 13,4.84166667 Z M2.26666667,1.49166667 C2.36666667,1.04166667 2.76666667,0.708333333 3.23333333,0.708333333 L10.6,0.708333333 C11.0666667,0.708333333 11.4833333,1.04166667 11.5666667,1.49166667 L12.2833333,4.70833333 L1.66666667,4.70833333 C1.63333333,4.70833333 1.58333333,4.70833333 1.55,4.70833333 L2.26666667,1.49166667 Z M2.66666667,12.2083333 C2.66666667,12.4916667 2.45,12.7083333 2.16666667,12.7083333 L1.83333333,12.7083333 C1.55,12.7083333 1.33333333,12.4916667 1.33333333,12.2083333 L1.33333333,11.2916667 C1.5,11.3416667 1.66666667,11.375 1.83333333,11.375 L2.66666667,11.375 L2.66666667,12.2083333 Z M12.6666667,12.2083333 C12.6666667,12.4916667 12.45,12.7083333 12.1666667,12.7083333 L11.8333333,12.7083333 C11.55,12.7083333 11.3333333,12.4916667 11.3333333,12.2083333 L11.3333333,11.375 L12.3333333,11.375 C12.45,11.375 12.5666667,11.3583333 12.6666667,11.3416667 L12.6666667,12.2083333 Z M13.3333333,9.70833333 C13.3333333,10.2583333 12.8833333,10.7083333 12.3333333,10.7083333 L1.83333333,10.7083333 C1.3,10.7083333 0.666666667,10.2583333 0.666666667,9.70833333 L0.666666667,6.375 C0.666666667,5.825 1.11666667,5.375 1.66666667,5.375 L12.3333333,5.375 C12.8833333,5.375 13.3333333,5.825 13.3333333,6.375 L13.3333333,9.70833333 Z" id="Shape"></path>
                <path d="M2.5,6.875 C1.95,6.875 1.5,7.325 1.5,7.875 C1.5,8.425 1.95,8.875 2.5,8.875 C3.05,8.875 3.5,8.425 3.5,7.875 C3.5,7.325 3.05,6.875 2.5,6.875 Z M2.5,8.20833333 C2.31666667,8.20833333 2.16666667,8.05833333 2.16666667,7.875 C2.16666667,7.69166667 2.31666667,7.54166667 2.5,7.54166667 C2.68333333,7.54166667 2.83333333,7.69166667 2.83333333,7.875 C2.83333333,8.05833333 2.68333333,8.20833333 2.5,8.20833333 Z" id="Shape"></path>
                <path d="M11.5,6.875 C10.95,6.875 10.5,7.325 10.5,7.875 C10.5,8.425 10.95,8.875 11.5,8.875 C12.05,8.875 12.5,8.425 12.5,7.875 C12.5,7.325 12.05,6.875 11.5,6.875 Z M11.5,8.20833333 C11.3166667,8.20833333 11.1666667,8.05833333 11.1666667,7.875 C11.1666667,7.69166667 11.3166667,7.54166667 11.5,7.54166667 C11.6833333,7.54166667 11.8333333,7.69166667 11.8333333,7.875 C11.8333333,8.05833333 11.6833333,8.20833333 11.5,8.20833333 Z" id="Shape"></path>
            </g>
            <g id="spare-parts" transform="translate(1.000000, 100.000000)" stroke="#264AA1" stroke-width="0.2">
                <path d="M7.93504489,4.95094845 C7.63210268,3.60415551 6.29536267,2.75842033 4.9494929,3.06157036 C3.60374171,3.3647204 2.75858625,4.70237729 3.06152846,6.04905158 C3.36447069,7.39584449 4.70121071,8.24157967 6.04696189,7.93842964 C6.04909614,7.93807371 6.05111179,7.9373618 6.05289032,7.93700587 C7.39069742,7.64192402 8.23620859,6.31755587 7.94132904,4.97883111 C7.93919479,4.9694578 7.93706054,4.95996583 7.93504489,4.95094845 Z M5.48613343,7.29985688 C4.49513884,7.30519611 3.68733242,6.50525973 3.68211541,5.51346675 C3.67749124,4.66701968 4.26452333,3.93222197 5.09082641,3.75021332 C5.22172591,3.72043223 5.35535249,3.70500775 5.48969047,3.70465183 C6.48044791,3.73063609 7.26264356,4.55537028 7.2366771,5.54716327 C7.21569051,6.35089646 6.66375466,7.04226834 5.88499749,7.24041338 C5.75872216,7.26948255 5.62960117,7.28455107 5.50012449,7.28585623 L5.48613343,7.29985688 Z" id="Shape"></path>
                <path d="M16.3162604,1.8639047 C16.2060305,1.85948148 16.1008313,1.90846058 16.0358784,1.99444372 L14.9572797,3.40448102 C14.702946,3.72381617 14.2329596,3.79253795 13.8918729,3.56048054 C13.5524631,3.31860576 13.4801317,2.85708015 13.7302172,2.52922223 L14.7460989,1.19869505 C14.8590119,1.0604963 14.8345288,0.860588192 14.6914311,0.751733724 C14.645148,0.716779499 14.5901448,0.694123951 14.531676,0.686140559 C12.9504467,0.455054125 11.4743048,1.50486843 11.2348398,3.03120412 C11.1834141,3.3593857 11.1930285,3.69393242 11.2629004,4.01887753 L10.8737418,4.39452785 L10.6295814,3.3567965 C10.5887762,3.18558539 10.4115811,3.07856496 10.2341623,3.11805033 L10.2338269,3.11805033 L9.29374232,3.32497089 C9.13074512,3.03562734 8.9325325,2.76635014 8.70324083,2.52285709 L9.21783347,1.73660218 C9.31509518,1.58793871 9.26959459,1.39159074 9.11554099,1.29730058 L7.69719717,0.434664151 C7.54314357,0.340805496 7.33967657,0.384714086 7.2420795,0.533377529 L6.72748686,1.32276109 C6.40562889,1.22922609 6.07348581,1.17258726 5.73798886,1.15413918 L5.52680798,0.246946869 C5.4860028,0.075627878 5.30880764,-0.0312846731 5.13138889,0.00820070013 L5.13105349,0.00820070013 L3.48174107,0.367884261 C3.30331617,0.402514856 3.18749649,0.570597356 3.22382988,0.742779415 C3.22416527,0.744074017 3.22450066,0.745368619 3.22450066,0.746663221 L3.44551948,1.64101739 C3.14568513,1.79831154 2.86653289,1.98958897 2.61432325,2.21085802 L1.79956089,1.71427029 C1.64550732,1.62041166 1.44192851,1.66432022 1.34433144,1.81298369 L0.450418187,3.18170161 C0.353156505,3.33036505 0.398657099,3.52671301 0.552710668,3.6208953 L1.36747302,4.11748303 C1.27043491,4.4281875 1.21174252,4.74870937 1.19262556,5.07246774 L0.255894794,5.30161228 C0.078476065,5.34109765 -0.0324246282,5.51198511 0.00849234715,5.68330408 L0.00849234715,5.68362773 L0.377863204,7.27512506 C0.41878018,7.44633617 0.595975361,7.5533566 0.773394118,7.51387123 L0.773729482,7.51387123 L1.71381408,7.31018719 C1.87681128,7.59920708 2.07502391,7.86848429 2.30420378,8.11230099 L1.78972293,8.8985559 C1.70330536,9.04743513 1.75439569,9.23558394 1.90509543,9.32501938 L3.32343928,10.1876558 C3.37598297,10.2191578 3.43657587,10.2357718 3.49828674,10.2354482 L3.55440784,10.2354482 C3.63914851,10.2166765 3.71237428,10.1662949 3.75888102,10.0954154 L4.27347363,9.3091605 C4.5953316,9.4026955 4.92747471,9.45933433 5.26297166,9.47778241 L5.3256887,9.74522558 L4.56045154,10.4836881 C4.3671579,10.4454974 4.17062218,10.426402 3.97330392,10.426402 C2.37183978,10.4286675 1.07591152,11.6831368 1.07814742,13.22846 C1.07881818,13.7288236 1.2186738,14.2200172 1.4829573,14.6503645 C1.57686515,14.8009698 1.77943778,14.8496253 1.93550368,14.7588953 C1.97239606,14.7375343 2.00470482,14.7092689 2.03041767,14.675825 L3.16189543,13.1957713 C3.41645276,12.8746021 3.88889864,12.8057725 4.23054433,13.0397718 C4.56671206,13.2749578 4.64586296,13.7263423 4.40874566,14.0551712 L3.33014698,15.468445 C3.22617757,15.612901 3.26340534,15.8111909 3.41321071,15.9115225 C3.45546923,15.9398959 3.5039883,15.9580203 3.55440784,15.9650327 C3.704884,15.9879041 3.85714888,15.9996634 4.0096373,15.999987 C4.77811652,16.0022526 5.51596387,15.7078385 6.05794629,15.1820143 C6.74671561,14.5145391 7.04286073,13.5582598 6.84632501,12.6355323 L13.5159061,6.20254736 C13.7091998,6.2407381 13.9057355,6.25983348 14.102942,6.25983348 C15.7044061,6.2585389 17.0013405,5.00504056 16.999999,3.45960949 C16.9996636,2.9509388 16.8555598,2.4521934 16.5834506,2.01677561 C16.5263233,1.92593772 16.4260431,1.86832792 16.3162604,1.8639047 Z M4.25033207,8.62161899 C4.10388054,8.57037432 3.9403244,8.6247476 3.85781963,8.75205013 L3.38280246,9.4810189 L2.52198055,8.96220718 L2.99688593,8.23323841 C3.07972606,8.10593585 3.05926756,7.94011893 2.94747251,7.83536407 C2.63176327,7.5390081 2.37485825,7.18946558 2.18871947,6.80399786 C2.12376655,6.66687793 1.96848323,6.59265408 1.81599477,6.62577429 L0.948576946,6.81683597 L0.724204295,5.86185127 L1.59173391,5.67089749 C1.7451167,5.6374536 1.85299894,5.50443325 1.84908611,5.35253329 C1.8447261,4.92693291 1.92063494,4.50392173 2.07334697,4.10475277 C2.12644963,3.9634254 2.06999314,3.80559184 1.93807497,3.72597384 L1.18602964,3.26444823 L1.72700591,2.43363743 L2.48229329,2.8920344 C2.61365249,2.97283916 2.78548148,2.95439107 2.89459345,2.84747852 C3.20169447,2.54281553 3.56391045,2.29489925 3.96335416,2.11538111 C4.10421593,2.05172986 4.1796776,1.90177182 4.14479754,1.75569755 L3.9468085,0.918521622 L4.93641831,0.702107344 L5.13429557,1.53917537 C5.16895202,1.68719152 5.30679532,1.79129912 5.46420275,1.78752319 C5.90512244,1.78428667 6.34291187,1.85786323 6.75722436,2.00393746 C6.90356408,2.05518213 7.06723203,2.00080885 7.14973677,1.87339845 L7.62464216,1.14453755 L8.48557589,1.66658577 L8.01055871,2.39544669 C7.92783034,2.52274919 7.94828884,2.68856614 8.0600839,2.79332102 C8.38071211,3.08967696 8.64220075,3.44040622 8.83191695,3.82781586 C8.89787604,3.96374906 9.05327115,4.0366783 9.20464167,4.00291075 L10.0721713,3.81195697 L10.3360076,4.93232707 L5.89629066,9.20408196 L5.86331111,9.08627318 C5.82865463,8.93825703 5.69081133,8.83414946 5.5334039,8.83803327 C5.09572626,8.84094613 4.66106709,8.76769323 4.25033207,8.62161899 Z M15.6861835,4.98972109 C15.2679582,5.39773648 14.6976916,5.6269889 14.102942,5.62634159 C13.8991396,5.62634159 13.6958961,5.59958648 13.4993605,5.54672358 C13.3818638,5.51295606 13.2548647,5.54478169 13.1694532,5.62947023 L6.24263172,12.3139316 C6.15487261,12.3963546 6.12189306,12.5190181 6.15688491,12.6322958 C6.37220219,13.3841359 6.15319568,14.1897019 5.58292911,14.7426049 C5.22205468,15.0931183 4.74636672,15.3124455 4.23714024,15.3633665 L4.94301423,14.4403153 C5.40942319,13.8307736 5.2754927,12.971913 4.64385066,12.5218231 C4.39901948,12.3473755 4.10287439,12.2535169 3.79845645,12.2535169 C3.34713983,12.2548115 2.92298938,12.4610847 2.65378689,12.8105193 L1.85892408,13.8513793 C1.49469578,12.7106192 2.15808764,11.5010295 3.33987316,11.1496529 C3.74960202,11.0277446 4.18694427,11.0220268 4.59991519,11.1330389 C4.71730001,11.1668064 4.84429919,11.1349808 4.9298224,11.0502922 L11.8566439,4.34986407 C11.9439559,4.26744111 11.9773826,4.14488546 11.9423907,4.03160777 C11.7259555,3.2797677 11.9452974,2.47377009 12.5163466,1.92119082 C12.8708486,1.57715036 13.3360279,1.35944148 13.8357518,1.30377359 L13.1990789,2.15044327 C12.73267,2.76030866 12.8672712,3.61970857 13.4992487,4.06979854 C14.1312261,4.51988846 15.0217855,4.38999676 15.4883063,3.78013134 L16.2336439,2.80292265 C16.4913315,3.57321081 16.279927,4.41772281 15.6861835,4.98972109 Z" id="Shape"></path>
            </g>
            <g id="ic-leads" transform="translate(2.000000, 152.000000)" stroke="#264AA1" stroke-width="0.3">
                <path d="M13.3913008,0 L0.608699219,0 C0.273,0 0,0.273 0,0.608699219 L0,13.3913008 C0,13.727 0.273,14 0.608398438,14 L13.3913008,14 C13.727,14 14,13.727 14,13.3913008 L14,0.608699219 C14,0.273 13.727,0 13.3913008,0 Z M4.86956641,9.73913281 L4.86956641,6.69566406 L9.13043359,6.69566406 L9.13043359,9.73913281 L4.86956641,9.73913281 Z M9.13043359,10.347832 L9.13043359,13.3913008 L4.86956641,13.3913008 L4.86956641,10.347832 L9.13043359,10.347832 Z M9.13043359,3.04346875 L9.13043359,6.0869375 L4.86956641,6.0869375 L4.86956641,3.04346875 L9.13043359,3.04346875 Z M13.3913008,3.04346875 L13.3913008,6.0869375 L9.73913281,6.0869375 L9.73913281,3.04346875 L13.3913008,3.04346875 Z M4.26086719,6.08696484 L0.608699219,6.08696484 L0.608699219,3.04346875 L4.26086719,3.04346875 L4.26086719,6.08696484 Z M0.608699219,6.69566406 L4.26086719,6.69566406 L4.26086719,9.73913281 L0.608699219,9.73913281 L0.608699219,6.69566406 Z M9.73913281,6.69566406 L13.3913008,6.69566406 L13.3913008,9.73913281 L9.73913281,9.73913281 L9.73913281,6.69566406 Z M13.3913008,0.608699219 L13.3913008,2.43479687 L0.608699219,2.43479687 L0.608699219,0.608699219 L13.3913008,0.608699219 Z M0.608699219,10.347832 L4.26086719,10.347832 L4.26086719,13.3913008 L0.608699219,13.3913008 L0.608699219,10.347832 Z M9.73913281,13.3913008 L9.73913281,10.347832 L13.3913008,10.347832 L13.3913008,13.3913008 L9.73913281,13.3913008 Z" id="Shape"></path>
            </g>
            <g id="ic-offers" transform="translate(1.000000, 254.000000)" stroke="#264AA1" stroke-width="0.399999976">
                <path d="M15.1999977,0 L0.800003191,0 C0.358170027,0 3.49673574e-06,0.362430556 3.49673574e-06,0.80952381 L3.49673574e-06,10.5238095 C-0.000496503073,10.6939107 0.05263681,10.8597282 0.151736772,10.9971111 C0.301936715,11.2080258 0.543103289,11.3330972 0.800003191,11.3333333 L15.1999977,11.3333333 C15.4565309,11.3331647 15.6973975,11.2085317 15.8477308,10.9981905 C15.9470641,10.8604702 16.0004307,10.6943155 15.9999974,10.5238095 L15.9999974,0.80952381 C15.9999974,0.362430556 15.6418309,0 15.1999977,0 Z M0.533336626,10.3691905 L0.533336626,1.77447619 L6.03066786,6.07142857 L0.533336626,10.3691905 Z M0.862669834,10.7936508 L6.46666769,6.41250794 L7.51120063,7.22850794 C7.79916718,7.45342063 8.2008337,7.45342063 8.48880025,7.22850794 L9.53333319,6.41250794 L15.137331,10.7936508 L0.862669834,10.7936508 Z M15.4666643,10.3691905 L9.96933302,6.07142857 L15.4666643,1.77447619 L15.4666643,10.3691905 Z M15.4666643,1.0925873 L8.16293371,6.80134921 C8.06693375,6.87633135 7.93306713,6.87633135 7.83706717,6.80134921 L0.533336626,1.0925873 L0.533336626,0.80952381 C0.533336626,0.660503968 0.652736581,0.53968254 0.800003191,0.53968254 L15.1999977,0.53968254 C15.3472643,0.53968254 15.4666643,0.660503968 15.4666643,0.80952381 L15.4666643,1.0925873 Z" id="Shape"></path>
            </g>
            <g id="ic-partners-leads" transform="translate(2.000000, 198.000000)" stroke="#264AA1" stroke-width="0.2">
                <path d="M12.4453125,1.40625 L10.4648555,1.40625 L10.4648555,1.0546875 C10.4648555,0.473132812 9.99172266,0 9.41016797,0 C8.82861328,0 8.35548047,0.473132813 8.35548047,1.0546875 L8.35548047,1.40625 L5.40235547,1.40625 L5.40235547,1.0546875 C5.40235547,0.473132812 4.92922266,0 4.34766797,0 C3.76611328,0 3.29298047,0.473132813 3.29298047,1.0546875 L3.29298047,1.40625 L1.7578125,1.40625 C0.788554688,1.40625 0,2.19480469 0,3.1640625 L0,13.0351562 C0,13.2292891 0.157394531,13.3867187 0.3515625,13.3867187 C0.545730469,13.3867187 0.703125,13.2292891 0.703125,13.0351562 L0.703125,3.1640625 C0.703125,2.58250781 1.17625781,2.109375 1.7578125,2.109375 L4.68889453,2.109375 C4.65145312,2.26321875 4.51286719,2.37796875 4.34763281,2.37796875 C4.15346484,2.37796875 3.99607031,2.53539844 3.99607031,2.72953125 C3.99607031,2.92366406 4.15346484,3.08109375 4.34763281,3.08109375 C4.90123828,3.08109375 5.35626562,2.65225781 5.39873438,2.109375 L9.75135938,2.109375 C9.71391797,2.26321875 9.57533203,2.37796875 9.41009766,2.37796875 C9.21592969,2.37796875 9.05853516,2.53539844 9.05853516,2.72953125 C9.05853516,2.92366406 9.21592969,3.08109375 9.41009766,3.08109375 C9.96370313,3.08109375 10.4187305,2.65225781 10.4611992,2.109375 L12.4453125,2.109375 C13.0268672,2.109375 13.5,2.58250781 13.5,3.1640625 L13.5,16.9706523 C13.5,17.1647852 13.6573945,17.3222148 13.8515625,17.3222148 C14.0457305,17.3222148 14.203125,17.1647852 14.203125,16.9706523 L14.203125,3.1640625 C14.203125,2.19480469 13.4145703,1.40625 12.4453125,1.40625 Z M4.69923047,1.40625 L3.99610547,1.40625 L3.99610547,1.0546875 C3.99610547,0.860835937 4.15381641,0.703125 4.34766797,0.703125 C4.54151953,0.703125 4.69923047,0.860835937 4.69923047,1.0546875 L4.69923047,1.40625 Z M9.76173047,1.40625 L9.05860547,1.40625 L9.05860547,1.0546875 C9.05860547,0.860835937 9.21631641,0.703125 9.41016797,0.703125 C9.60401953,0.703125 9.76173047,0.860835937 9.76173047,1.0546875 L9.76173047,1.40625 Z" id="Shape"></path>
                <path d="M13.6367188,17.296875 L1.7578125,17.296875 C1.17625781,17.296875 0.703125,16.8237422 0.703125,16.2421875 L0.703125,11.7656367 C0.703125,11.5715039 0.545730469,11.4140742 0.3515625,11.4140742 C0.157394531,11.4140742 0,11.5715039 0,11.7656367 L0,16.2421875 C0,17.2114453 0.788554688,18 1.7578125,18 L13.6367188,18 C13.8308867,18 13.9882812,17.8425703 13.9882812,17.6484375 C13.9882812,17.4543047 13.8308867,17.296875 13.6367188,17.296875 Z" id="Shape"></path>
                <path d="M5.34677344,6.1419375 C5.45772656,5.94523828 5.52135938,5.71844531 5.52135938,5.47695703 L5.52135938,5.22534375 C5.52135938,4.47644531 4.91210156,3.8671875 4.16320313,3.8671875 C3.41433984,3.8671875 2.80508203,4.47644531 2.80508203,5.22534375 L2.80508203,5.47695703 C2.80508203,5.71844531 2.86871484,5.94520312 2.97966797,6.1419375 C2.17504688,6.23035547 1.546875,6.91396875 1.546875,7.74179297 L1.546875,9 C1.546875,9.19413281 1.70426953,9.3515625 1.8984375,9.3515625 L6.42803906,9.3515625 C6.62220703,9.3515625 6.77960156,9.19413281 6.77960156,9 L6.77960156,7.74179297 C6.77960156,6.91396875 6.15142969,6.23035547 5.34677344,6.1419375 Z M4.16323828,4.5703125 C4.52439844,4.5703125 4.81826953,4.86414844 4.81826953,5.22534375 L4.81826953,5.47695703 C4.81826953,5.83811719 4.52443359,6.13198828 4.16323828,6.13198828 C3.80204297,6.13198828 3.50824219,5.83815234 3.50824219,5.47695703 C3.50824219,5.47695703 3.50824219,5.22534375 3.50824219,5.22534375 C3.50824219,4.86418359 3.80207813,4.5703125 4.16323828,4.5703125 Z M6.07651172,8.6484375 L2.25,8.6484375 L2.25,7.74179297 C2.25,7.24183594 2.65672266,6.83511328 3.15667969,6.83511328 L5.16983203,6.83511328 C5.66975391,6.83511328 6.07651172,7.24183594 6.07651172,7.74179297 L6.07651172,8.6484375 Z" id="Shape"></path>
                <path d="M5.34677344,12.8919375 C5.45772656,12.6952383 5.52135938,12.4684453 5.52135938,12.226957 L5.52135938,11.9753438 C5.52135938,11.2264453 4.91210156,10.6171875 4.16320313,10.6171875 C3.41433984,10.6171875 2.80508203,11.2264453 2.80508203,11.9753438 L2.80508203,12.226957 C2.80508203,12.4684453 2.86871484,12.6952031 2.97966797,12.8919375 C2.17504688,12.9803555 1.546875,13.6639687 1.546875,14.491793 L1.546875,15.75 C1.546875,15.9441328 1.70426953,16.1015625 1.8984375,16.1015625 L6.42803906,16.1015625 C6.62220703,16.1015625 6.77960156,15.9441328 6.77960156,15.75 L6.77960156,14.491793 C6.77960156,13.6639687 6.15142969,12.9803555 5.34677344,12.8919375 Z M4.16323828,11.3203125 C4.52439844,11.3203125 4.81826953,11.6141484 4.81826953,11.9753438 L4.81826953,12.226957 C4.81826953,12.5881172 4.52443359,12.8819883 4.16323828,12.8819883 C3.80204297,12.8819883 3.50824219,12.5881523 3.50824219,12.226957 C3.50824219,12.226957 3.50824219,11.9753438 3.50824219,11.9753438 C3.50824219,11.6141836 3.80207813,11.3203125 4.16323828,11.3203125 Z M6.07651172,15.3984375 L2.25,15.3984375 L2.25,14.491793 C2.25,13.9918359 2.65672266,13.5851133 3.15667969,13.5851133 L5.16983203,13.5851133 C5.66975391,13.5851133 6.07651172,13.9918359 6.07651172,14.491793 L6.07651172,15.3984375 Z" id="Shape"></path>
                <path d="M11.6367188,13.7109375 L8.16795703,13.7109375 C7.97378906,13.7109375 7.81639453,13.8683672 7.81639453,14.0625 C7.81639453,14.2566328 7.97378906,14.4140625 8.16795703,14.4140625 L11.6367188,14.4140625 C11.8308867,14.4140625 11.9882812,14.2566328 11.9882812,14.0625 C11.9882812,13.8683672 11.8308867,13.7109375 11.6367188,13.7109375 Z" id="Shape"></path>
                <path d="M11.6367188,15.3984375 L8.16795703,15.3984375 C7.97378906,15.3984375 7.81639453,15.5558672 7.81639453,15.75 C7.81639453,15.9441328 7.97378906,16.1015625 8.16795703,16.1015625 L11.6367188,16.1015625 C11.8308867,16.1015625 11.9882812,15.9441328 11.9882812,15.75 C11.9882812,15.5558672 11.8308867,15.3984375 11.6367188,15.3984375 Z" id="Shape"></path>
                <path d="M11.6367188,6.7109375 L8.16795703,6.7109375 C7.97378906,6.7109375 7.81639453,6.86836719 7.81639453,7.0625 C7.81639453,7.25663281 7.97378906,7.4140625 8.16795703,7.4140625 L11.6367188,7.4140625 C11.8308867,7.4140625 11.9882812,7.25663281 11.9882812,7.0625 C11.9882812,6.86836719 11.8308867,6.7109375 11.6367188,6.7109375 Z" id="Shape-Copy-2"></path>
                <path d="M11.6367188,8.3984375 L8.16795703,8.3984375 C7.97378906,8.3984375 7.81639453,8.55586719 7.81639453,8.75 C7.81639453,8.94413281 7.97378906,9.1015625 8.16795703,9.1015625 L11.6367188,9.1015625 C11.8308867,9.1015625 11.9882812,8.94413281 11.9882812,8.75 C11.9882812,8.55586719 11.8308867,8.3984375 11.6367188,8.3984375 Z" id="Shape-Copy"></path>
            </g>
            <g id="ic-buy" transform="translate(2.000000, 302.000000)" stroke="#264AA1" stroke-width="0.6">
                <path d="M13.87925,11.1375 L11.436,10.07925 C11.3785,10.0505 11.31475,9.98025 11.26,9.8865 L12.89125,9.88525 C12.91975,9.888 13.59225,9.9495 14.1315,9.71775 C14.33575,9.62975 14.48775,9.456 14.54875,9.241 C14.61025,9.024 14.57125,8.79425 14.44225,8.61025 C13.976,7.94675 12.88775,6.213 12.85375,4.4545 C12.853,4.42425 12.7545,1.43375 9.80125,1.4095 C9.3665,1.413 8.9645,1.48675 8.59875,1.62275 C8.519,1.4195 8.4015,1.2075 8.22675,1.008 C7.7135,0.422 6.88025,0.125 5.75,0.125 C4.61975,0.125 3.7865,0.422 3.273,1.0075 C2.681,1.68275 2.736,2.5015 2.75,2.63875 L2.75,3.9685 C2.59,4.15075 2.5,4.384 2.5,4.62475 L2.5,5.62475 C2.5,5.929 2.63825,6.21275 2.87425,6.402 C3.10325,7.30875 3.5825,7.992 3.75,8.21125 L3.75,9.0385 C3.75,9.2805 3.618,9.5025 3.40575,9.6185 L1.1755,10.835 C0.45025,11.231 0,11.9895 0,12.8155 L0,13.875 L11,13.875 L11.5,13.875 L15,13.875 L15,12.95075 C15,12.17775 14.5705,11.48325 13.87925,11.1375 Z M11,13.375 L0.5,13.375 L0.5,12.8155 C0.5,12.17275 0.8505,11.582 1.41475,11.2745 L3.645,10.058 C4.01825,9.85425 4.25,9.4635 4.25,9.03875 L4.25,8.034 L4.19175,7.9645 C4.18575,7.95725 3.573,7.216 3.33925,6.19825 L3.3165,6.09925 L3.23125,6.04425 C3.0865,5.95075 3,5.794 3,5.625 L3,4.625 C3,4.48475 3.0595,4.354 3.1675,4.25625 L3.25,4.182 L3.25,2.625 L3.24775,2.59225 C3.247,2.5855 3.162,1.8925 3.649,1.337 C4.06325,0.8645 4.77025,0.625 5.75,0.625 C6.72625,0.625 7.43175,0.86275 7.8465,1.332 C8.05275,1.565 8.1565,1.82525 8.20825,2.04875 C8.21225,2.06625 8.216,2.0835 8.2195,2.10075 C8.223,2.1185 8.22675,2.13625 8.2295,2.15325 C8.23275,2.17275 8.2355,2.19125 8.23825,2.20975 C8.24025,2.223 8.24225,2.2365 8.24375,2.24925 C8.2475,2.28025 8.2505,2.31025 8.2525,2.338 C8.25275,2.34025 8.25275,2.34225 8.25275,2.3445 C8.2545,2.3715 8.25575,2.397 8.2565,2.42025 C8.2565,2.42475 8.2565,2.4285 8.25675,2.433 C8.25725,2.45375 8.25725,2.4735 8.257,2.49075 C8.257,2.49325 8.257,2.49575 8.257,2.49825 C8.256,2.557 8.252,2.592 8.252,2.59275 L8.25,4.182 L8.3325,4.2565 C8.4405,4.354 8.5,4.48475 8.5,4.625 L8.5,5.625 C8.5,5.84325 8.357,6.03425 8.1445,6.09975 L8.02,6.138 L7.98,6.26175 C7.81275,6.782 7.5745,7.2625 7.2715,7.69 C7.19725,7.79525 7.125,7.8885 7.06225,7.95975 L7,8.03075 L7,9.062 C7,9.12525 7.00625,9.18725 7.016,9.24825 C7.018,9.26125 7.0215,9.27375 7.024,9.28675 C7.03375,9.337 7.04675,9.38625 7.06275,9.43425 C7.0665,9.4455 7.0705,9.45625 7.07475,9.4675 C7.09425,9.51975 7.117,9.57025 7.1435,9.61875 C7.1465,9.62425 7.14925,9.63 7.15225,9.6355 C7.1885,9.6995 7.23025,9.76025 7.27825,9.81625 L7.33525,9.8865 L7.345,9.8865 C7.43075,9.971 7.52925,10.0445 7.64125,10.1005 L10.0295,11.2945 C10.62825,11.5935 11,12.195 11,12.86425 L11,13.375 Z M14.5,13.375 L11.5,13.375 L11.5,12.86425 C11.5,12.0045 11.02225,11.23175 10.2535,10.84725 L8.539,9.98975 C8.58125,9.89325 8.58675,9.78275 8.54975,9.67625 C8.4885,9.5 8.3285,9.38625 8.14225,9.38625 L7.588,9.38625 C7.5765,9.366 7.569,9.34375 7.55975,9.32225 C7.54725,9.2935 7.5325,9.26525 7.52425,9.235 C7.509,9.1795 7.5,9.1215 7.5,9.062 L7.5,8.21675 C7.55725,8.14675 7.6175,8.067 7.67975,7.979 C7.9895,7.5415 8.23775,7.0545 8.41825,6.52925 C8.771,6.3675 9,6.01875 9,5.625 L9,4.625 C9,4.38425 8.91,4.151 8.75,3.96875 L8.75,2.639 C8.7565,2.5765 8.7705,2.37175 8.729,2.10425 C9.051,1.97775 9.41175,1.9125 9.8015,1.90925 C12.26175,1.9295 12.3515,4.362 12.354,4.4645 C12.39075,6.36025 13.5405,8.19625 14.03325,8.8975 C14.0755,8.9575 14.08825,9.033 14.068,9.10425 C14.0565,9.14525 14.0235,9.21975 13.93425,9.258 C13.51425,9.43875 12.9445,9.3875 12.91525,9.38625 L11.1945,9.38625 C11.03375,9.38625 10.88725,9.468 10.8025,9.60475 C10.718,9.741 10.71,9.9075 10.781,10.0505 C10.85925,10.20825 10.9975,10.419 11.22475,10.53225 L13.6615,11.58775 C14.17875,11.849 14.5,12.3705 14.5,12.95075 L14.5,13.375 Z" id="Shape"></path>
            </g>
            <g id="ic-profile" transform="translate(3.000000, 352.000000)" stroke="#264AA1" stroke-width="0.4">
                <path d="M9.18879245,9.11849434 L9.1490566,9.10053962 C9.05418113,9.05736981 8.95861887,9.01665283 8.86119245,8.97853585 C8.75493585,8.93595472 8.64710943,8.89656226 8.53771321,8.8596717 C8.45132453,8.83131698 8.36429811,8.80482642 8.27633962,8.77897358 C8.14236604,8.74021887 8.00706792,8.70519245 7.86774717,8.67428679 C7.8204566,8.66452453 7.77223396,8.6550566 7.72430566,8.64652075 L7.69153585,8.64019245 C7.60926792,8.62410189 7.5266566,8.60992453 7.44311321,8.59761132 L7.41917358,8.59383396 C7.41824151,8.59383396 7.41760377,8.59319623 7.4166717,8.59319623 L7.39273208,8.5900566 C7.32336604,8.5796566 7.2543434,8.56989434 7.18242642,8.56170189 L6.93778113,8.54153962 C6.63701509,8.5216717 6.32707547,8.52230943 6.02979245,8.54404151 L5.94310943,8.55130189 L5.90273585,8.55444151 L5.80153208,8.56356604 C5.70852075,8.5733283 5.61614717,8.58627925 5.52377358,8.60109434 L5.49664528,8.6048717 C5.43360755,8.6152717 5.37052075,8.62694717 5.30841509,8.63862264 C5.23939245,8.65093585 5.17125283,8.66447547 5.10316226,8.67929057 C4.97139623,8.70892075 4.84051321,8.7426717 4.7138,8.77956226 C4.61289057,8.80855472 4.51330566,8.84039245 4.4196566,8.87257358 L4.35470566,8.89592453 C4.15607547,8.96622264 3.95872075,9.04692075 3.76764528,9.13551698 L3.71657736,9.1598 L3.71564528,9.16107547 C1.48126415,10.2305094 0.0404226415,12.5090415 0.0404226415,14.9814453 C0.0404226415,15.0382038 0.0442,15.0939811 0.0476830189,15.1501019 L0.0644113208,15.5423094 L12.9264151,15.5423094 L12.9437321,15.154517 C12.9475094,15.0971208 12.9509925,15.0400679 12.9509925,14.9814453 C12.9509925,12.4696 11.4751736,10.1709057 9.18879245,9.11849434 Z M0.671192453,14.9117358 C0.698320755,12.6918755 2.01083019,10.6554868 4.01126038,9.71752453 L4.07557358,9.69230943 L4.0831283,9.68504906 C4.23981509,9.61347547 4.40155472,9.54823019 4.56550189,9.49053962 L4.61750189,9.47194717 C4.70673585,9.44104151 4.79562642,9.41268679 4.888,9.38649057 C5.00308679,9.35273962 5.12038113,9.3224717 5.23796981,9.29603019 C5.2988,9.2831283 5.35967925,9.27081509 5.42242264,9.25913962 C5.47221509,9.25001509 5.52171321,9.24054717 5.57184906,9.23264906 L5.59642642,9.22823396 C5.68659245,9.2140566 5.77710189,9.20110566 5.86726792,9.1913434 L6.07345283,9.17338868 C6.34331321,9.15352075 6.60154717,9.15067547 6.91428302,9.17338868 L7.11477736,9.19011698 C7.16427547,9.19580755 7.21377358,9.20243019 7.27401509,9.21091698 L7.34622642,9.22131698 C7.42157736,9.23235472 7.4969283,9.2452566 7.57257358,9.25948302 L7.60789434,9.26610566 C7.65047547,9.27400377 7.69271321,9.28219623 7.7327434,9.29068302 C7.85695472,9.31781132 7.97895849,9.3499434 8.10003019,9.38496981 C8.18009057,9.40832075 8.25956226,9.43226038 8.33712075,9.45811321 C8.43547925,9.49088302 8.53261132,9.52654717 8.62876226,9.56466415 C8.72113585,9.60091698 8.81223396,9.63972075 8.9024,9.68102642 L8.91814717,9.68828679 C10.9640038,10.6268868 12.2925547,12.6698981 12.319683,14.9111962 L0.671192453,14.9111962 L0.671192453,14.9117358 Z M4.93725283,7.7312717 C4.9845434,7.75113962 5.03340377,7.7684566 5.08226415,7.78582264 L5.1847434,7.82300755 C5.22413585,7.83811698 5.2638717,7.85298113 5.30424528,7.86558868 C5.68006792,7.98381509 6.07320755,8.04464528 6.47296981,8.04783396 L6.50480755,8.0484717 C6.64196981,8.0484717 6.77942642,8.04121132 6.91119245,8.0276717 C6.95656981,8.0232566 7.00072075,8.01599623 7.04516604,8.00844151 L7.14386792,7.99362642 C7.19935094,7.98636604 7.25483396,7.97817358 7.31286792,7.96684151 C7.35260377,7.95864906 7.39106415,7.94824906 7.42952453,7.93784906 L7.53735094,7.91042642 C7.59062642,7.89752453 7.64390189,7.88457358 7.69658868,7.86818868 C7.72935849,7.85778868 7.76153962,7.84581887 7.79337736,7.8338 L7.88006038,7.8026 C7.9418717,7.78116226 8.0042717,7.75908679 8.06672075,7.73293962 C8.09100377,7.72253962 8.11464906,7.71120755 8.13795094,7.69982642 L8.16601132,7.6859434 C8.25146792,7.64777736 8.33658113,7.60867925 8.4210566,7.56330189 L8.47590189,7.53053208 C8.57048302,7.47691321 8.66476981,7.42143019 8.76028302,7.35618491 C8.80978113,7.32277736 8.8570717,7.28524906 8.90372453,7.24806415 L9.06516981,7.12257736 C9.99336981,6.35425283 10.5268113,5.22678491 10.5268113,4.05742264 L10.5287245,4.02401509 C10.5287245,1.80508679 8.72344151,9.81132075e-05 6.50451321,9.81132075e-05 C4.38649434,9.81132075e-05 2.62438113,1.65624906 2.49290943,3.77053962 L2.48942642,3.82288302 C2.48437358,3.88940377 2.48030189,3.95592453 2.48030189,4.02401509 C2.47966415,5.64474717 3.44411698,7.09976604 4.93725283,7.7312717 Z M3.11808679,3.86659245 L3.12186415,3.80983396 C3.23283019,2.02692075 4.71841132,0.630573585 6.50416981,0.630573585 C8.37567925,0.630573585 9.89780755,2.15275094 9.89942642,3.99521887 L9.89751321,4.02833208 C9.89623774,5.03786792 9.44604528,5.98843774 8.65942264,6.64138113 L8.50965283,6.75553585 C8.47624528,6.78266415 8.44249434,6.8097434 8.40055094,6.83878491 C8.32490566,6.89019623 8.24479623,6.93650566 8.16346038,6.98256981 L8.11837736,7.00999245 C8.05028679,7.04658868 7.97871321,7.07901509 7.90429434,7.1121283 L7.82075094,7.15250189 C7.77282264,7.17236981 7.72239245,7.18968679 7.67255094,7.20705283 L7.56850189,7.24458113 C7.54833962,7.25213585 7.52783396,7.2603283 7.50796604,7.26631321 C7.46921132,7.27828302 7.42947547,7.2874566 7.39003396,7.29721887 L7.26425283,7.3294 C7.23712453,7.33666038 7.21033962,7.34421509 7.1864,7.34926792 C7.1444566,7.35746038 7.10158113,7.36315094 7.05904906,7.36913585 L6.93925283,7.38709057 C6.91026038,7.3921434 6.88121887,7.39719623 6.8487434,7.40033585 C6.74376226,7.41137358 6.6381434,7.41735849 6.53095472,7.41829057 L6.50132453,7.41799623 L6.50068679,7.41799623 C6.15547547,7.41770189 5.8165434,7.36629057 5.49242642,7.26479245 C5.46436604,7.25596226 5.4369434,7.24492453 5.40952075,7.23452453 L5.291,7.19135472 C5.25410943,7.17840377 5.21756226,7.16579623 5.18224151,7.15098113 C3.92364528,6.61866792 3.11018868,5.3909283 3.11018868,4.02421132 C3.11018868,3.97093585 3.11430943,3.91859245 3.11808679,3.86659245 Z" id="Shape"></path>
            </g>
            <g id="ic-portfolio" transform="translate(1.000000, 403.000000)" stroke="#FFFFFF" stroke-width="0.1">
                <path d="M17.4759521,2.10951232 C17.4748535,2.10951232 17.4737549,2.109375 17.4726562,2.109375 L12.6914062,2.109375 L12.6914062,1.58203125 C12.6914062,0.709716797 11.9816895,0 11.109375,0 L6.890625,0 C6.01831055,0 5.30859375,0.709716797 5.30859375,1.58203125 L5.30859375,2.109375 L0.52734375,2.109375 C0.233734148,2.109375 0,2.34997559 0,2.63671875 L0,14.2382812 C0,15.1105957 0.709716797,15.8203125 1.58203125,15.8203125 L16.4179688,15.8203125 C17.2902832,15.8203125 18,15.1105957 18,14.2382812 L18,2.6478424 C18,2.64715576 18,2.64646912 18,2.64578245 C17.9798126,2.29943848 17.7668152,2.11143495 17.4759521,2.10951232 Z M6.36328125,1.58203125 C6.36328125,1.29130555 6.5998993,1.0546875 6.890625,1.0546875 L11.109375,1.0546875 C11.4001007,1.0546875 11.6367188,1.29130555 11.6367188,1.58203125 L11.6367188,2.109375 L6.36328125,2.109375 L6.36328125,1.58203125 Z M16.7409668,3.1640625 L15.1033173,8.0768738 C15.0314941,8.29261779 14.8304443,8.4375 14.6031647,8.4375 L11.6367188,8.4375 L11.6367188,7.91015625 C11.6367188,7.61888123 11.40065,7.3828125 11.109375,7.3828125 L6.890625,7.3828125 C6.59934998,7.3828125 6.36328125,7.61888123 6.36328125,7.91015625 L6.36328125,8.4375 L3.39683534,8.4375 C3.16955566,8.4375 2.96850586,8.29261779 2.89668273,8.0768738 L1.2590332,3.1640625 L16.7409668,3.1640625 Z M10.5820312,8.4375 L10.5820312,9.4921875 L7.41796875,9.4921875 L7.41796875,8.4375 L10.5820312,8.4375 Z M16.9453125,14.2382813 C16.9453125,14.5290069 16.7086944,14.765625 16.4179688,14.765625 L1.58203125,14.765625 C1.29130555,14.765625 1.0546875,14.5290069 1.0546875,14.2382813 L1.0546875,5.88633729 L1.89610291,8.41044618 C2.11170959,9.0575409 2.714859,9.4921875 3.39683534,9.4921875 L6.36328125,9.4921875 L6.36328125,10.0195312 C6.36328125,10.3108063 6.59934998,10.546875 6.890625,10.546875 L11.109375,10.546875 C11.40065,10.546875 11.6367188,10.3108063 11.6367188,10.0195312 L11.6367188,9.4921875 L14.6031647,9.4921875 C15.285141,9.4921875 15.8882904,9.0575409 16.1038971,8.41044618 L16.9453125,5.88633729 L16.9453125,14.2382813 Z" id="Shape"></path>
            </g>
            <g id="ic-logout-copy" transform="translate(2.000000, 456.000000)" stroke="#264AA1" stroke-width="0.3">
                <path d="M6.74751945,14.350249 L2.81021968,14.350249 C1.7401968,14.350249 0.872004577,13.4715305 0.872004577,12.3957464 L0.872004577,2.82675999 C0.872004577,1.74774532 1.74340046,0.87225737 2.81021968,0.87225737 L6.81159268,0.87225737 C7.05186728,0.87225737 7.24408696,0.678422399 7.24408696,0.436128685 C7.24408696,0.193834971 7.05186728,0 6.81159268,0 L2.81021968,0 C1.26285126,0 0.00701601831,1.26961906 0.00701601831,2.82675999 L0.00701601831,12.3957464 C0.00701601831,13.9561179 1.26605492,15.2225064 2.81021968,15.2225064 L6.74751945,15.2225064 C6.98779405,15.2225064 7.18001373,15.0286714 7.18001373,14.7863777 C7.18001373,14.544084 6.98459039,14.350249 6.74751945,14.350249 Z" id="Shape"></path>
                <path d="M13.8724622,7.30434783 L11.1237208,4.53250774 C10.9539268,4.36128685 10.6816156,4.36128685 10.5118215,4.53250774 C10.3420275,4.70372863 10.3420275,4.97832817 10.5118215,5.14954906 L12.5237208,7.17835509 L3.74889245,7.17835509 C3.50861785,7.17835509 3.31639817,7.37219007 3.31639817,7.61448378 C3.31639817,7.85677749 3.50861785,8.05061246 3.74889245,8.05061246 L12.5237208,8.05061246 L10.5118215,10.0794185 C10.3420275,10.2506394 10.3420275,10.5252389 10.5118215,10.6964598 C10.5951167,10.780455 10.7072449,10.8256831 10.8161693,10.8256831 C10.9250938,10.8256831 11.037222,10.7836856 11.1205172,10.6964598 L13.8692586,7.92461973 C14.0422563,7.75016826 14.0422563,7.47233813 13.8724622,7.30434783 Z" id="Shape"></path>
            </g>
            <g id="chat" transform="translate(0.000000, 504.000000)" stroke="#264AA1" stroke-width="0.6">
                <path d="M10.8377057,0.0430922693 C7.0240399,0.0430922693 3.91062344,2.43112219 3.70952618,5.42962594 C1.48309227,6.14783042 0,7.87870324 0,9.80349127 C0.0424638404,11.2208229 0.772743142,12.5286284 1.95710723,13.3083292 L1.95710723,16.3319701 C1.95710723,16.4807282 2.07767581,16.6012968 2.22638903,16.6013416 C2.29430424,16.6013416 2.35975062,16.5756658 2.40957606,16.5294763 L4.71501247,14.4179551 C5.11150623,14.4829077 5.51262344,14.5153616 5.91441397,14.5149127 C8.42812968,14.5149127 10.6401995,13.2652369 11.4804988,11.3907232 C11.7605985,11.3691771 12.0406983,11.3404489 12.320798,11.2937656 L15.1505237,13.8828928 C15.259601,13.9840249 15.429995,13.977606 15.5311272,13.8685736 C15.5773167,13.8187481 15.6029925,13.7533466 15.6029925,13.6853865 L15.6029925,9.97226933 C17.121995,8.89496259 17.9910224,7.35441397 17.9910224,5.73127182 C17.9874314,2.59630923 14.7806484,0.0430922693 10.8377057,0.0430922693 Z M5.91441397,13.9762594 C5.50009975,13.9767531 5.0866384,13.9394514 4.67910224,13.8649377 C4.5965985,13.8494963 4.51162594,13.8733766 4.44927681,13.9295761 L2.49935162,15.7250873 L2.49935162,13.1646883 C2.49917207,13.0754065 2.45482294,12.9920499 2.38084788,12.9420449 C1.20299252,12.1484289 0.538653367,10.9921197 0.538653367,9.79990025 C0.538653367,8.16239401 1.7919202,6.6721197 3.69157107,5.99700748 C3.71001995,6.2394015 3.74965586,6.47973067 3.81007481,6.71521197 C4.07500249,7.80809476 4.67977556,8.78880299 5.53735661,9.51620948 C5.58763092,9.56289277 7.41187032,11.358404 10.877207,11.4014963 C10.0404988,12.963591 8.10852868,13.9762594 5.91441397,13.9762594 Z M15.1792519,9.60957606 C15.1052768,9.65958105 15.0609277,9.74293766 15.0607481,9.83221945 L15.0607481,13.0641397 L12.5829426,10.7982045 C12.5331172,10.752015 12.4677157,10.726384 12.3998005,10.726384 L12.3495262,10.726384 C11.8757805,10.814409 11.3949875,10.8588479 10.9131172,10.8592519 C8.30603491,10.8592519 6.72957606,9.84658354 5.95750623,9.19660848 C5.17057855,8.51507731 4.59911222,7.61916209 4.31281796,6.61825436 C4.24319701,6.32280299 4.20706234,6.0204389 4.20508728,5.71690773 C4.22663342,2.89436409 7.19281796,0.578154613 10.8377057,0.578154613 C14.4825935,0.578154613 17.4487781,2.88718204 17.4487781,5.7276808 C17.4487781,7.21436409 16.6228429,8.62922693 15.1792519,9.60957606 Z" id="Shape"></path>
            </g>
        </g>
    </g>
</svg>