<?xml version="1.0" encoding="UTF-8"?>
<svg width="52px" height="23px" viewBox="0 0 52 23" version="1.1" xmlns="http://www.w3.org/2000/svg" xmlns:xlink="http://www.w3.org/1999/xlink">
    <!-- Generator: Sketch 51.3 (57544) - http://www.bohemiancoding.com/sketch -->
    <title>car-radio</title>
    <desc>Created with Sketch.</desc>
    <defs></defs>
    <g id="Salepage" stroke="none" stroke-width="1" fill="none" fill-rule="evenodd">
        <g id="Sale-page-spare-parts-ECV" transform="translate(-637.000000, -746.000000)" fill="#264AA1" fill-rule="nonzero" stroke="#FFFFFF" stroke-width="0.6">
            <g id="sell-your-car" transform="translate(0.000000, 109.000000)">
                <g id="vehicle" transform="translate(354.000000, 175.000000)">
                    <g id="Group-5-Copy" transform="translate(141.000000, 177.000000)">
                        <g id="Group-6">
                            <g id="Group-3-Copy-2" transform="translate(115.000000, 264.000000)">
                                <g id="car-radio" transform="translate(28.000000, 22.000000)">
                                    <path d="M45.8333008,0.0325195312 L4.16669922,0.0325195312 C1.86972656,0.0325195312 0,1.90126953 0,4.19921875 L0,16.6992187 C0,18.997168 1.86972656,20.865918 4.16669922,20.865918 L45.8333984,20.865918 C48.1302734,20.865918 50,18.997168 50,16.6992187 L50,4.19921875 C50,1.90126953 48.1302734,0.0325195312 45.8333008,0.0325195312 Z M47.9166992,16.6992188 C47.9166992,17.8476562 46.9828125,18.7825195 45.8333984,18.7825195 L4.16669922,18.7825195 C3.0171875,18.7825195 2.08339844,17.8476562 2.08339844,16.6992188 L2.08339844,4.19921875 C2.08339844,3.05078125 3.01728516,2.11591797 4.16669922,2.11591797 L45.8333984,2.11591797 C46.9829102,2.11591797 47.9166992,3.05078125 47.9166992,4.19921875 L47.9166992,16.6992188 Z" id="Shape"></path>
                                    <path d="M44.7916992,4.19921875 L15.625,4.19921875 C15.0492188,4.19921875 14.5629883,4.6640625 14.5629883,5.23886719 C14.5629883,5.79433594 14.9759766,6.24599609 15.5232422,6.27744141 C15.5456055,6.27949219 15.5700195,6.28154297 15.5944336,6.28251953 C16.1193359,6.41884766 17.7083008,8.12070313 17.7083008,10.4492188 C17.7083008,12.7959961 16.0949219,14.5060547 15.625,14.615918 C15.0492188,14.615918 14.5833008,15.0818359 14.5833008,15.6576172 C14.5833008,16.2333984 15.0492188,16.6993164 15.625,16.6993164 L44.7916992,16.6993164 C45.3674805,16.6993164 45.8333984,16.2333984 45.8333984,15.6576172 L45.8333984,5.24091797 C45.8333008,4.66513672 45.3674805,4.19921875 44.7916992,4.19921875 Z M43.75,14.615918 L37.5,14.615918 L37.5,11.490918 C37.5,10.9151367 37.034082,10.4492187 36.4583008,10.4492187 C35.8825195,10.4492187 35.4166016,10.9151367 35.4166016,11.490918 L35.4166016,14.615918 L33.3333008,14.615918 L33.3333008,11.490918 C33.3333008,10.9151367 32.8673828,10.4492187 32.2916016,10.4492187 C31.7158203,10.4492187 31.2499023,10.9151367 31.2499023,11.490918 L31.2499023,14.615918 L29.1666016,14.615918 L29.1666016,9.40761719 C29.1666016,8.83183594 28.7006836,8.36591797 28.1249023,8.36591797 C27.5491211,8.36591797 27.0832031,8.83183594 27.0832031,9.40761719 L27.0832031,14.615918 L25,14.615918 L25,11.490918 C25,10.9151367 24.534082,10.4492187 23.9583008,10.4492187 C23.3825195,10.4492187 22.9166016,10.9151367 22.9166016,11.490918 L22.9166016,14.615918 L18.5037109,14.615918 C19.2584961,13.4745117 19.7916016,11.9833008 19.7916016,10.4492187 C19.7916016,8.91513672 19.2585937,7.42392578 18.5037109,6.28251953 L43.75,6.28251953 L43.75,14.615918 Z" id="Shape"></path>
                                    <path d="M9.375,5.24091797 C6.50224609,5.24091797 4.16669922,7.57753906 4.16669922,10.4492188 C4.16669922,13.3208984 6.50224609,15.6575195 9.375,15.6575195 C12.2477539,15.6575195 14.5833008,13.3208984 14.5833008,10.4492188 C14.5833008,7.57753906 12.2477539,5.24091797 9.375,5.24091797 Z M9.375,13.5742188 C7.65175781,13.5742188 6.25,12.1724609 6.25,10.4492188 C6.25,8.72597656 7.65175781,7.32421875 9.375,7.32421875 C11.0982422,7.32421875 12.5,8.72597656 12.5,10.4492188 C12.5,12.1724609 11.0982422,13.5742188 9.375,13.5742188 Z" id="Shape"></path>
                                </g>
                            </g>
                        </g>
                    </g>
                </g>
            </g>
        </g>
    </g>
</svg>