<?xml version="1.0" encoding="UTF-8"?>
<svg width="41px" height="40px" viewBox="0 0 41 40" version="1.1" xmlns="http://www.w3.org/2000/svg" xmlns:xlink="http://www.w3.org/1999/xlink">
    <!-- Generator: Sketch 51.3 (57544) - http://www.bohemiancoding.com/sketch -->
    <title>brakes</title>
    <desc>Created with Sketch.</desc>
    <defs></defs>
    <g id="Salepage" stroke="none" stroke-width="1" fill="none" fill-rule="evenodd">
        <g id="Sale-page-spare-parts-ECV" transform="translate(-643.000000, -604.000000)" fill="#264AA1" fill-rule="nonzero">
            <g id="sell-your-car" transform="translate(0.000000, 109.000000)">
                <g id="vehicle" transform="translate(354.000000, 175.000000)">
                    <g id="Group-5-Copy" transform="translate(141.000000, 177.000000)">
                        <g id="Group-6">
                            <g id="Group-3-Copy-4" transform="translate(115.000000, 131.000000)">
                                <g id="brakes" transform="translate(33.971429, 12.428571)">
                                    <path d="M21.242236,3.39875776 C20.9499429,3.39875776 20.6686957,3.40640497 20.3925466,3.41915031 L20.3925466,0.849689441 C20.3925466,0.37981118 20.0127354,0 19.5428571,0 C8.76624596,0 0,8.76624596 0,19.5428571 C0,20.0127354 0.37981118,20.3925466 0.849689441,20.3925466 L3.41915031,20.3925466 C3.40640497,20.6686957 3.39875776,20.9499429 3.39875776,21.242236 C3.39875776,31.0807901 11.403682,39.0857143 21.242236,39.0857143 C31.0807901,39.0857143 39.0857143,31.0807901 39.0857143,21.242236 C39.0857143,11.403682 31.0807901,3.39875776 21.242236,3.39875776 Z M1.71977143,18.6931677 C2.15056398,9.52841739 9.52841739,2.15056398 18.6931677,1.71892174 L18.6931677,4.33341615 L18.6931677,6.82640497 C12.3408894,7.24530186 7.24530186,12.3408894 6.82555528,18.6931677 L4.33341615,18.6931677 L1.71977143,18.6931677 Z M21.242236,37.3863354 C12.3400398,37.3863354 5.09813665,30.1444323 5.09813665,21.242236 C5.09813665,20.9482435 5.10493416,20.6661466 5.11852919,20.3925466 L7.64720497,20.3925466 C8.11708323,20.3925466 8.49689441,20.0127354 8.49689441,19.5428571 C8.49689441,13.4522832 13.4522832,8.49689441 19.5428571,8.49689441 C20.0127354,8.49689441 20.3925466,8.11708323 20.3925466,7.64720497 L20.3925466,5.11852919 C20.6661466,5.10493416 20.9482435,5.09813665 21.242236,5.09813665 C30.1444323,5.09813665 37.3863354,12.3400398 37.3863354,21.242236 C37.3863354,30.1444323 30.1444323,37.3863354 21.242236,37.3863354 Z" id="Shape"></path>
                                    <path d="M21.242236,11.8956522 C16.0888696,11.8956522 11.8956522,16.0888696 11.8956522,21.242236 C11.8956522,26.3956025 16.0888696,30.5888199 21.242236,30.5888199 C26.3956025,30.5888199 30.5888199,26.3956025 30.5888199,21.242236 C30.5888199,16.0888696 26.3956025,11.8956522 21.242236,11.8956522 Z M21.242236,28.889441 C17.0252273,28.889441 13.5950311,25.4592447 13.5950311,21.242236 C13.5950311,17.0252273 17.0252273,13.5950311 21.242236,13.5950311 C25.4592447,13.5950311 28.889441,17.0252273 28.889441,21.242236 C28.889441,25.4592447 25.4592447,28.889441 21.242236,28.889441 Z" id="Shape"></path>
                                    <path d="M21.242236,16.9937888 C18.8996422,16.9937888 16.9937888,18.8996422 16.9937888,21.242236 C16.9937888,23.5848298 18.8996422,25.4906832 21.242236,25.4906832 C23.5848298,25.4906832 25.4906832,23.5848298 25.4906832,21.242236 C25.4906832,18.8996422 23.5848298,16.9937888 21.242236,16.9937888 Z M21.242236,23.7913043 C19.8368497,23.7913043 18.6931677,22.6476224 18.6931677,21.242236 C18.6931677,19.8368497 19.8368497,18.6931677 21.242236,18.6931677 C22.6476224,18.6931677 23.7913043,19.8368497 23.7913043,21.242236 C23.7913043,22.6476224 22.6476224,23.7913043 21.242236,23.7913043 Z" id="Shape"></path>
                                </g>
                            </g>
                        </g>
                    </g>
                </g>
            </g>
        </g>
    </g>
</svg>