<?xml version="1.0" encoding="UTF-8"?>
<svg width="50px" height="34px" viewBox="0 0 50 34" version="1.1" xmlns="http://www.w3.org/2000/svg" xmlns:xlink="http://www.w3.org/1999/xlink">
    <!-- Generator: Sketch 51.3 (57544) - http://www.bohemiancoding.com/sketch -->
    <title>engine (2)</title>
    <desc>Created with Sketch.</desc>
    <defs></defs>
    <g id="Salepage" stroke="none" stroke-width="1" fill="none" fill-rule="evenodd">
        <g id="Sale-page-spare-parts-ECV" transform="translate(-753.000000, -609.000000)" fill="#264AA1" fill-rule="nonzero">
            <g id="sell-your-car" transform="translate(0.000000, 109.000000)">
                <g id="vehicle" transform="translate(354.000000, 175.000000)">
                    <g id="Group-5-Copy" transform="translate(141.000000, 177.000000)">
                        <g id="Group-6">
                            <g id="Group-3" transform="translate(230.000000, 131.000000)">
                                <g id="engine-(2)" transform="translate(28.000000, 17.000000)">
                                    <path d="M49.1666992,9.99990234 L45.8333984,9.99990234 C45.5000977,9.99990234 45.1666992,10.2499023 45.0833984,10.5832031 L42.7500977,17.4999023 L40.5000977,17.4999023 L38.2500977,13.7499023 C38.0833984,13.4999023 37.8333984,13.3332031 37.5000977,13.3332031 L34.1667969,13.3332031 L34.1667969,10.8332031 C34.1667969,10.3332031 33.8334961,9.99990234 33.3334961,9.99990234 L27.5,9.99990234 L27.5,6.66660156 L30,6.66660156 C30.5,6.66660156 30.8333008,6.33330078 30.8333008,5.83330078 L30.8333008,0.833300781 C30.8333008,0.333300781 30.5,0 30,0 L15,0 C14.5,0 14.1666992,0.333300781 14.1666992,0.833300781 L14.1666992,5.83330078 C14.1666992,6.33330078 14.5,6.66660156 15,6.66660156 L17.5,6.66660156 L17.5,9.99990234 L10.8333008,9.99990234 C10.5833008,9.99990234 10.4166016,10.0832031 10.25,10.2499023 C10.0833984,10.4166016 10,10.5832031 10,10.8332031 L10,13.3332031 L4.16669922,13.3332031 C3.66669922,13.3332031 3.33339844,13.6665039 3.33339844,14.1665039 L3.33339844,19.1665039 L1.66669922,19.1665039 L1.66669922,16.6666016 C1.66669922,16.1666016 1.33339844,15.8333008 0.833398438,15.8333008 C0.333398438,15.8333008 0,16.1666016 0,16.6666016 L0,23.3333008 C0,23.8333008 0.333300781,24.1666016 0.833300781,24.1666016 C1.33330078,24.1666016 1.66660156,23.8333008 1.66660156,23.3333008 L1.66660156,20.8333008 L3.33330078,20.8333008 L3.33330078,27.5 C3.33330078,28 3.66660156,28.3333008 4.16660156,28.3333008 L10.4166016,28.3333008 L13.4999023,33 C13.6666016,33.1666992 13.9166016,33.3333008 14.1666016,33.3333008 L37.5,33.3333008 C37.8333008,33.3333008 38.0833008,33.1666016 38.25,32.8333008 L40.5,28.3333008 L42.8333008,28.3333008 L45.0833008,32.8333008 C45.25,33.1666016 45.5,33.3333008 45.8333008,33.3333008 L49.1666016,33.3333008 C49.6666016,33.3333008 49.9999023,33 49.9999023,32.5 L49.9999023,10.8333008 C50,10.3333008 49.6666992,9.99990234 49.1666992,9.99990234 Z M15.8333008,1.66660156 L29.1666016,1.66660156 L29.1666016,4.99990234 L26.6666016,4.99990234 L18.3333008,4.99990234 L15.8333008,4.99990234 L15.8333008,1.66660156 Z M19.1666992,6.66660156 L25.8333984,6.66660156 L25.8333984,9.99990234 L19.1666992,9.99990234 L19.1666992,6.66660156 Z M5,26.6666016 L5,14.9999023 L10,14.9999023 L10,26.6666016 L5,26.6666016 Z M36.9166992,31.6666016 L14.5833008,31.6666016 L11.6666016,27.2521484 L11.6666016,14.1666016 L11.6666016,11.6666016 L18.3333008,11.6666016 L26.6666016,11.6666016 L32.5,11.6666016 L32.5,14.1666016 C32.5,14.6666016 32.8333008,14.9999023 33.3333008,14.9999023 L37,14.9999023 L39.1666992,18.6110352 L39.1666992,27.1666016 L36.9166992,31.6666016 Z M40.8333008,26.6666016 L40.8333008,19.1666016 L42.5,19.1666016 L42.5,26.6666016 L40.8333008,26.6666016 Z M48.3333008,31.6666016 L46.3333008,31.6666016 L44.1666016,27.4879883 L44.1666016,18.3362305 L46.4166016,11.6666016 L48.3333008,11.6666016 L48.3333008,31.6666016 Z" id="Shape"></path>
                                </g>
                            </g>
                        </g>
                    </g>
                </g>
            </g>
        </g>
    </g>
</svg>