<?xml version="1.0" encoding="UTF-8"?>
<svg width="36px" height="36px" viewBox="0 0 36 36" version="1.1" xmlns="http://www.w3.org/2000/svg" xmlns:xlink="http://www.w3.org/1999/xlink">
    <!-- Generator: Sketch 51.3 (57544) - http://www.bohemiancoding.com/sketch -->
    <title>radiator</title>
    <desc>Created with Sketch.</desc>
    <defs></defs>
    <g id="Salepage" stroke="none" stroke-width="1" fill="none" fill-rule="evenodd">
        <g id="Sale-page-spare-parts-ECV" transform="translate(-530.000000, -606.000000)" fill="#264AA1" fill-rule="nonzero">
            <g id="sell-your-car" transform="translate(0.000000, 109.000000)">
                <g id="vehicle" transform="translate(354.000000, 175.000000)">
                    <g id="Group-5-Copy" transform="translate(141.000000, 177.000000)">
                        <g id="Group-6">
                            <g id="Group-3-Copy-5" transform="translate(0.000000, 131.000000)">
                                <g id="radiator" transform="translate(35.000000, 14.000000)">
                                    <path d="M24.8695652,16 L10.7826087,16 C10.3506087,16 10,16.3506087 10,16.7826087 C10,17.2146087 10.3506087,17.5652174 10.7826087,17.5652174 L24.8695652,17.5652174 C25.3015652,17.5652174 25.6521739,17.2146087 25.6521739,16.7826087 C25.6521739,16.3506087 25.3015652,16 24.8695652,16 Z" id="Shape"></path>
                                    <path d="M24.8695652,30 L10.7826087,30 C10.3506087,30 10,30.3506087 10,30.7826087 C10,31.2146087 10.3506087,31.5652174 10.7826087,31.5652174 L24.8695652,31.5652174 C25.3015652,31.5652174 25.6521739,31.2146087 25.6521739,30.7826087 C25.6521739,30.3506087 25.3015652,30 24.8695652,30 Z" id="Shape"></path>
                                    <path d="M25.4347826,20 L9.7826087,20 C9.3506087,20 9,20.3506087 9,20.7826087 C9,21.2146087 9.3506087,21.5652174 9.7826087,21.5652174 L25.4347826,21.5652174 C25.8667826,21.5652174 26.2173913,21.2146087 26.2173913,20.7826087 C26.2173913,20.3506087 25.8667826,20 25.4347826,20 Z" id="Shape"></path>
                                    <path d="M25.4347826,25 L9.7826087,25 C9.3506087,25 9,25.3506087 9,25.7826087 C9,26.2146087 9.3506087,26.5652174 9.7826087,26.5652174 L25.4347826,26.5652174 C25.8667826,26.5652174 26.2173913,26.2146087 26.2173913,25.7826087 C26.2173913,25.3506087 25.8667826,25 25.4347826,25 Z" id="Shape"></path>
                                    <path d="M35.2173913,29.6812174 L31.3043478,29.6812174 L31.3043478,14.8695652 C31.3043478,12.711913 29.5489565,10.9565217 27.3913043,10.9565217 L12.5217391,10.9565217 L12.5217391,1.56521739 L14.8695652,1.56521739 C15.3015652,1.56521739 15.6521739,1.2146087 15.6521739,0.782608696 C15.6521739,0.350608696 15.3015652,0 14.8695652,0 L11.7391304,0 L5.47826087,0 L2.34782609,0 C1.91582609,0 1.56521739,0.350608696 1.56521739,0.782608696 C1.56521739,1.2146087 1.91582609,1.56521739 2.34782609,1.56521739 L4.69565217,1.56521739 L4.69565217,10.9565217 L0.782608696,10.9565217 C0.350608696,10.9565217 0,11.3071304 0,11.7391304 L0,16.4347826 C0,16.8667826 0.350608696,17.2173913 0.782608696,17.2173913 L4.69565217,17.2173913 L4.69565217,32.0869565 C4.69565217,34.2446087 6.45104348,36 8.60869565,36 L35.2173913,36 C35.6493913,36 36,35.6493913 36,35.2173913 L36,30.4638261 C36,30.0318261 35.6493913,29.6812174 35.2173913,29.6812174 Z M6.26086957,1.56521739 L10.9565217,1.56521739 L10.9565217,10.9565217 L6.26086957,10.9565217 L6.26086957,1.56521739 Z M34.4347826,34.4347826 L8.60869565,34.4347826 C7.31426087,34.4347826 6.26086957,33.3813913 6.26086957,32.0869565 L6.26086957,16.4347826 C6.26086957,16.0027826 5.91026087,15.6521739 5.47826087,15.6521739 L1.56521739,15.6521739 L1.56521739,12.5217391 L27.3913043,12.5217391 C28.6857391,12.5217391 29.7391304,13.5751304 29.7391304,14.8695652 L29.7391304,30.4638261 C29.7391304,30.8958261 30.0897391,31.2464348 30.5217391,31.2464348 L34.4347826,31.2464348 L34.4347826,34.4347826 Z" id="Shape"></path>
                                </g>
                            </g>
                        </g>
                    </g>
                </g>
            </g>
        </g>
    </g>
</svg>