<svg xmlns="http://www.w3.org/2000/svg" xmlns:xlink="http://www.w3.org/1999/xlink" width="12" height="7" viewBox="0 0 12 7"><defs><path id="bm8ra" d="M1058.84 458.54l-1.59 1.6a6.06 6.06 0 0 1-8.62 0l-1.63-1.64 1.59-1.58a6.06 6.06 0 0 1 8.62 0zm-.57 0l-1.34-1.34a5.66 5.66 0 0 0-8.06 0l-1.3 1.3 1.34 1.35a5.66 5.66 0 0 0 8.06 0z"/><path id="bm8rb" d="M1055.51 458.51a2.6 2.6 0 1 1-5.2 0 2.6 2.6 0 0 1 5.2 0zm-2.4-1.2a.2.2 0 0 0-.2-.2c-.77 0-1.4.63-1.4 1.4a.2.2 0 0 0 .4 0 1 1 0 0 1 1-1 .2.2 0 0 0 .2-.2z"/></defs><g><g transform="translate(-1047 -455)"><use fill="#8d8d8d" xlink:href="#bm8ra"/></g><g transform="translate(-1047 -455)"><use fill="#8d8d8d" xlink:href="#bm8rb"/></g></g></svg>