<?xml version="1.0" encoding="UTF-8"?>
<svg width="40px" height="40px" viewBox="0 0 40 40" version="1.1" xmlns="http://www.w3.org/2000/svg" xmlns:xlink="http://www.w3.org/1999/xlink">
    <!-- Generator: Sketch 51.3 (57544) - http://www.bohemiancoding.com/sketch -->
    <title>gearshift</title>
    <desc>Created with Sketch.</desc>
    <defs></defs>
    <g id="Salepage" stroke="none" stroke-width="1" fill="none" fill-rule="evenodd">
        <g id="Sale-page-spare-parts-ECV" transform="translate(-758.000000, -474.000000)" fill="#264AA1" fill-rule="nonzero" stroke="#FFFFFF" stroke-width="0.5">
            <g id="sell-your-car" transform="translate(0.000000, 109.000000)">
                <g id="vehicle" transform="translate(354.000000, 175.000000)">
                    <g id="Group-5-Copy" transform="translate(141.000000, 177.000000)">
                        <g id="Group-6">
                            <g id="Group-3-Copy-3" transform="translate(230.000000, 0.000000)">
                                <g id="gearshift" transform="translate(34.000000, 14.000000)">
                                    <path d="M32.4335938,1.05471187e-15 C29.3642773,1.05471187e-15 26.8671875,2.49708984 26.8671875,5.56640625 C26.8671875,8.25453516 28.782625,10.5035859 31.3203125,11.0208164 L31.3203125,16.7734375 C31.3203125,17.3873008 30.8208945,17.8867188 30.2070312,17.8867188 L20.1132812,17.8867188 L20.1132812,11.0208164 C22.6509688,10.5036602 24.5664062,8.25460937 24.5664062,5.56640625 C24.5664062,2.49708984 22.0693164,0 19,0 C15.9306836,0 13.4335938,2.49708984 13.4335938,5.56640625 C13.4335938,8.25453516 15.3490312,10.5035859 17.8867188,11.0208164 L17.8867188,17.8867188 L6.6796875,17.8867188 L6.6796875,11.0208164 C9.217375,10.5036602 11.1328125,8.25460937 11.1328125,5.56640625 C11.1328125,2.49708984 8.63572266,0 5.56640625,0 C2.49708984,0 0,2.49708984 0,5.56640625 C0,8.25453516 1.9154375,10.5035859 4.453125,11.0208164 L4.453125,26.9792578 C1.9154375,27.4964141 0,29.7454648 0,32.4335938 C0,35.5029102 2.49708984,38 5.56640625,38 C8.63572266,38 11.1328125,35.5029102 11.1328125,32.4335938 C11.1328125,29.7454648 9.217375,27.4964141 6.6796875,26.9791836 L6.6796875,20.1132812 L17.8867188,20.1132812 L17.8867188,26.9791836 C15.3490312,27.4963398 13.4335938,29.7453906 13.4335938,32.4335938 C13.4335938,35.5029102 15.9306836,38 19,38 C22.0693164,38 24.5664062,35.5029102 24.5664062,32.4335938 C24.5664062,29.7454648 22.6509688,27.4964141 20.1132812,26.9791836 L20.1132812,20.1132812 L30.2070312,20.1132812 C32.0486211,20.1132812 33.546875,18.6150273 33.546875,16.7734375 L33.546875,11.0208164 C36.0845625,10.5036602 38,8.25460937 38,5.56640625 C38,2.49708984 35.5029102,1.05471187e-15 32.4335938,1.05471187e-15 Z M8.90625,32.4335938 C8.90625,34.2751836 7.40799609,35.7734375 5.56640625,35.7734375 C3.72481641,35.7734375 2.2265625,34.2751836 2.2265625,32.4335938 C2.2265625,30.5920039 3.72481641,29.09375 5.56640625,29.09375 C7.40799609,29.09375 8.90625,30.5920039 8.90625,32.4335938 Z M5.56640625,8.90625 C3.72481641,8.90625 2.2265625,7.40799609 2.2265625,5.56640625 C2.2265625,3.72481641 3.72481641,2.2265625 5.56640625,2.2265625 C7.40799609,2.2265625 8.90625,3.72481641 8.90625,5.56640625 C8.90625,7.40799609 7.40799609,8.90625 5.56640625,8.90625 Z M22.3398438,32.4335938 C22.3398438,34.2751836 20.8415898,35.7734375 19,35.7734375 C17.1584102,35.7734375 15.6601562,34.2751836 15.6601562,32.4335938 C15.6601562,30.5920039 17.1584102,29.09375 19,29.09375 C20.8415898,29.09375 22.3398438,30.5920039 22.3398438,32.4335938 Z M19,8.90625 C17.1584102,8.90625 15.6601562,7.40799609 15.6601562,5.56640625 C15.6601562,3.72481641 17.1584102,2.2265625 19,2.2265625 C20.8415898,2.2265625 22.3398438,3.72481641 22.3398438,5.56640625 C22.3398438,7.40799609 20.8415898,8.90625 19,8.90625 Z M32.4335938,8.90625 C30.5920039,8.90625 29.09375,7.40799609 29.09375,5.56640625 C29.09375,3.72481641 30.5920039,2.2265625 32.4335938,2.2265625 C34.2751836,2.2265625 35.7734375,3.72481641 35.7734375,5.56640625 C35.7734375,7.40799609 34.2751836,8.90625 32.4335938,8.90625 Z" id="Shape"></path>
                                </g>
                            </g>
                        </g>
                    </g>
                </g>
            </g>
        </g>
    </g>
</svg>