<?xml version="1.0" encoding="UTF-8"?>
<svg width="49px" height="28px" viewBox="0 0 49 28" version="1.1" xmlns="http://www.w3.org/2000/svg" xmlns:xlink="http://www.w3.org/1999/xlink">
    <!-- Generator: Sketch 51.3 (57544) - http://www.bohemiancoding.com/sketch -->
    <title>ic-spare-parts copy 2</title>
    <desc>Created with Sketch.</desc>
    <defs></defs>
    <g id="Salepage" stroke="none" stroke-width="1" fill="none" fill-rule="evenodd">
        <g id="Sale-page-spare-parts-ECV" transform="translate(-523.000000, -483.000000)" fill="#264AA1" fill-rule="nonzero" stroke="#264AA1" stroke-width="0.1">
            <g id="sell-your-car" transform="translate(0.000000, 109.000000)">
                <g id="vehicle" transform="translate(354.000000, 175.000000)">
                    <g id="Group-5-Copy" transform="translate(141.000000, 177.000000)">
                        <g id="Group-6">
                            <g id="Group-3">
                                <g id="ic-spare-parts-copy-2" transform="translate(27.000000, 8.000000)">
                                    <g id="car2" transform="translate(2.000000, 14.000000)">
                                        <path d="M40.7205614,0.0866384352 L40.5465263,0.0866384352 C39.522152,0.0866384352 38.5041404,0.24015729 37.5268304,0.543391813 L10.4676491,8.92681992 C4.22699415,10.8375035 -0.0215204678,16.5668643 9.35672514e-05,23.0417423 C0.00252631579,25.2264408 1.78863158,26.9971486 3.99232749,26.9995604 L34.6772398,26.9995604 C37.2258246,27.006703 39.6723275,26.002198 41.4688187,24.2101553 C42.4812164,23.2040734 43.2557661,21.9874249 43.7355789,20.6481468 L47.3285614,10.5518008 C47.712655,9.47920952 47.9082105,8.34892115 47.9066199,7.21065537 C47.9025029,3.27816092 44.6871579,0.0913692277 40.7205614,0.0866384352 Z M45.823345,10.0230651 L42.2303626,20.1194112 C41.8295205,21.236342 41.1843743,22.2510506 40.3396491,23.0909054 C38.8409825,24.5845372 36.8025263,25.422073 34.6771462,25.4165074 L3.99232749,25.4165074 C2.66928655,25.4165074 1.59700585,24.3534705 1.59700585,23.041835 C1.57866667,17.2603428 5.37122807,12.1445009 10.9435322,10.4378907 L38.0058947,2.05446259 C38.8282573,1.79955636 39.6850526,1.66978423 40.5465263,1.66978423 L40.7205614,1.66978423 C43.8057544,1.67293809 46.3064327,4.15215164 46.309614,7.21065537 C46.3104561,8.16840895 46.1459649,9.11985481 45.823345,10.0230651 Z" id="Shape"></path>
                                        <path d="M14.3720234,11.1683807 C10.844538,11.1683807 7.98446784,14.0037024 7.98446784,17.5008711 C7.98446784,20.9980399 10.8444444,23.8333616 14.3720234,23.8333616 C17.8996023,23.8333616 20.7595789,20.9980399 20.7595789,17.5008711 C20.7555556,14.0053721 17.8979181,11.1723694 14.3720234,11.1683807 Z M14.3720234,22.2502158 C11.7260351,22.2502158 9.58138012,20.1240492 9.58138012,17.5008711 C9.58138012,14.8776931 11.7260351,12.7515265 14.3720234,12.7515265 C17.0180117,12.7515265 19.1626667,14.8776931 19.1626667,17.5008711 C19.1602339,20.1224723 17.0164211,22.247804 14.3720234,22.2502158 Z" id="Shape"></path>
                                        <path d="M14.3720234,14.3346723 C12.6082807,14.3346723 11.1782924,15.7523331 11.1782924,17.5008711 C11.1782924,19.2494092 12.6082807,20.66707 14.3720234,20.66707 C16.1357661,20.66707 17.5657544,19.2494092 17.5657544,17.5008711 C17.5657544,15.7523331 16.1357661,14.3346723 14.3720234,14.3346723 Z M14.3720234,19.0840169 C13.4897778,19.0840169 12.7751111,18.375604 12.7751111,17.5008711 C12.7751111,16.6261383 13.4896842,15.9177253 14.3720234,15.9177253 C15.254269,15.9177253 15.9689357,16.6261383 15.9689357,17.5008711 C15.9689357,18.375604 15.254269,19.0840169 14.3720234,19.0840169 Z" id="Shape"></path>
                                        <path d="M31.1392749,6.4190361 C26.2887485,6.4190361 22.3563977,10.3174874 22.3563977,15.1261988 C22.3563977,19.9349103 26.2887485,23.8333616 31.1392749,23.8333616 C35.9898012,23.8333616 39.922152,19.9349103 39.922152,15.1261988 C39.916538,10.3198992 35.9873684,6.42460173 31.1392749,6.4190361 Z M31.1392749,22.2502158 C27.1702456,22.2502158 23.9533099,19.0610123 23.9533099,15.1261988 C23.9533099,11.1913854 27.1702456,8.00218189 31.1392749,8.00218189 C35.1083041,8.00218189 38.3252398,11.1913854 38.3252398,15.1261988 C38.3212164,19.0586933 35.1058713,22.2462271 31.1392749,22.2502158 Z" id="Shape"></path>
                                        <path d="M31.1392747,10.3768542 C28.4932865,10.3768542 26.3486316,12.5030208 26.3486316,15.1261988 C26.3486316,17.7493769 28.4932865,19.8755435 31.1392747,19.8755435 C33.785263,19.8755435 35.9299179,17.7493769 35.9299179,15.1261988 C35.9274851,12.5045977 33.7836723,10.379266 31.1392747,10.3768542 Z M31.1392747,18.2923977 C29.3755321,18.2923977 27.9455438,16.8747368 27.9455438,15.1261988 C27.9455438,13.3776608 29.3755321,11.96 31.1392747,11.96 C32.9030174,11.96 34.3330057,13.3776608 34.3330057,15.1261988 C34.3330057,16.8747368 32.9030174,18.2923977 31.1392747,18.2923977 Z" id="Shape"></path>
                                    </g>
                                </g>
                            </g>
                        </g>
                    </g>
                </g>
            </g>
        </g>
    </g>
</svg>