<?xml version="1.0" encoding="UTF-8" standalone="no"?>
<svg width="94px" height="35px" viewBox="0 0 94 35" version="1.1" xmlns="http://www.w3.org/2000/svg" xmlns:xlink="http://www.w3.org/1999/xlink">
    <!-- Generator: Sketch 48.2 (47327) - http://www.bohemiancoding.com/sketch -->
    <title>2</title>
    <desc>Created with Sketch.</desc>
    <defs></defs>
    <g id="Page-1" stroke="none" stroke-width="1" fill="none" fill-rule="evenodd">
        <g id="sprite-bodytypes" transform="translate(-124.000000, -5.000000)" fill="#232323" fill-rule="nonzero">
            <g id="cars">
                <path d="M217.976506,27.4603848 C218.039157,28.3375033 217.976507,29.2772589 217.788553,30.27968 C217.537947,31.658009 217.162045,32.6447524 216.660835,33.2399399 C216.159624,33.8351274 215.564445,34.1327167 214.875281,34.1327167 L213.183704,34.1327167 L213.089727,33.7568107 C213.089727,33.1302975 212.964427,32.3158426 212.713821,31.3134216 C212.212611,29.6844873 211.460806,28.3375042 210.458385,27.2724318 C209.080056,25.8314515 207.247533,25.1109722 204.96076,25.1109722 C202.673987,25.1109722 200.778813,25.9254271 199.275181,27.5543613 C198.210109,28.7447364 197.395654,30.3109958 196.831792,32.2531866 C196.455884,33.4435616 196.267933,34.2893417 196.267933,34.7905523 L196.173956,35.1664583 L151.723069,35.1664583 L151.723069,34.6965758 C151.78572,34.6965758 151.78572,34.2580231 151.723069,33.3809047 C151.660418,32.3158323 151.472467,31.2821011 151.15921,30.27968 C150.720651,28.9640024 150.125472,27.8989459 149.373657,27.0844788 C147.995328,25.5808472 146.100154,24.8290427 143.688078,24.8290427 C141.276002,24.8290427 139.349503,25.5808472 137.908523,27.0844788 C137.094056,27.8989459 136.436227,28.9640024 135.935016,30.27968 C135.62176,31.2194498 135.433808,32.253181 135.371157,33.3809047 L135.277181,35.1664583 L124.845789,35.1664583 L124.845789,29.339915 L124,29.339915 L124,28.9640089 C124,28.0242392 124.125301,27.0218331 124.375906,25.9567608 L130.390402,25.9567608 C130.891613,25.9567608 131.486792,25.5495333 132.175956,24.7350662 C132.739818,24.108553 133.147045,23.5760248 133.397651,23.1374656 C133.961512,22.5736037 134.180789,22.0097503 134.055486,21.4458885 C133.804881,21.1952832 133.491629,21.0699825 133.115721,21.0699825 C132.927767,21.0699825 132.771141,21.0386573 132.645839,20.976006 L131.612097,20.976006 C129.168696,20.976006 127.320509,21.4458838 126.067483,22.3856535 L126.16146,21.915771 L126.255436,21.8217945 C126.44339,21.4458866 127.038569,20.9446836 128.04099,20.3181704 C129.669924,19.253098 131.925338,18.3133424 134.807298,17.4988752 C138.754331,16.4338029 143.57841,15.7133235 149.27968,15.3374156 C150.344752,14.5229485 152.004987,13.4892173 154.260435,12.2361909 C157.83156,10.2940001 161.402631,8.69641549 164.973756,7.44338915 C169.797908,5.8144549 174.308735,5 178.506373,5 C185.398018,5 192.195584,5.31325189 198.899275,5.93976506 C202.345097,6.25302164 205.446291,6.6289239 208.202949,7.06748312 L209.142714,7.16145963 L207.35716,8.94701324 L213.841539,15.5253686 L215.909022,15.5253686 L215.909022,22.3856535 L216.284929,22.7615596 C216.974093,23.3254214 217.38132,23.7639741 217.506623,24.0772306 C217.631926,24.5157899 217.757226,25.2362692 217.882529,26.2386903 C217.882529,26.7399008 217.913854,27.1471283 217.976506,27.4603848 Z M151.817046,16.1832042 L151.911022,16.1832042 L155.482129,14.115721 C160.807491,11.0458065 164.66049,9.10364482 167.04124,8.2891777 L166.477381,7.91327167 L166.383404,7.91327167 C160.870088,9.66750855 155.513481,12.236174 150.313422,15.6193451 C151.065237,15.995253 151.56644,16.1832042 151.817046,16.1832042 Z M159.429143,18.0627343 L165.161709,17.7808048 C169.735256,17.5928508 173.964156,17.3735745 177.848538,17.1229692 L177.566608,7.44338915 C175.687069,7.56869178 174.089484,7.7879681 172.773806,8.10122469 C170.267754,8.60243522 167.542462,9.51086569 164.59785,10.8265433 C162.342403,11.8916157 160.086989,13.1132981 157.831542,14.4916271 C156.139956,15.5566995 155.0749,16.308504 154.636341,16.7470632 C154.511038,16.8097145 154.479713,16.9036901 154.542364,17.0289927 C154.605016,17.1542954 154.761642,17.2795961 155.012247,17.4048987 L157.643589,16.2771807 C157.70624,15.9012728 157.972504,15.5723583 158.442389,15.2904274 C158.912274,15.0084964 159.49179,14.8675331 160.180955,14.8675331 C160.870119,14.8675331 161.465298,15.0084964 161.966508,15.2904274 C162.467719,15.5723583 162.71832,15.9169354 162.71832,16.3241689 C162.71832,16.7314025 162.467719,17.0759796 161.966508,17.3579105 C161.465298,17.6398414 160.854457,17.7808048 160.133966,17.7808048 C159.413476,17.7808048 158.83396,17.655504 158.395401,17.4048987 L155.764059,17.6868283 C157.267691,17.9374335 158.489373,18.0627343 159.429143,18.0627343 Z M182.265433,16.8410397 C187.716098,16.5904344 192.759453,16.2145322 197.395651,15.7133216 L195.516121,7.91327167 L194.952262,7.91327167 C193.949841,7.78796904 192.289606,7.6313431 189.971507,7.44338915 C186.964244,7.25543519 184.176302,7.19278482 181.607598,7.25543613 L182.265433,16.8410397 Z M203.128218,14.2096975 C203.69208,13.896441 203.942681,13.4578883 203.88003,12.8940265 C203.817378,12.5807699 203.598102,12.2361928 203.222194,11.8602849 C202.658332,11.2337717 202.063154,10.6385932 201.436641,10.0747313 C200.559522,9.3229155 199.854705,8.83737508 199.322169,8.61809547 C198.789633,8.39881586 197.86554,8.22652732 196.549862,8.10122469 L198.335416,15.6193451 C200.465561,15.3060885 202.063145,14.8362107 203.128218,14.2096975 Z M215.063234,20.5061234 L215.063234,16.5591102 L213.089727,16.5591102 C212.776471,16.5591102 212.58852,16.6217606 212.525868,16.7470632 L212.525868,17.0289927 L214.029492,20.5061234 L215.063234,20.5061234 Z M143.64109,26.5206198 C145.457978,26.5206198 147.024237,27.1784487 148.339915,28.4941264 C149.655593,29.8098041 150.313422,31.3760635 150.313422,33.1929517 C150.313422,35.0098399 149.655593,36.5604367 148.339915,37.8447887 C147.024237,39.1291407 145.457978,39.7713071 143.64109,39.7713071 C141.824201,39.7713071 140.257942,39.1291407 138.942264,37.8447887 C137.626587,36.5604367 136.968758,35.0098399 136.968758,33.1929517 C136.968758,31.3760635 137.626587,29.8098041 138.942264,28.4941264 C140.257942,27.1784487 141.824201,26.5206198 143.64109,26.5206198 Z M143.64109,36.7640589 C144.643511,36.7640589 145.489291,36.4194818 146.178455,35.7303173 C146.86762,35.0411528 147.212197,34.1953728 147.212197,33.1929517 C147.212197,32.1905306 146.86762,31.3447505 146.178455,30.655586 C145.489291,29.9664215 144.643511,29.6218445 143.64109,29.6218445 C142.638669,29.6218445 141.792889,29.9664215 141.103724,30.655586 C140.41456,31.3447505 140.069982,32.1905306 140.069982,33.1929517 C140.069982,34.1953728 140.41456,35.0411528 141.103724,35.7303173 C141.792889,36.4194818 142.638669,36.7640589 143.64109,36.7640589 Z M205.007748,26.5206198 C206.824636,26.5206198 208.375233,27.1784487 209.659585,28.4941264 C210.943937,29.8098041 211.586103,31.3760635 211.586103,33.1929517 C211.586103,35.0098399 210.943937,36.5604367 209.659585,37.8447887 C208.375233,39.1291407 206.824636,39.7713071 205.007748,39.7713071 C203.19086,39.7713071 201.6246,39.1291407 200.308923,37.8447887 C198.993245,36.5604367 198.335416,35.0098399 198.335416,33.1929517 C198.335416,31.3760635 198.993245,29.8098041 200.308923,28.4941264 C201.6246,27.1784487 203.19086,26.5206198 205.007748,26.5206198 Z M205.007748,36.7640589 C206.010169,36.7640589 206.855949,36.4194818 207.545113,35.7303173 C208.234278,35.0411528 208.578855,34.1953728 208.578855,33.1929517 C208.578855,32.1905306 208.234278,31.3447505 207.545113,30.655586 C206.855949,29.9664215 206.010169,29.6218445 205.007748,29.6218445 C204.005327,29.6218445 203.159547,29.9664215 202.470382,30.655586 C201.781218,31.3447505 201.436641,32.1905306 201.436641,33.1929517 C201.436641,34.1953728 201.781218,35.0411528 202.470382,35.7303173 C203.159547,36.4194818 204.005327,36.7640589 205.007748,36.7640589 Z" id="2"></path>
            </g>
        </g>
    </g>
</svg>