<svg xmlns="http://www.w3.org/2000/svg" xmlns:xlink="http://www.w3.org/1999/xlink" width="14" height="17" viewBox="0 0 14 17"><defs><path id="u68da" d="M897 393.39v.19l-.03.42h-13.94l-.02-.43-.01-.18a7.1 7.1 0 0 1 3.99-6.37l.05-.03c.2-.1.42-.18.64-.26l.07-.03a6.54 6.54 0 0 1 1.17-.29h.03l.3-.04.1-.01h.05l.1-.01c.32-.03.65-.03.98 0l.26.01.23.04h.06l.27.05h.03a5.75 5.75 0 0 1 1.55.5l.04.02a7.08 7.08 0 0 1 4.08 6.42zm-13.32-.08zm0 0h12.64a6.4 6.4 0 0 0-3.7-5.71l-.01-.01a5.77 5.77 0 0 0-1.4-.45l-.04-.01a6.1 6.1 0 0 0-.25-.04l-.08-.02-.17-.02-.22-.02a5.95 5.95 0 0 0-.9 0l-.23.02-.3.04H889l-.16.04a8.05 8.05 0 0 0-.88.23l-.05.02c-.18.06-.36.14-.53.21v.01l-.07.03a6.4 6.4 0 0 0-3.63 5.68zm1.97-11.9V381.11a4.38 4.38 0 0 1 4.36-4.12c2.4 0 4.36 1.97 4.36 4.4v.04c0 1.28-.58 2.51-1.58 3.35l-.18.14a2.47 2.47 0 0 1-.46.3l-.06.04-.28.14-.03.01a1.71 1.71 0 0 1-.28.11l-.1.04a2.06 2.06 0 0 1-.27.08l-.12.03-.12.03a2.9 2.9 0 0 1-.19.03l-.1.02-.15.02c-.14.02-.3.02-.44.02h-.03a4.3 4.3 0 0 1-1.4-.24l-.11-.04-.16-.06a4.4 4.4 0 0 1-2.66-4.06zm.68 0c0 1.49.88 2.83 2.25 3.41l.11.05.13.04.1.04c.34.1.71.16 1.09.16h.03a3.56 3.56 0 0 0 .44-.03l.13-.02.14-.02.08-.02.14-.04.13-.03.06-.03.12-.04.16-.06.09-.04.23-.11.05-.03a3.69 3.69 0 0 0 .37-.25l.17-.13a3.72 3.72 0 0 0 1.34-2.85v-.04a3.7 3.7 0 0 0-3.68-3.68 3.7 3.7 0 0 0-3.67 3.48v.06l-.01.17z"/></defs><g><g transform="translate(-883 -377)"><use fill-opacity=".5" xlink:href="#u68da"/></g></g></svg>