<?xml version="1.0" encoding="UTF-8"?>
<svg width="25px" height="15px" viewBox="0 0 25 15" version="1.1" xmlns="http://www.w3.org/2000/svg" xmlns:xlink="http://www.w3.org/1999/xlink">
    <!-- Generator: Sketch 49.3 (51167) - http://www.bohemiancoding.com/sketch -->
    <title>ic-moto</title>
    <desc>Created with Sketch.</desc>
    <defs></defs>
    <g id="Dashboard" stroke="none" stroke-width="1" fill="none" fill-rule="evenodd">
        <g id="Dashboard-db" transform="translate(-736.000000, -315.000000)" fill="#FFFFFF" fill-rule="nonzero">
            <g id="my-vehicles" transform="translate(388.000000, 191.000000)">
                <g id="bikes" transform="translate(319.000000, 96.000000)">
                    <g id="Input/Mobile/input-with-bg-active-right-icon">
                        <g id="Group-Copy" transform="translate(21.000000, 15.000000)">
                            <g id="ic-moto" transform="translate(8.000000, 13.000000)">
                                <path d="M21,6 C18.794007,6 17,7.79400701 17,10 C17,12.205993 18.794007,14 21,14 C23.205993,14 25,12.2060399 25,10.0000469 C25,7.79400701 23.205993,6 21,6 Z M21,13.0000586 C19.3460092,13.0000586 17.9999883,11.6540377 17.9999883,10.0000469 C17.9999883,8.34605604 19.3460092,7.00003516 21,7.00003516 C22.6539908,7.00003516 24.0000117,8.34605604 24.0000117,10.0000469 C24.0000117,11.6540377 22.6539908,13.0000586 21,13.0000586 Z" id="Shape"></path>
                                <path d="M7.87503072,9.84894505 C7.80903046,9.57013136 7.5360294,9.39846366 7.27104399,9.46713074 C7.00305857,9.53477366 6.83805793,9.81568443 6.90405818,10.0955223 C6.97005844,10.3753601 7.00005856,10.6105254 7.00005856,10.8383752 C7.00005856,12.5591975 5.65403768,13.959606 4.00004686,13.959606 C2.34605603,13.959606 1.00003515,12.5591975 1.00003515,10.8383752 C1.00003515,9.61485274 1.69702225,8.4995492 2.77604208,7.99493396 C3.02804306,7.87735135 3.14002787,7.56942242 3.02705868,7.30723904 C2.91404262,7.0460798 2.61704146,6.92747303 2.36607173,7.0460798 C0.929019249,7.71714442 0,9.20597151 0,10.8383752 C0,13.133504 1.794007,15 3.99999998,15 C6.20599296,15 7.99999996,13.133504 7.99999996,10.8383752 C8.00004684,10.5303975 7.95903105,10.2068137 7.87503072,9.84894505 Z" id="Shape"></path>
                                <path d="M19.8469994,0.14105653 C19.750999,0.0470742925 19.6199829,-0.00195584216 19.483998,5.97369921e-05 C19.127981,0.0110751114 16,0.162056052 16,2.00002987 C16,3.83800368 19.1280278,3.98898463 19.483998,4 C19.4890136,4 19.4950137,4 19.4999824,4 C19.6299673,4 19.7549834,3.94998551 19.8479838,3.85900321 C19.9449685,3.76502097 20,3.63499268 20,3.49999575 L20,0.500063988 C20,0.365067059 19.9450154,0.235085641 19.8469994,0.14105653 Z M19.0000117,2.95902368 C18.1170239,2.85102614 16.9999883,2.53804888 16.9999883,2.00002987 C16.9999883,1.44002698 18.1480084,1.14603367 19.0000117,1.04206728 L19.0000117,2.95902368 Z" id="Shape"></path>
                                <path d="M16.6583516,1.02545973 L13.6586341,0.0249367218 C13.398643,-0.0600934293 13.114701,0.0789658084 13.0256937,0.341091299 C12.9387019,0.60321679 13.0796886,0.886400492 13.3416484,0.973447354 L16.3413659,1.97397036 C16.3943765,1.99198006 16.446356,2 16.4993666,2 C16.7083626,2 16.9033442,1.8679289 16.9743063,1.65781578 C17.0612981,1.39569029 16.9203114,1.11250659 16.6583516,1.02545973 Z" id="Shape"></path>
                                <path d="M20.9340473,10.2520566 L16.9356322,3.25245601 C16.7956715,3.01045365 16.4888076,2.92945809 16.2528846,3.06646621 C16.0119948,3.20347432 15.9290117,3.50842635 16.0659736,3.74841319 L20.0643886,10.7480138 C20.1573521,10.9100049 20.3262702,11 20.4992179,11 C20.584169,11 20.6691668,10.9790012 20.7471362,10.9340036 C20.9880261,10.7970424 21.0709623,10.4920435 20.9340473,10.2520566 Z" id="Shape"></path>
                                <path d="M8.44447242,9.99955203 L5.4547164,9.99955203 L6.16465846,8.72303595 C6.30131398,8.47594866 6.19022929,8.17582365 5.91577252,8.05174071 C5.64136783,7.93070592 5.30915536,8.0287155 5.17026045,8.27584968 L4.05925736,10.2766987 C3.97259777,10.4307473 3.98150329,10.61584 4.08258879,10.7629012 C4.18482003,10.9099625 4.3636596,11 4.5558835,11 L8.44447242,11 C8.75111406,11 9,10.775891 9,10.499776 C9,10.223661 8.75111406,9.99955203 8.44447242,9.99955203 Z" id="Shape"></path>
                                <path d="M16.9307777,2.55701563 C16.7831194,2.04003125 16.3930399,2 16.2769374,2 C13.5261392,2 10.9056698,3.386 9.42383543,4.57901562 C9.34339435,4.529 9.2496817,4.50003125 9.14785333,4.50003125 C8.12126293,4.50003125 5.18915003,4.01201562 5.15964702,4.00704688 C5.01093845,3.98103125 4.86022482,4.02204687 4.74617513,4.11804687 C4.63007265,4.2130625 4.56490822,4.35303125 4.56490822,4.50003125 L4.56490822,5.00703125 C2.90180695,5.05404687 1.80494399,5.33904687 1.29876198,5.85701562 C1.00850577,6.15401563 0.997286981,6.44 1.00034231,6.521 C1.01256362,6.78898438 1.23660514,7.00001562 1.50957965,7.00001562 C3.57192643,7.00001562 8.250637,9.82503125 9.88017739,10.913 C9.96472406,10.97 10.0634971,11 10.1663757,11 L14.2400358,11 C15.9703543,11 17,4.39001563 17,3.21298438 C17,2.93698437 16.9776102,2.723 16.9307777,2.55701563 Z M14.2400358,10.0000156 L10.3210518,10.0000156 C9.53583231,9.48401562 5.58935034,6.94803125 2.82733331,6.20501562 C3.2856326,6.09303125 3.99241603,6.00003125 5.07400234,6.00003125 C5.35509257,6.00003125 5.58323968,5.77601562 5.58323968,5.50001562 L5.58323968,5.08803125 C6.36029566,5.21004687 7.725025,5.41104687 8.63856825,5.47803125 L8.63856825,5.50001562 C8.63856825,5.70401562 8.76383672,5.88701562 8.95632242,5.96403125 C9.15186344,6.04001562 9.36879177,5.99501562 9.51339474,5.84904687 C10.5664806,4.78503125 13.216453,3.11703125 15.9855832,3.00603125 C16.1251735,4.30601562 14.9366507,9.548 14.2400358,10.0000156 Z" id="Shape"></path>
                            </g>
                        </g>
                    </g>
                </g>
            </g>
        </g>
    </g>
</svg>