<?xml version="1.0" encoding="UTF-8"?>
<svg width="26px" height="14px" viewBox="0 0 26 14" version="1.1" xmlns="http://www.w3.org/2000/svg" xmlns:xlink="http://www.w3.org/1999/xlink">
    <!-- Generator: Sketch 49.3 (51167) - http://www.bohemiancoding.com/sketch -->
    <title>ic-car</title>
    <desc>Created with Sketch.</desc>
    <defs></defs>
    <g id="Dashboard" stroke="none" stroke-width="1" fill="none" fill-rule="evenodd">
        <g id="Dashboard-db" transform="translate(-452.000000, -320.000000)" fill="#FFFFFF" fill-rule="nonzero">
            <g id="my-vehicles" transform="translate(388.000000, 191.000000)">
                <g id="car" transform="translate(31.000000, 96.000000)">
                    <g id="Input/Mobile/input-with-bg-active-right-icon">
                        <g id="Group" transform="translate(21.000000, 15.000000)">
                            <g id="ic-car" transform="translate(12.000000, 18.000000)">
                                <path d="M4.86451049,8.16664844 C3.37490617,8.16664844 2.16202155,9.47564844 2.16202155,11.0832969 C2.16202155,12.6909453 3.37490617,14 4.86451049,14 C6.35411481,14 7.56699943,12.691 7.56699943,11.0833516 C7.56699943,9.47570313 6.35411481,8.16664844 4.86451049,8.16664844 Z M4.86451049,12.8333516 C3.97050467,12.8333516 3.24300699,12.0482031 3.24300699,11.0833516 C3.24300699,10.1185 3.97050467,9.33335156 4.86451049,9.33335156 C5.75851631,9.33335156 6.48601399,10.1185 6.48601399,11.0833516 C6.48601399,12.0481484 5.75851631,12.8333516 4.86451049,12.8333516 Z" id="Shape"></path>
                                <path d="M21.0795455,8.16664844 C19.5899411,8.16664844 18.3770565,9.47564844 18.3770565,11.0832969 C18.3770565,12.6909453 19.5899411,14 21.0795455,14 C22.5691498,14 23.7820344,12.691 23.7820344,11.0833516 C23.7820344,9.47570313 22.5691498,8.16664844 21.0795455,8.16664844 Z M21.0795455,12.8333516 C20.1855396,12.8333516 19.458042,12.0482031 19.458042,11.0833516 C19.458042,10.1185 20.1855396,9.33335156 21.0795455,9.33335156 C21.9735513,9.33335156 22.701049,10.1185 22.701049,11.0833516 C22.701049,12.0481484 21.9735513,12.8333516 21.0795455,12.8333516 Z" id="Shape"></path>
                                <path d="M22.701049,4.66664844 L21.786521,4.66664844 C21.4524913,4.66664844 21.1249476,4.543 20.8633281,4.31664844 L16.6041958,0.639296875 C16.1264097,0.2275 15.5264534,0 14.9156533,0 L7.10218531,0 C6.19632225,0 5.35638344,0.485351563 4.85371736,1.2985 L3.93376748,2.7895 C3.65811189,3.234 3.1976049,3.5 2.70248894,3.5 C1.21288462,3.5 0,4.809 0,6.41664844 L0,8.75 C0,10.3576484 1.21288462,11.6666484 2.70248894,11.6666484 C3.00084558,11.6666484 3.24300699,11.4052969 3.24300699,11.0832969 C3.24300699,10.7612969 3.00084558,10.5 2.70248894,10.5 C1.80848312,10.5 1.08098544,9.71485156 1.08098544,8.75 L1.08098544,6.41664844 C1.08098544,5.45179688 1.80848312,4.66664844 2.70248894,4.66664844 C3.56082168,4.66664844 4.3564225,4.207 4.83314453,3.43579688 L5.75309441,1.94594531 C6.05469406,1.45829688 6.55953904,1.16659375 7.10218531,1.16659375 L14.9156533,1.16659375 C15.2831772,1.16659375 15.6420868,1.30309375 15.9296503,1.55044531 L20.1887826,5.22659375 C20.6395606,5.61744531 21.208151,5.83324219 21.7875851,5.83324219 L22.701049,5.83324219 C24.2868794,5.83324219 24.8630705,7.57739063 24.8630705,8.74989063 C24.8630705,9.89903906 24.0480116,10.4998906 23.241567,10.4998906 C22.9432104,10.4998906 22.701049,10.7612422 22.701049,11.0832422 C22.701049,11.4052422 22.9432104,11.6665938 23.241567,11.6665938 C24.7819953,11.6666484 25.9440559,10.4125 25.9440559,8.75 C25.9440559,6.77014844 24.8079394,4.66664844 22.701049,4.66664844 Z" id="Shape"></path>
                                <path d="M18.9175239,10.5 L7.02653204,10.5 C6.7281754,10.5 6.48601399,10.7613516 6.48601399,11.0833516 C6.48601399,11.4053516 6.7281754,11.6667031 7.02653204,11.6667031 L18.9175746,11.6667031 C19.2159312,11.6667031 19.4580926,11.4053516 19.4580926,11.0833516 C19.4580926,10.7613516 19.2158805,10.5 18.9175239,10.5 Z" id="Shape"></path>
                                <path d="M17.8365385,4.66664844 L12.972028,4.66664844 L12.972028,2.91664844 C12.972028,2.59464844 12.7298666,2.33329688 12.4315099,2.33329688 C12.1331533,2.33329688 11.8909919,2.59464844 11.8909919,2.91664844 L11.8909919,5.25 C11.8909919,5.572 12.1331533,5.83335156 12.4315099,5.83335156 L17.8365385,5.83335156 C18.1348951,5.83335156 18.3770565,5.572 18.3770565,5.25 C18.3770565,4.928 18.1348951,4.66664844 17.8365385,4.66664844 Z" id="Shape"></path>
                                <path d="M10.269539,4.66664844 L6.82004371,4.66664844 L7.5108042,3.178 C7.64376748,2.88985156 7.53568414,2.53985156 7.26864278,2.39514844 C7.00053731,2.25164844 6.6773514,2.36714844 6.54327333,2.6565 L5.46228789,4.98985156 C5.37796971,5.1695 5.38769873,5.38535156 5.48605305,5.55685156 C5.58440737,5.72835156 5.75846564,5.83335156 5.94549593,5.83335156 L10.2694884,5.83335156 C10.567845,5.83335156 10.8100064,5.572 10.8100064,5.25 C10.8100064,4.928 10.5678957,4.66664844 10.269539,4.66664844 Z" id="Shape"></path>
                                <path d="M14.5935315,7 L13.512546,7 C13.2141894,7 12.972028,7.26135156 12.972028,7.58335156 C12.972028,7.90535156 13.2141894,8.16670313 13.512546,8.16670313 L14.5935315,8.16670313 C14.8918881,8.16670313 15.1340495,7.90535156 15.1340495,7.58335156 C15.1340495,7.26135156 14.8918881,7 14.5935315,7 Z" id="Shape"></path>
                            </g>
                        </g>
                    </g>
                </g>
            </g>
        </g>
    </g>
</svg>