<svg xmlns="http://www.w3.org/2000/svg" xmlns:xlink="http://www.w3.org/1999/xlink" width="18" height="14" viewBox="0 0 18 14"><defs><path id="2vf2a" d="M899 305.4v12.28a.4.4 0 0 1-.4.41h-17.2a.4.4 0 0 1-.4-.4V305.4c0-.23.18-.41.4-.41h17.2c.22 0 .4.18.4.4zm-.82.42h-16.36v10.46l5.07-5.06.57.57-5.47 5.48H898l-5.47-5.48.57-.57 5.07 5.06z"/><path id="2vf2b" d="M897.36 305.82l-7.36 7.36-7.35-7.36h-.83v.33l7.9 7.9a.4.4 0 0 0 .57 0l7.9-7.9v-.33z"/></defs><g><g opacity=".5" transform="translate(-881 -305)"><use xlink:href="#2vf2a"/></g><g opacity=".5" transform="translate(-881 -305)"><use xlink:href="#2vf2b"/></g></g></svg>