<?xml version="1.0" encoding="UTF-8"?>
<svg width="24px" height="19px" viewBox="0 0 24 19" version="1.1" xmlns="http://www.w3.org/2000/svg" xmlns:xlink="http://www.w3.org/1999/xlink">
    <!-- Generator: Sketch 49.3 (51167) - http://www.bohemiancoding.com/sketch -->
    <title>ic-truck</title>
    <desc>Created with Sketch.</desc>
    <defs></defs>
    <g id="Dashboard" stroke="none" stroke-width="1" fill="none" fill-rule="evenodd">
        <g id="Dashboard-db" transform="translate(-1024.000000, -313.000000)" fill="#FFFFFF" fill-rule="nonzero">
            <g id="my-vehicles" transform="translate(388.000000, 191.000000)">
                <g id="trucks" transform="translate(607.000000, 96.000000)">
                    <g id="Input/Mobile/input-with-bg-active-right-icon">
                        <g id="Group-Copy-2" transform="translate(21.000000, 15.000000)">
                            <g id="ic-truck" transform="translate(8.000000, 11.000000)">
                                <path d="M4.49202339,13.9887251 C3.11569591,13.9887251 1.99691228,15.108538 1.99691228,16.4838363 C1.99691228,17.8591345 3.11574269,18.9789474 4.49202339,18.9789474 C5.86835088,18.9789474 6.9871345,17.8591345 6.9871345,16.4838363 C6.9871345,15.108538 5.86835088,13.9887251 4.49202339,13.9887251 Z M4.49202339,17.9809123 C3.66661988,17.9809123 2.99494737,17.3092398 2.99494737,16.4838363 C2.99494737,15.6584327 3.66661988,14.9867602 4.49202339,14.9867602 C5.3174269,14.9867602 5.98909942,15.6584327 5.98909942,16.4838363 C5.98909942,17.3092398 5.3174269,17.9809123 4.49202339,17.9809123 Z" id="Shape"></path>
                                <path d="M19.4627836,13.9887251 C18.0864561,13.9887251 16.9676725,15.108538 16.9676725,16.4838363 C16.9676725,17.8591345 18.0865029,18.9789474 19.4627836,18.9789474 C20.8391111,18.9789474 21.9578947,17.8591345 21.9578947,16.4838363 C21.9578947,15.108538 20.8391111,13.9887251 19.4627836,13.9887251 Z M19.4627836,17.9809123 C18.6373801,17.9809123 17.9657076,17.3092398 17.9657076,16.4838363 C17.9657076,15.6584327 18.6373801,14.9867602 19.4627836,14.9867602 C20.2881871,14.9867602 20.9598596,15.6584327 20.9598596,16.4838363 C20.9598596,17.3092398 20.2881871,17.9809123 19.4627836,17.9809123 Z" id="Shape"></path>
                                <path d="M17.4667135,10.9945731 L16.4686784,10.9945731 C16.1932164,10.9945731 15.9696374,11.218152 15.9696374,11.493614 C15.9696374,11.769076 16.1932164,11.992655 16.4686784,11.992655 L17.4667135,11.992655 C17.7421754,11.992655 17.9657544,11.769076 17.9657544,11.493614 C17.9657544,11.218152 17.7421754,10.9945731 17.4667135,10.9945731 Z" id="Shape"></path>
                                <path d="M8.8325614,16.124538 C8.64392982,15.9448889 8.32355556,15.9448889 8.13394152,16.1345029 C8.0351345,16.2243275 7.98521637,16.3540585 7.98521637,16.4838363 C7.98521637,16.613614 8.0351345,16.743345 8.12495906,16.8331696 C8.22474854,16.9329591 8.35452632,16.9828772 8.48425731,16.9828772 C8.6139883,16.9828772 8.74376608,16.9329591 8.83359064,16.8331696 C8.93338012,16.743345 8.98329825,16.613614 8.98329825,16.4838363 C8.98329825,16.3540585 8.93338012,16.2243275 8.8325614,16.124538 Z" id="Shape"></path>
                                <path d="M17.4667135,15.9847953 L6.48814035,15.9847953 C6.21267836,15.9847953 5.98909942,16.2083743 5.98909942,16.4838363 C5.98909942,16.7592982 6.21267836,16.9828772 6.48814035,16.9828772 L17.4667135,16.9828772 C17.7421754,16.9828772 17.9657544,16.7592982 17.9657544,16.4838363 C17.9657076,16.2083743 17.7421754,15.9847953 17.4667135,15.9847953 Z" id="Shape"></path>
                                <path d="M20.4608655,8.99845614 L16.9676725,8.99845614 L16.9676725,5.50526316 C16.9676725,5.22980117 16.7440936,5.00622222 16.4686316,5.00622222 C16.1931696,5.00622222 15.9695906,5.22980117 15.9695906,5.50526316 L15.9695906,9.49745029 C15.9695906,9.77291228 16.1931696,9.99649123 16.4686316,9.99649123 L20.4608187,9.99649123 C20.7362807,9.99649123 20.9598596,9.77291228 20.9598596,9.49745029 C20.9598596,9.22203509 20.7363275,8.99845614 20.4608655,8.99845614 Z" id="Shape"></path>
                                <path d="M23.6785965,5.45239766 C23.8472515,5.36757895 23.9540585,5.19490058 23.9540585,5.00626901 L23.9540585,3.5940117 C23.9540585,3.46226901 23.9011462,3.33553216 23.8083275,3.24168421 C23.3871345,2.82049123 22.8402339,2.568 22.2523509,2.52009357 L20.3650526,0.721590643 C19.9937778,0.207578947 18.7003041,0.0159532164 18.4647485,0.0159532164 L12.4764444,0.0159532164 C12.2009825,0.0159532164 11.9774035,0.239532164 11.9774035,0.514994152 L11.9774035,11.9925614 L1.49787135,11.9925614 C1.26933333,11.9925614 1.06872515,12.1482573 1.01281871,12.370807 L0.0147836257,16.3630877 C-0.022128655,16.5127953 0.0108070175,16.6705029 0.105590643,16.7912515 C0.200421053,16.912 0.346105263,16.9828772 0.499836257,16.9828772 L2.49595322,16.9828772 C2.7714152,16.9828772 2.99499415,16.7592982 2.99499415,16.4838363 C2.99499415,16.2083743 2.7714152,15.9847953 2.49595322,15.9847953 L1.13960234,15.9847953 L1.88814035,12.9906433 L12.4764444,12.9906433 C12.7519064,12.9906433 12.9754854,12.7670643 12.9754854,12.4916023 L12.9754854,1.01403509 L18.4647485,1.01403509 C18.7112515,1.01403509 19.4338713,1.20963743 19.6165146,1.37431579 L21.6984327,3.37043275 C21.7912515,3.45927485 21.9149942,3.5091462 22.0437427,3.5091462 C22.3781053,3.5091462 22.6954854,3.61791813 22.9559766,3.81852632 L22.9559766,4.69782456 L22.2334035,5.0591345 C22.0647485,5.14395322 21.9579415,5.31663158 21.9579415,5.50526316 L21.9579415,9.49745029 C21.9579415,9.68608187 22.065731,9.85876023 22.2334035,9.94357895 L22.9559766,10.3048889 L22.9559766,14.4877193 C22.9559766,15.3131228 22.2843041,15.9847953 21.4589006,15.9847953 C21.1834386,15.9847953 20.9598596,16.2083743 20.9598596,16.4838363 C20.9598596,16.7592982 21.1834386,16.9828772 21.4589006,16.9828772 C22.8352281,16.9828772 23.9540117,15.8630643 23.9540117,14.4877661 L23.9540117,9.99653801 C23.9540117,9.80790643 23.8472047,9.63522807 23.6785497,9.55040936 L22.9559766,9.18909942 L22.9559766,5.8137076 L23.6785965,5.45239766 Z" id="Shape"></path>
                                <path d="M5.49010526,10.9945731 L3.4939883,10.9945731 C3.21852632,10.9945731 2.99494737,11.218152 2.99494737,11.493614 C2.99494737,11.769076 3.21852632,11.992655 3.4939883,11.992655 L5.49010526,11.992655 C5.76556725,11.992655 5.9891462,11.769076 5.9891462,11.493614 C5.9891462,11.218152 5.76556725,10.9945731 5.49010526,10.9945731 Z" id="Shape"></path>
                                <path d="M19.4627836,3.01015205 L14.4725614,3.01015205 C14.1970994,3.01015205 13.9735205,3.23373099 13.9735205,3.50919298 C13.9735205,3.78465497 14.1970994,4.00823392 14.4725614,4.00823392 L19.4628304,4.00823392 C19.7382924,4.00823392 19.9618713,3.78465497 19.9618713,3.50919298 C19.9618713,3.23373099 19.7382456,3.01015205 19.4627836,3.01015205 Z" id="Shape"></path>
                            </g>
                        </g>
                    </g>
                </g>
            </g>
        </g>
    </g>
</svg>