<?xml version="1.0" encoding="UTF-8"?>
<svg width="20px" height="11px" viewBox="0 0 20 11" version="1.1" xmlns="http://www.w3.org/2000/svg" xmlns:xlink="http://www.w3.org/1999/xlink">
    <!-- Generator: Sketch 49.3 (51167) - http://www.bohemiancoding.com/sketch -->
    <title>ic-view</title>
    <desc>Created with Sketch.</desc>
    <defs></defs>
    <g id="Sign-In-&amp;-Sign-Up" stroke="none" stroke-width="1" fill="none" fill-rule="evenodd">
        <g id="Profile-Leads-new" transform="translate(-637.000000, -445.000000)" fill="#264AA1" fill-rule="nonzero">
            <g id="my-car" transform="translate(507.000000, 220.000000)">
                <g id="Group" transform="translate(10.000000, 209.000000)">
                    <g id="lnk-edit-ad" transform="translate(29.000000, 12.000000)">
                        <g id="btn-edit-last-step">
                            <g id="ic-view" transform="translate(91.000000, 4.000000)">
                                <path d="M17.2503843,2.8945492 C15.304809,1.0280495 12.7180284,0 9.9663857,0 C7.21474299,0 4.6283002,1.0277254 2.68272495,2.8945492 L0,5.46791397 L2.74927788,8.1054508 C4.69485313,9.9719505 7.28163376,11 10.0332765,11 C12.7849192,11 15.3716998,9.9722746 17.317275,8.1054508 L20,5.53176193 L17.2503843,2.8945492 Z M16.8392426,7.64717148 C15.0213679,9.39116087 12.604179,10.3517973 10.0332765,10.3517973 C7.46237395,10.3517973 5.04518505,9.39148497 3.22731035,7.64717148 L0.955727099,5.46791397 L3.16075742,3.35250442 C4.97863212,1.60851503 7.39582102,0.647878609 9.96672354,0.647878609 C12.5376261,0.647878609 14.954815,1.60819093 16.7726897,3.35250442 L19.0442729,5.53176193 L16.8392426,7.64717148 Z" id="Shape"></path>
                                <path d="M10,1 C7.79446154,1 6,2.79446154 6,5 C6,7.20553846 7.79446154,9 10,9 C12.2055385,9 14,7.20553846 14,5 C14,2.79446154 12.2058462,1 10,1 Z M10,3.46153846 C9.15169231,3.46153846 8.46153846,4.15169231 8.46153846,5 C8.46153846,5.16984615 8.32369231,5.30769231 8.15384615,5.30769231 C7.984,5.30769231 7.84615385,5.16984615 7.84615385,5 C7.84615385,3.81230769 8.81230769,2.84615385 10,2.84615385 C10.1698462,2.84615385 10.3076923,2.984 10.3076923,3.15384615 C10.3076923,3.32369231 10.1701538,3.46153846 10,3.46153846 Z" id="Shape"></path>
                            </g>
                        </g>
                    </g>
                </g>
            </g>
        </g>
    </g>
</svg>