<svg xmlns="http://www.w3.org/2000/svg" xmlns:xlink="http://www.w3.org/1999/xlink" width="14" height="14" viewBox="0 0 14 14"><defs><path id="va7na" d="M661 97.73v8.4c0 1.03-.84 1.87-1.87 1.87h-.02c-.17 0-.33-.03-.48-.07l-9.09-1.33a2.56 2.56 0 0 1-1.5-4.63l5.88-5.88a3.74 3.74 0 0 1 7.08 1.64zm-6.67-1.43l-.01.03a3.28 3.28 0 0 0 2.95 4.67 3.28 3.28 0 1 0-2.93-4.7zm-4.76 9.83a2.1 2.1 0 0 0 2.1-2.1 2.1 2.1 0 0 0-3.4-1.66c-.49.38-.8.98-.8 1.66 0 1.17.93 2.1 2.1 2.1zm10.96 0c0-.77-.63-1.4-1.4-1.4-.77 0-1.4.63-1.4 1.4 0 .77.63 1.4 1.4 1.4.77 0 1.4-.63 1.4-1.4zm0-6.6a3.74 3.74 0 0 1-7-1.8c0-.22.02-.45.06-.66l-4.43 4.43a2.56 2.56 0 0 1 2.97 2.54c0 1-.56 1.86-1.4 2.28l6.98 1.02a1.87 1.87 0 0 1 2.82-2.44z"/><path id="va7nb" d="M659.15 105.9c-.15 0-.25.1-.25.25s.1.25.25.25.25-.1.25-.25-.1-.25-.25-.25z"/><path id="va7nc" d="M657.28 96.37c.15 0 .25-.1.25-.25s-.1-.25-.25-.25-.25.1-.25.25.1.25.25.25z"/><path id="va7nd" d="M657.28 99.13c-.15 0-.25.1-.25.25s.1.25.25.25.25-.1.25-.25-.1-.25-.25-.25z"/><path id="va7ne" d="M649.57 105.2c-.66 0-1.17-.51-1.17-1.16 0-.66.51-1.17 1.17-1.17.65 0 1.16.51 1.16 1.17 0 .65-.51 1.16-1.16 1.16zm0-.46c.4 0 .7-.3.7-.7 0-.4-.3-.7-.7-.7-.4 0-.7.3-.7.7 0 .4.3.7.7.7z"/><path id="va7nf" d="M658.92 98c.15 0 .25-.1.25-.25s-.1-.25-.25-.25-.25.1-.25.25.1.25.25.25z"/><path id="va7ng" d="M655.65 98c.15 0 .25-.1.25-.25s-.1-.25-.25-.25-.25.1-.25.25.1.25.25.25z"/><path id="va7nh" d="M656.12 96.83c.15 0 .25-.1.25-.25s-.1-.25-.25-.25-.25.1-.25.25.1.25.25.25z"/><path id="va7ni" d="M658.45 98.67c-.15 0-.25.1-.25.25s.1.25.25.25.25-.1.25-.25-.1-.25-.25-.25z"/><path id="va7nj" d="M658.45 96.83c.15 0 .25-.1.25-.25s-.1-.25-.25-.25-.25.1-.25.25.1.25.25.25z"/><path id="va7nk" d="M656.12 98.67c-.15 0-.25.1-.25.25s.1.25.25.25.25-.1.25-.25-.1-.25-.25-.25z"/><path id="va7nl" d="M654.47 97.73a2.8 2.8 0 0 1 2.8-2.8 2.8 2.8 0 0 1 2.8 2.8 2.8 2.8 0 0 1-2.8 2.8 2.8 2.8 0 0 1-2.8-2.8zm.47 0a2.34 2.34 0 0 0 2.33 2.33 2.34 2.34 0 0 0 2.33-2.33 2.34 2.34 0 0 0-2.33-2.33 2.34 2.34 0 0 0-2.33 2.33z"/><path id="va7nm" d="M656.33 97.73c0-.51.42-.93.93-.93.52 0 .94.42.94.93a.94.94 0 1 1-1.87 0zm.47 0c0 .26.2.47.46.47s.47-.21.47-.47a.47.47 0 0 0-.47-.46.47.47 0 0 0-.46.46z"/></defs><g><g transform="translate(-647 -94)"><use fill="#de1f26" xlink:href="#va7na"/></g><g transform="translate(-647 -94)"><use fill="#de1f26" xlink:href="#va7nb"/></g><g transform="translate(-647 -94)"><use fill="#de1f26" xlink:href="#va7nc"/></g><g transform="translate(-647 -94)"><use fill="#de1f26" xlink:href="#va7nd"/></g><g transform="translate(-647 -94)"><use fill="#de1f26" xlink:href="#va7ne"/></g><g transform="translate(-647 -94)"><use fill="#de1f26" xlink:href="#va7nf"/></g><g transform="translate(-647 -94)"><use fill="#de1f26" xlink:href="#va7ng"/></g><g transform="translate(-647 -94)"><use fill="#de1f26" xlink:href="#va7nh"/></g><g transform="translate(-647 -94)"><use fill="#de1f26" xlink:href="#va7ni"/></g><g transform="translate(-647 -94)"><use fill="#de1f26" xlink:href="#va7nj"/></g><g transform="translate(-647 -94)"><use fill="#de1f26" xlink:href="#va7nk"/></g><g transform="translate(-647 -94)"><use fill="#de1f26" xlink:href="#va7nl"/></g><g transform="translate(-647 -94)"><use fill="#de1f26" xlink:href="#va7nm"/></g></g></svg>