<?xml version="1.0" encoding="UTF-8"?>
<svg width="17px" height="16px" viewBox="0 0 17 16" version="1.1" xmlns="http://www.w3.org/2000/svg" xmlns:xlink="http://www.w3.org/1999/xlink">
    <!-- Generator: Sketch 49.3 (51167) - http://www.bohemiancoding.com/sketch -->
    <title>leads</title>
    <desc>Created with Sketch.</desc>
    <defs></defs>
    <g id="Sign-In-&amp;-Sign-Up" stroke="none" stroke-width="1" fill="none" fill-rule="evenodd">
        <g id="Profile-Leads-new" transform="translate(-182.000000, -364.000000)" fill="#264AA1" fill-rule="nonzero" stroke="#264AA1" stroke-width="0.4">
            <g id="profile" transform="translate(165.000000, 220.000000)">
                <g id="lnk-delete-acc-copy" transform="translate(15.000000, 145.000000)">
                    <g id="btn-leads">
                        <g id="leads" transform="translate(3.000000, 0.000000)">
                            <path d="M13.87925,11.1375 L11.436,10.07925 C11.3785,10.0505 11.31475,9.98025 11.26,9.8865 L12.89125,9.88525 C12.91975,9.888 13.59225,9.9495 14.1315,9.71775 C14.33575,9.62975 14.48775,9.456 14.54875,9.241 C14.61025,9.024 14.57125,8.79425 14.44225,8.61025 C13.976,7.94675 12.88775,6.213 12.85375,4.4545 C12.853,4.42425 12.7545,1.43375 9.80125,1.4095 C9.3665,1.413 8.9645,1.48675 8.59875,1.62275 C8.519,1.4195 8.4015,1.2075 8.22675,1.008 C7.7135,0.422 6.88025,0.125 5.75,0.125 C4.61975,0.125 3.7865,0.422 3.273,1.0075 C2.681,1.68275 2.736,2.5015 2.75,2.63875 L2.75,3.9685 C2.59,4.15075 2.5,4.384 2.5,4.62475 L2.5,5.62475 C2.5,5.929 2.63825,6.21275 2.87425,6.402 C3.10325,7.30875 3.5825,7.992 3.75,8.21125 L3.75,9.0385 C3.75,9.2805 3.618,9.5025 3.40575,9.6185 L1.1755,10.835 C0.45025,11.231 0,11.9895 0,12.8155 L0,13.875 L11,13.875 L11.5,13.875 L15,13.875 L15,12.95075 C15,12.17775 14.5705,11.48325 13.87925,11.1375 Z M11,13.375 L0.5,13.375 L0.5,12.8155 C0.5,12.17275 0.8505,11.582 1.41475,11.2745 L3.645,10.058 C4.01825,9.85425 4.25,9.4635 4.25,9.03875 L4.25,8.034 L4.19175,7.9645 C4.18575,7.95725 3.573,7.216 3.33925,6.19825 L3.3165,6.09925 L3.23125,6.04425 C3.0865,5.95075 3,5.794 3,5.625 L3,4.625 C3,4.48475 3.0595,4.354 3.1675,4.25625 L3.25,4.182 L3.25,2.625 L3.24775,2.59225 C3.247,2.5855 3.162,1.8925 3.649,1.337 C4.06325,0.8645 4.77025,0.625 5.75,0.625 C6.72625,0.625 7.43175,0.86275 7.8465,1.332 C8.05275,1.565 8.1565,1.82525 8.20825,2.04875 C8.21225,2.06625 8.216,2.0835 8.2195,2.10075 C8.223,2.1185 8.22675,2.13625 8.2295,2.15325 C8.23275,2.17275 8.2355,2.19125 8.23825,2.20975 C8.24025,2.223 8.24225,2.2365 8.24375,2.24925 C8.2475,2.28025 8.2505,2.31025 8.2525,2.338 C8.25275,2.34025 8.25275,2.34225 8.25275,2.3445 C8.2545,2.3715 8.25575,2.397 8.2565,2.42025 C8.2565,2.42475 8.2565,2.4285 8.25675,2.433 C8.25725,2.45375 8.25725,2.4735 8.257,2.49075 C8.257,2.49325 8.257,2.49575 8.257,2.49825 C8.256,2.557 8.252,2.592 8.252,2.59275 L8.25,4.182 L8.3325,4.2565 C8.4405,4.354 8.5,4.48475 8.5,4.625 L8.5,5.625 C8.5,5.84325 8.357,6.03425 8.1445,6.09975 L8.02,6.138 L7.98,6.26175 C7.81275,6.782 7.5745,7.2625 7.2715,7.69 C7.19725,7.79525 7.125,7.8885 7.06225,7.95975 L7,8.03075 L7,9.062 C7,9.12525 7.00625,9.18725 7.016,9.24825 C7.018,9.26125 7.0215,9.27375 7.024,9.28675 C7.03375,9.337 7.04675,9.38625 7.06275,9.43425 C7.0665,9.4455 7.0705,9.45625 7.07475,9.4675 C7.09425,9.51975 7.117,9.57025 7.1435,9.61875 C7.1465,9.62425 7.14925,9.63 7.15225,9.6355 C7.1885,9.6995 7.23025,9.76025 7.27825,9.81625 L7.33525,9.8865 L7.345,9.8865 C7.43075,9.971 7.52925,10.0445 7.64125,10.1005 L10.0295,11.2945 C10.62825,11.5935 11,12.195 11,12.86425 L11,13.375 Z M14.5,13.375 L11.5,13.375 L11.5,12.86425 C11.5,12.0045 11.02225,11.23175 10.2535,10.84725 L8.539,9.98975 C8.58125,9.89325 8.58675,9.78275 8.54975,9.67625 C8.4885,9.5 8.3285,9.38625 8.14225,9.38625 L7.588,9.38625 C7.5765,9.366 7.569,9.34375 7.55975,9.32225 C7.54725,9.2935 7.5325,9.26525 7.52425,9.235 C7.509,9.1795 7.5,9.1215 7.5,9.062 L7.5,8.21675 C7.55725,8.14675 7.6175,8.067 7.67975,7.979 C7.9895,7.5415 8.23775,7.0545 8.41825,6.52925 C8.771,6.3675 9,6.01875 9,5.625 L9,4.625 C9,4.38425 8.91,4.151 8.75,3.96875 L8.75,2.639 C8.7565,2.5765 8.7705,2.37175 8.729,2.10425 C9.051,1.97775 9.41175,1.9125 9.8015,1.90925 C12.26175,1.9295 12.3515,4.362 12.354,4.4645 C12.39075,6.36025 13.5405,8.19625 14.03325,8.8975 C14.0755,8.9575 14.08825,9.033 14.068,9.10425 C14.0565,9.14525 14.0235,9.21975 13.93425,9.258 C13.51425,9.43875 12.9445,9.3875 12.91525,9.38625 L11.1945,9.38625 C11.03375,9.38625 10.88725,9.468 10.8025,9.60475 C10.718,9.741 10.71,9.9075 10.781,10.0505 C10.85925,10.20825 10.9975,10.419 11.22475,10.53225 L13.6615,11.58775 C14.17875,11.849 14.5,12.3705 14.5,12.95075 L14.5,13.375 Z" id="Shape"></path>
                        </g>
                    </g>
                </g>
            </g>
        </g>
    </g>
</svg>