<?xml version="1.0" encoding="UTF-8"?>
<svg width="200px" height="120px" viewBox="0 0 200 120" version="1.1" xmlns="http://www.w3.org/2000/svg" xmlns:xlink="http://www.w3.org/1999/xlink">
    <!-- Generator: Sketch 51.3 (57544) - http://www.bohemiancoding.com/sketch -->
    <title>Artboard</title>
    <desc>Created with Sketch.</desc>
    <defs></defs>
    <g id="Artboard" stroke="none" stroke-width="1" fill="none" fill-rule="evenodd">
        <g id="no-ad-car" fill-rule="nonzero">
            <path d="M1,1 L1,119 L199,119 L199,1 L1,1 Z M0,0 L200,0 L200,120 L0,120 L0,0 Z" id="Rectangle"></path>
            <path d="M160.000938,56.0025813 L160.000938,69.9976251 C160.029291,72.6584113 158.985334,75.2185928 157.104473,77.1008649 C155.223611,78.983137 152.664214,80.0290137 150.003407,80.0026564 L145.833394,80.0026564 C144.839128,85.7667261 139.847526,89.983333 133.998357,90.0001877 C128.080838,90.0001877 123.130823,85.6501741 122.17082,80.0026564 L81.8281936,80.0026564 C80.8344195,85.7639453 75.8469902,89.9796988 70.0006566,90.0001877 C64.0756381,90.0001877 59.1256226,85.6501741 58.1731196,80.0026564 L49.9980941,80.0026564 C47.3372874,80.0290137 44.7778895,78.983137 42.8970284,77.1008649 C41.0161673,75.2185928 39.9722102,72.6584113 40.0005628,69.9976251 L40.0005628,60.997597 C40.0005628,56.0025813 43.8030747,51.8025682 48.7980903,51.0000657 L61.0006285,49.4025607 C63.8024778,49.0418528 66.5439768,48.3104502 69.153154,47.2275539 L72.9256658,45.3675481 C75.9256752,43.6425427 78.6481837,41.4225357 81.0031911,38.7975275 L83.8006998,36.0000188 C85.8032061,33.6000113 88.3982142,31.2000038 91.3982236,30.2025006 C91.6007242,30 91.8032249,30 91.9982255,30 L124.000826,30 C130.000844,30.3975012 135.198361,33.3975106 138.19837,38.4000263 L138.798372,39.3975294 C141.198379,43.2000413 145.398393,45.6000488 150.603409,45.99755 C155.800925,46.4025513 160.000938,50.7975651 160.000938,56.0025813 Z M78.0031817,78.0001502 C77.9908217,73.5856074 74.4151994,70.0099851 70.0006566,69.9976251 C65.5861139,70.0099851 62.0104916,73.5856074 61.9981316,78.0001502 C62.0104916,82.4146929 65.5861139,85.9903152 70.0006566,86.0026752 C74.4151994,85.9903152 77.9908217,82.4146929 78.0031817,78.0001502 Z M142.000882,78.0001502 C141.988522,73.5856074 138.4129,70.0099851 133.998357,69.9976251 C129.586743,70.0141 126.01567,73.5885231 126.003332,78.0001502 C126.01567,82.4117772 129.586743,85.9862003 133.998357,86.0026752 C138.4129,85.9903152 141.988522,82.4146929 142.000882,78.0001502 Z M156.003426,56.0025813 C156.003426,52.8000713 153.603418,50.1975632 150.400908,50.0025626 C144.003388,49.5975613 138.400871,46.4025513 135.400861,41.4000357 L134.800859,40.4025325 C132.400852,36.6000206 128.403339,33.9975125 123.798325,33.8025119 L92.4032267,33.9975125 C90.4007205,34.800015 88.3982142,36.8025213 86.8007092,38.6025269 L84.0032005,41.7975369 C78.202792,48.4123172 70.1410854,52.6223789 61.3981297,53.6025738 L49.2030916,55.2000788 C46.2030822,55.4025795 43.9980753,57.9975876 43.9980753,60.997597 L43.9980753,69.9976251 C43.9980753,73.4026358 46.6005834,75.9976439 49.9980941,75.9976439 L58.1731196,75.9976439 C58.8566195,72.0650514 61.4393668,68.7243239 65.0731412,67.072616 L65.313142,66.9601156 L65.4631425,66.9001154 L65.8531437,66.750115 L65.958144,66.7051148 L66.4081454,66.5551144 L66.5056457,66.5251143 L66.9556471,66.3901138 L67.0681475,66.3676138 L67.5181489,66.2626134 L67.6381493,66.2326134 L68.0881507,66.1576131 L68.2231511,66.135113 L68.6656525,66.0751129 L68.8156529,66.0601128 L69.2656543,66.0226127 L69.4081548,66.0151127 C69.8029195,65.9957791 70.1983938,65.9957791 70.5931585,66.0151127 L70.743159,66.0226127 L71.1856604,66.0601128 L71.3356608,66.0751129 L71.7781622,66.135113 L71.9131626,66.1576131 L72.363164,66.2326134 L72.4756644,66.2626134 C72.8194105,66.3348563 73.159752,66.4224442 73.4956676,66.5251143 L73.5931679,66.5551144 L74.0431693,66.7051148 L74.1481696,66.7426149 L74.5381708,66.8926154 L74.6881713,66.9676157 L74.9281721,67.072616 C78.5619465,68.7243239 81.1446938,72.0650514 81.8281936,75.9976439 L122.17082,75.9976439 C122.85432,72.0650514 125.437067,68.7243239 129.070841,67.072616 L129.310842,66.9601156 L129.460843,66.9001154 L129.850844,66.750115 L129.963344,66.7051148 L130.405846,66.5551144 L130.503346,66.5251143 L130.960847,66.3901138 C130.998347,66.3901138 131.035848,66.3751138 131.065848,66.3676138 L131.523349,66.2626134 L131.643349,66.2326134 L132.093351,66.1576131 L132.228351,66.135113 L132.663353,66.0751129 L132.813353,66.0601128 L133.263355,66.0226127 L133.413355,66.0151127 C133.805624,65.9960232 134.19859,65.9960232 134.590859,66.0151127 L134.740859,66.0226127 L135.190861,66.0601128 L135.340861,66.0751129 L135.775862,66.135113 L135.910863,66.1576131 L136.360864,66.2326134 L136.473365,66.2626134 C136.81963,66.3346578 137.162477,66.4222466 137.500868,66.5251143 L137.598368,66.5551144 L138.04087,66.7051148 L138.14587,66.7426149 L138.535871,66.8926154 L138.685872,66.9676157 L138.925872,67.072616 C142.559647,68.7243239 145.142394,72.0650514 145.825894,75.9976439 L150.003407,75.9976439 C153.400918,75.9976439 156.003426,73.4026358 156.003426,69.9976251 L156.003426,56.0025813 Z" id="q0poa" fill="#CDD3DE"></path>
        </g>
    </g>
</svg>