<?xml version="1.0" encoding="UTF-8"?>
<svg width="36px" height="40px" viewBox="0 0 36 40" version="1.1" xmlns="http://www.w3.org/2000/svg" xmlns:xlink="http://www.w3.org/1999/xlink">
    <!-- Generator: Sketch 51.3 (57544) - http://www.bohemiancoding.com/sketch -->
    <title>oil</title>
    <desc>Created with Sketch.</desc>
    <defs></defs>
    <g id="Salepage" stroke="none" stroke-width="1" fill="none" fill-rule="evenodd">
        <g id="Sale-page-spare-parts-ECV" transform="translate(-875.000000, -473.000000)" fill="#264AA1" fill-rule="nonzero" stroke="#FFFFFF" stroke-width="0.5">
            <g id="sell-your-car" transform="translate(0.000000, 109.000000)">
                <g id="vehicle" transform="translate(354.000000, 175.000000)">
                    <g id="Group-5-Copy" transform="translate(141.000000, 177.000000)">
                        <g id="Group-6">
                            <g id="Group-3-Copy-2" transform="translate(345.000000, 0.000000)">
                                <g id="oil" transform="translate(36.000000, 13.000000)">
                                    <path d="M15.1715221,25.7056549 L11.1698274,18.7680752 C10.9683097,18.4187478 10.5957389,18.2035398 10.1924779,18.2035398 C9.78921681,18.2035398 9.41664602,18.4187478 9.21512832,18.7680752 L5.21343363,25.7056549 C5.20561062,25.7191195 5.19823894,25.7326593 5.1910177,25.7464248 C4.77226106,26.5469292 4.55088496,27.4501858 4.55088496,28.3584071 C4.55088496,31.4691814 7.08170354,34 10.1924779,34 C13.3032522,34 15.8340708,31.4691814 15.8340708,28.3584071 C15.8340708,27.3476593 15.5357434,26.3344292 15.1715221,25.7056549 Z M10.1924779,31.7433628 C8.32601327,31.7433628 6.80752212,30.2248717 6.80752212,28.3584071 C6.80752212,27.8124513 6.93306637,27.292146 7.18061947,26.8116327 L10.1924779,21.5900752 L13.2043363,26.8116327 C13.4518894,27.292146 13.5774336,27.8124513 13.5774336,28.3584071 C13.5774336,30.2248717 12.0589425,31.7433628 10.1924779,31.7433628 Z" id="Shape"></path>
                                    <path d="M30.5774336,0 L22.4856593,0 C21.5814248,0 20.7314248,0.352110619 20.0921195,0.991415929 L16.5702611,4.51327434 L13.5774336,4.51327434 L13.5774336,3.38495575 C13.5774336,1.51849115 12.0589425,0 10.1924779,0 L5.67920354,0 C3.81273894,0 2.29424779,1.51849115 2.29424779,3.38495575 L2.29424779,4.70734513 C0.980960177,5.17311504 0.0376106195,6.42727876 0.0376106195,7.89823009 L0.0376106195,35.1283186 C0.0376106195,36.9947832 1.55610177,38.5132743 3.42256637,38.5132743 L30.5774336,38.5132743 C32.4438982,38.5132743 33.9623894,36.9947832 33.9623894,35.1283186 L33.9623894,3.38495575 C33.9623894,1.51849115 32.4438982,0 30.5774336,0 Z M4.55088496,3.38495575 C4.55088496,2.76280088 5.05704867,2.25663717 5.67920354,2.25663717 L10.1924779,2.25663717 C10.8146327,2.25663717 11.3207965,2.76280088 11.3207965,3.38495575 L11.3207965,4.51327434 L4.55088496,4.51327434 L4.55088496,3.38495575 Z M31.7057522,35.1283186 C31.7057522,35.7504735 31.1995885,36.2566372 30.5774336,36.2566372 L3.42256637,36.2566372 C2.8004115,36.2566372 2.29424779,35.7504735 2.29424779,35.1283186 L2.29424779,7.89823009 C2.29424779,7.27607522 2.8004115,6.7699115 3.42256637,6.7699115 C4.74239823,6.7699115 15.7189071,6.7699115 17.0376106,6.7699115 C17.3369159,6.7699115 17.623885,6.65106195 17.8354071,6.4394646 L21.6877124,2.58715929 C21.9008142,2.3739823 22.1842478,2.25663717 22.4856593,2.25663717 L30.5774336,2.25663717 C31.1995885,2.25663717 31.7057522,2.76280088 31.7057522,3.38495575 L31.7057522,35.1283186 Z" id="Shape"></path>
                                    <path d="M28.3207965,4.51327434 L23.4207345,4.51327434 C23.1214292,4.51327434 22.8344602,4.63212389 22.6229381,4.84372124 L18.1096637,9.35699558 C17.7869646,9.67969469 17.6904558,10.1650221 17.8650442,10.5866372 C18.039708,11.0082522 18.4510929,11.2831858 18.9074602,11.2831858 L28.3207965,11.2831858 C28.9439292,11.2831858 29.449115,10.778 29.449115,10.1548673 L29.449115,5.64159292 C29.449115,5.01846018 28.9439292,4.51327434 28.3207965,4.51327434 Z M27.1924779,9.02654867 L21.6314469,9.02654867 L23.8880841,6.7699115 L27.1924779,6.7699115 L27.1924779,9.02654867 Z" id="Shape"></path>
                                    <path d="M28.3207965,22.7168142 L21.550885,22.7168142 C20.9277522,22.7168142 20.4225664,23.222 20.4225664,23.8451327 C20.4225664,24.4682655 20.9277522,24.9734513 21.550885,24.9734513 L28.3207965,24.9734513 C28.9439292,24.9734513 29.449115,24.4682655 29.449115,23.8451327 C29.449115,23.222 28.9439292,22.7168142 28.3207965,22.7168142 Z" id="Shape"></path>
                                    <path d="M28.3207965,27.2300885 L21.550885,27.2300885 C20.9277522,27.2300885 20.4225664,27.7352743 20.4225664,28.3584071 C20.4225664,28.9815398 20.9277522,29.4867257 21.550885,29.4867257 L28.3207965,29.4867257 C28.9439292,29.4867257 29.449115,28.9815398 29.449115,28.3584071 C29.449115,27.7352743 28.9439292,27.2300885 28.3207965,27.2300885 Z" id="Shape"></path>
                                    <path d="M28.3207965,31.7433628 L21.550885,31.7433628 C20.9277522,31.7433628 20.4225664,32.2485487 20.4225664,32.8716814 C20.4225664,33.4948142 20.9277522,34 21.550885,34 L28.3207965,34 C28.9439292,34 29.449115,33.4948142 29.449115,32.8716814 C29.449115,32.2485487 28.9439292,31.7433628 28.3207965,31.7433628 Z" id="Shape"></path>
                                </g>
                            </g>
                        </g>
                    </g>
                </g>
            </g>
        </g>
    </g>
</svg>