<?xml version="1.0" encoding="UTF-8"?>
<svg width="54px" height="54px" viewBox="0 0 54 54" version="1.1" xmlns="http://www.w3.org/2000/svg" xmlns:xlink="http://www.w3.org/1999/xlink">
    <!-- Generator: Sketch 49.3 (51167) - http://www.bohemiancoding.com/sketch -->
    <title>ic-spare-parts</title>
    <desc>Created with Sketch.</desc>
    <defs></defs>
    <g id="Salepage" stroke="none" stroke-width="1" fill="none" fill-rule="evenodd">
        <g id="Sale-page/Desktop/d-salepage-selection-Copy" transform="translate(-593.000000, -572.000000)" fill-rule="nonzero">
            <g id="sell-your-car" transform="translate(0.000000, 109.000000)">
                <g id="Group-Copy" transform="translate(538.000000, 452.000000)">
                    <g id="ic-spare-parts" transform="translate(56.000000, 12.000000)">
                        <ellipse id="Oval" fill="#FFFFFF" cx="26" cy="25" rx="26" ry="25"></ellipse>
                        <path d="M26,52 C40.3365574,52 52,40.3365574 52,26 C52,11.6634426 40.3365574,0 26,0 C11.6634426,0 0,11.6634426 0,26 C0,40.3365574 11.6634426,52 26,52 Z M26,2.44507314 C38.9882073,2.44507314 49.5549269,13.0116453 49.5549269,26 C49.5549269,38.9883547 38.9882073,49.5549269 26,49.5549269 C13.0117927,49.5549269 2.44507314,38.9882073 2.44507314,26 C2.44507314,13.0117927 13.0117927,2.44507314 26,2.44507314 Z" id="Shape" stroke="#FFFFFF" stroke-width="0.9" fill="#264AA1"></path>
                        <g id="battery" transform="translate(13.000000, 13.000000)" fill="#264AA1" stroke="#264AA1" stroke-width="0.2">
                            <path d="M9.60869565,18.0869565 L7.91304348,18.0869565 L7.91304348,16.3913043 C7.91304348,16.0793043 7.65982609,15.826087 7.34782609,15.826087 C7.03582609,15.826087 6.7826087,16.0793043 6.7826087,16.3913043 L6.7826087,18.0869565 L5.08695652,18.0869565 C4.77495652,18.0869565 4.52173913,18.3401739 4.52173913,18.6521739 C4.52173913,18.9641739 4.77495652,19.2173913 5.08695652,19.2173913 L6.7826087,19.2173913 L6.7826087,20.9130435 C6.7826087,21.2250435 7.03582609,21.4782609 7.34782609,21.4782609 C7.65982609,21.4782609 7.91304348,21.2250435 7.91304348,20.9130435 L7.91304348,19.2173913 L9.60869565,19.2173913 C9.92069565,19.2173913 10.173913,18.9641739 10.173913,18.6521739 C10.173913,18.3401739 9.92069565,18.0869565 9.60869565,18.0869565 Z" id="Shape"></path>
                            <path d="M20.9130435,18.0869565 L16.3913043,18.0869565 C16.0793043,18.0869565 15.826087,18.3401739 15.826087,18.6521739 C15.826087,18.9641739 16.0793043,19.2173913 16.3913043,19.2173913 L20.9130435,19.2173913 C21.2250435,19.2173913 21.4782609,18.9641739 21.4782609,18.6521739 C21.4782609,18.3401739 21.2250435,18.0869565 20.9130435,18.0869565 Z" id="Shape"></path>
                            <path d="M23.7391304,4.57882609 L23.7391304,1.13043478 C23.7391304,0.507 23.2321304,0 22.6086957,0 L19.2173913,0 C18.5939565,0 18.0869565,0.507 18.0869565,1.13043478 L18.0869565,4.52173913 L7.91304348,4.52173913 L7.91304348,1.13043478 C7.91304348,0.507 7.40604348,0 6.7826087,0 L3.39130435,0 C2.76786957,0 2.26086957,0.507 2.26086957,1.13043478 L2.26086957,4.5793913 C0.97273913,4.84165217 0,5.98282609 0,7.34782609 L0,23.173913 C0,24.7322174 1.26778261,26 2.82608696,26 L23.173913,26 C24.7322174,26 26,24.7322174 26,23.173913 L26,7.34782609 C26,5.9833913 25.0272609,4.84165217 23.7391304,4.57882609 Z M19.2173913,1.13043478 L22.6086957,1.12986957 L22.6086957,4.52173913 L19.2173913,4.52173913 L19.2173913,1.13043478 Z M3.39130435,1.13043478 L6.7826087,1.12986957 L6.7826087,4.52173913 L3.39130435,4.52173913 L3.39130435,1.13043478 Z M24.8695652,23.173913 C24.8695652,24.1087826 24.1087826,24.8695652 23.173913,24.8695652 L2.82608696,24.8695652 C1.89121739,24.8695652 1.13043478,24.1087826 1.13043478,23.173913 L1.13043478,12.4347826 L24.8695652,12.4347826 L24.8695652,23.173913 Z M24.8695652,11.3043478 L1.13043478,11.3043478 L1.13043478,7.34782609 C1.13043478,6.41295652 1.89121739,5.65217391 2.82608696,5.65217391 L7.34782609,5.65217391 L18.6521739,5.65217391 L23.173913,5.65217391 C24.1087826,5.65217391 24.8695652,6.41295652 24.8695652,7.34782609 L24.8695652,11.3043478 Z" id="Shape"></path>
                        </g>
                    </g>
                </g>
            </g>
        </g>
    </g>
</svg>