<svg xmlns="http://www.w3.org/2000/svg" xmlns:xlink="http://www.w3.org/1999/xlink" width="17" height="17" viewBox="0 0 17 17"><defs><path id="4atea" d="M897.77 653.77v2.83c0 .18-.14.32-.32.32h-2.52c-.27-.02-.5-.13-.67-.3-.24-.25-.27-.41-.27-.72v-.56h-.63a.31.31 0 0 1-.31-.31v-1.26h-1.26a.31.31 0 0 1-.32-.32v-.94h-.94a.31.31 0 0 1-.32-.32v-.94h-1.27a.32.32 0 0 1-.22-.1l-.75-.76c-1.91.58-3.86.13-5.24-1.23a5.37 5.37 0 0 1 3.54-9.15c1.5-.07 2.95.5 4.01 1.56 1.5 1.5 1.8 3.62.83 5.72l6.56 6.25c.06.06.1.14.1.23zm-.63 2.52v-2.39l-6.63-6.32a.31.31 0 0 1-.07-.37c.98-1.93.76-3.83-.6-5.2a4.74 4.74 0 0 0-6.96.3 4.74 4.74 0 0 0 .3 6.4 4.55 4.55 0 0 0 4.77 1.02c.12-.04.24-.01.33.08l.8.81h1.45c.17 0 .31.14.31.32v.94h.95c.17 0 .31.14.31.31v.95h1.26c.17 0 .32.14.32.31v1.26h.62c.18 0 .32.14.32.32v.87c0 .19 0 .19.08.27a.4.4 0 0 0 .26.12h2.18z"/><path id="4ateb" d="M886.5 642.68a1.88 1.88 0 0 1 0 2.67 1.88 1.88 0 0 1-2.68 0 1.88 1.88 0 0 1 0-2.67 1.9 1.9 0 0 1 2.67 0zm-.08 1.34a1.25 1.25 0 0 0-1.26-1.26 1.26 1.26 0 0 0-.9 2.15c.48.47 1.31.47 1.79 0 .24-.24.37-.56.37-.9z"/></defs><g><g transform="translate(-881 -640)"><use fill="#77797b" xlink:href="#4atea"/></g><g transform="translate(-881 -640)"><use fill="#77797b" xlink:href="#4ateb"/></g></g></svg>