<?xml version="1.0" encoding="UTF-8"?>
<svg width="17px" height="17px" viewBox="0 0 17 17" version="1.1" xmlns="http://www.w3.org/2000/svg" xmlns:xlink="http://www.w3.org/1999/xlink">
    <!-- Generator: Sketch 51.3 (57544) - http://www.bohemiancoding.com/sketch -->
    <title>Shape</title>
    <desc>Created with Sketch.</desc>
    <defs></defs>
    <g id="Symbols" stroke="none" stroke-width="1" fill="none" fill-rule="evenodd">
        <g id="Icons/ic-phone" transform="translate(-12.000000, -12.000000)" fill="#77797B" fill-rule="nonzero">
            <path d="M25.6471678,28.9799995 C24.9406866,28.9799995 24.0874265,28.8029518 23.1490687,28.4488563 C21.0918778,27.6732728 18.8536404,26.1403819 16.8467085,24.1334598 C14.8392054,22.1259667 13.306307,19.8871692 12.5301486,17.8299884 C11.8248097,15.9595645 11.8230963,14.424389 12.5261507,13.7219092 C12.6272398,13.6208206 12.7300422,13.5123075 12.8362714,13.4003676 C13.4776443,12.7258728 14.2024015,11.9668519 15.1630331,12.0011192 C15.8249665,12.028533 16.4663395,12.4397407 17.1231328,13.257016 C19.0638143,15.6705768 18.1888514,16.5306863 17.1762474,17.527865 L16.9974854,17.7049127 C16.8318593,17.870538 16.518883,18.6375546 19.4304763,21.5491336 C20.3808277,22.4994803 21.1912535,23.1951067 21.8389088,23.6160235 C22.2466918,23.881024 22.9760179,24.2819515 23.2752872,23.9826837 L23.4551915,23.8010669 C24.4512328,22.7907525 25.3113465,21.9186495 27.7232058,23.857608 C28.5404851,24.5143981 28.9511237,25.1551968 28.9785377,25.8182692 C29.0179453,26.778325 28.2532094,27.5047919 27.5781401,28.1455906 C27.4667708,28.2518192 27.3582572,28.3546212 27.2571681,28.4551386 C26.908211,28.8046651 26.3502222,28.9799995 25.6471678,28.9799995 Z M15.0944982,12.5710987 C14.4120042,12.5710987 13.7957608,13.2198931 13.2503368,13.7938705 C13.1406808,13.9092372 13.0344516,14.021177 12.9299358,14.1256923 C12.4062146,14.6488399 12.4593291,16.0235301 13.0647212,17.6289535 C13.8128945,19.6118885 15.2995319,21.7787246 17.2510647,23.7302478 C19.2020264,25.6806288 21.367731,27.1672589 23.3512468,27.9148574 C24.9566781,28.5213887 26.3313751,28.5727897 26.8539541,28.0502132 C26.9584699,27.9456979 27.0704104,27.8394693 27.1857775,27.730385 C27.7723225,27.1729701 28.4376827,26.5413094 28.4085553,25.8405429 C28.388566,25.3590873 28.0378955,24.8410798 27.3662529,24.3013697 C25.3564654,22.6850949 24.7944787,23.2556456 23.8624034,24.2008522 L23.6796435,24.3853246 C23.2341663,24.8313707 22.5105514,24.7325666 21.528217,24.0940524 C20.8468653,23.6508619 20.0050277,22.9301062 19.0272623,21.9517745 C16.610834,19.5359293 15.8381024,18.0572949 16.5942714,17.2994162 L16.7764602,17.1195129 C17.7239559,16.1874421 18.2956517,15.6248871 16.6787979,13.6139672 C16.1379428,12.942899 15.6205039,12.5922303 15.1390459,12.5716699 C15.1241966,12.5710987 15.1093474,12.5710987 15.0944982,12.5710987 Z" id="Shape"></path>
        </g>
    </g>
</svg>