<?xml version="1.0" encoding="UTF-8"?>
<svg width="29px" height="29px" viewBox="0 0 29 29" version="1.1" xmlns="http://www.w3.org/2000/svg" xmlns:xlink="http://www.w3.org/1999/xlink">
    <!-- Generator: Sketch 49.3 (51167) - http://www.bohemiancoding.com/sketch -->
    <title>newspaper</title>
    <desc>Created with Sketch.</desc>
    <defs></defs>
    <g id="Salepage" stroke="none" stroke-width="1" fill="none" fill-rule="evenodd">
        <g id="Sale-page/Desktop/d-salepage-selection-Copy" transform="translate(-742.000000, -308.000000)" fill="#807F7F" fill-rule="nonzero" stroke="#F4F4F4" stroke-width="0.5">
            <g id="sell-your-car" transform="translate(0.000000, 109.000000)">
                <g id="vehicle" transform="translate(355.000000, 175.000000)">
                    <g id="Tabs/Desktop/Sell-page/m-tabs">
                        <g id="step-" transform="translate(365.000000, 0.000000)">
                            <g id="newspaper" transform="translate(23.000000, 25.000000)">
                                <path d="M18.6954282,4.69791667 L13.7925926,4.69791667 C13.3462729,4.69791667 12.9844329,5.05975671 12.9844329,5.50607639 C12.9844329,5.95239606 13.3462729,6.31423611 13.7925926,6.31423611 L18.6954282,6.31423611 C19.1417479,6.31423611 19.503588,5.95239606 19.503588,5.50607639 C19.503588,5.05975671 19.1417479,4.69791667 18.6954282,4.69791667 Z" id="Shape"></path>
                                <path d="M18.6954282,7.69791667 L13.7925926,7.69791667 C13.3462729,7.69791667 12.9844329,8.05975671 12.9844329,8.50607639 C12.9844329,8.95239606 13.3462729,9.31423611 13.7925926,9.31423611 L18.6954282,9.31423611 C19.1417479,9.31423611 19.503588,8.95239606 19.503588,8.50607639 C19.503588,8.05975671 19.1417479,7.69791667 18.6954282,7.69791667 Z" id="Shape-Copy-2"></path>
                                <path d="M18.6954282,11.2709491 L13.7925926,11.2709491 C13.3462729,11.2709491 12.9844329,11.6327891 12.9844329,12.0791088 C12.9844329,12.5254285 13.3462729,12.8872685 13.7925926,12.8872685 L18.6954282,12.8872685 C19.1417479,12.8872685 19.503588,12.5254285 19.503588,12.0791088 C19.503588,11.6327891 19.1417479,11.2709491 18.6954282,11.2709491 Z" id="Shape"></path>
                                <path d="M18.7925926,15.7362269 L4.04079861,15.7362269 C3.59447894,15.7362269 3.23263889,16.0980669 3.23263889,16.5443866 C3.23263889,16.9907062 3.59447894,17.3525463 4.04079861,17.3525463 L18.7925926,17.3525463 C19.2389123,17.3525463 19.6007523,16.9907062 19.6007523,16.5443866 C19.6007523,16.0980669 19.2389123,15.7362269 18.7925926,15.7362269 Z" id="Shape"></path>
                                <path d="M18.7925926,19.7362269 L4.04079861,19.7362269 C3.59447894,19.7362269 3.23263889,20.0980669 3.23263889,20.5443866 C3.23263889,20.9907062 3.59447894,21.3525463 4.04079861,21.3525463 L18.7925926,21.3525463 C19.2389123,21.3525463 19.6007523,20.9907062 19.6007523,20.5443866 C19.6007523,20.0980669 19.2389123,19.7362269 18.7925926,19.7362269 Z" id="Shape-Copy"></path>
                                <path d="M26.7770255,3.23263889 L22.7362269,3.23263889 L22.7362269,0.808159722 C22.7362269,0.361840046 22.3743868,0 21.9280671,0 L0.808159722,0 C0.361840046,0 0,0.361840046 0,0.808159722 L0,23.5443866 C0,25.7724829 1.81270226,27.5851852 4.04079861,27.5851852 L24.3525463,27.5851852 C26.1350234,27.5851852 27.5851852,26.1350234 27.5851852,24.3525463 L27.5851852,4.04079861 C27.5851852,3.59447894 27.2233451,3.23263889 26.7770255,3.23263889 Z M4.04079861,25.9688657 C2.7039408,25.9688657 1.61631944,24.8812444 1.61631944,23.5443866 L1.61631944,1.61631944 L21.1199074,1.61631944 C21.1199074,2.23240654 21.1199074,23.7681929 21.1199074,24.3525463 C21.1199074,24.941156 21.2787916,25.4929674 21.5548051,25.9688657 L4.04079861,25.9688657 Z M25.9688657,24.3525463 C25.9688657,25.2437848 25.2437848,25.9688657 24.3525463,25.9688657 C23.4613078,25.9688657 22.7362269,25.2437848 22.7362269,24.3525463 L22.7362269,4.84895833 L25.9688657,4.84895833 L25.9688657,24.3525463 Z" id="Shape"></path>
                                <path d="M10.5599537,4.69791667 L4.04079861,4.69791667 C3.59447894,4.69791667 3.23263889,5.05975671 3.23263889,5.50607639 L3.23263889,12.0791088 C3.23263889,12.5254285 3.59447894,12.8872685 4.04079861,12.8872685 L10.5599537,12.8872685 C11.0062734,12.8872685 11.3681134,12.5254285 11.3681134,12.0791088 L11.3681134,5.50607639 C11.3681134,5.05975671 11.0062734,4.69791667 10.5599537,4.69791667 Z M9.75179398,11.2709491 L4.84895833,11.2709491 L4.84895833,6.31423611 L9.75179398,6.31423611 L9.75179398,11.2709491 Z" id="Shape"></path>
                            </g>
                        </g>
                    </g>
                </g>
            </g>
        </g>
    </g>
</svg>