<?xml version="1.0" encoding="UTF-8"?>
<svg width="180px" height="40px" viewBox="0 0 180 40" version="1.1" xmlns="http://www.w3.org/2000/svg" xmlns:xlink="http://www.w3.org/1999/xlink">
    <!-- Generator: Sketch 49.3 (51167) - http://www.bohemiancoding.com/sketch -->
    <title>btn-Promouvoir</title>
    <desc>Created with Sketch.</desc>
    <defs>
        <radialGradient cx="50%" cy="50%" fx="50%" fy="50%" r="404.779412%" gradientTransform="translate(0.500000,0.500000),scale(0.222222,1.000000),rotate(180.000000),translate(-0.500000,-0.500000)" id="radialGradient-1">
            <stop stop-color="#FFE242" offset="0%"></stop>
            <stop stop-color="#D6A904" offset="100%"></stop>
        </radialGradient>
    </defs>
    <g id="Ad" stroke="none" stroke-width="1" fill="none" fill-rule="evenodd">
        <g id="Listing-page/Desktop/d-listing-page" transform="translate(-512.000000, -815.000000)">
            <g id="about-vihecle" transform="translate(165.000000, 795.000000)">
                <g id="btn-Promouvoir" transform="translate(347.000000, 20.000000)">
                    <path d="M20,0 L160,0 C171.045695,-2.02906125e-15 180,8.954305 180,20 L180,20 C180,31.045695 171.045695,40 160,40 L20,40 C8.954305,40 1.3527075e-15,31.045695 0,20 L0,20 C-1.3527075e-15,8.954305 8.954305,2.02906125e-15 20,0 Z" id="Rectangle-3" fill="url(#radialGradient-1)"></path>
                    <g id="all-btn" transform="translate(14.000000, 7.000000)" fill-rule="nonzero">
                        <g id="stars" transform="translate(0.000000, 3.000000)" fill="#FFF3DD">
                            <path d="M4.52148589,3.4641129 C3.69621371,3.4641129 3.02471169,2.79261089 3.02471169,1.96733871 C3.02471169,1.69178024 2.80130645,1.46843347 2.52580645,1.46843347 C2.25030645,1.46843347 2.02690121,1.69183871 2.02690121,1.96733871 C2.02690121,2.79261089 1.35539919,3.4641129 0.530127016,3.4641129 C0.254568548,3.4641129 0.0312217742,3.68751815 0.0312217742,3.96301815 C0.0312217742,4.23857661 0.254627016,4.46192339 0.530127016,4.46192339 C1.35539919,4.46192339 2.02690121,5.1334254 2.02690121,5.95869758 C2.02690121,6.23425605 2.25030645,6.45760282 2.52580645,6.45760282 C2.80130645,6.45760282 3.02471169,6.23419758 3.02471169,5.95869758 C3.02471169,5.1334254 3.69621371,4.46192339 4.52148589,4.46192339 C4.79704435,4.46192339 5.02039113,4.23851815 5.02039113,3.96301815 C5.0204496,3.68751815 4.79704435,3.4641129 4.52148589,3.4641129 Z" id="Shape"></path>
                            <path d="M143.500012,17.0000117 C142.672948,17.0000117 141.999988,16.327052 141.999988,15.4999883 C141.999988,15.2238316 141.776098,15 141.5,15 C141.223902,15 141.000012,15.2238902 141.000012,15.4999883 C141.000012,16.327052 140.327052,17.0000117 139.499988,17.0000117 C139.223832,17.0000117 139,17.2239019 139,17.5 C139,17.7761567 139.22389,17.9999883 139.499988,17.9999883 C140.327052,17.9999883 141.000012,18.672948 141.000012,19.5000117 C141.000012,19.7761684 141.223902,20 141.5,20 C141.776098,20 141.999988,19.7761098 141.999988,19.5000117 C141.999988,18.672948 142.672948,17.9999883 143.500012,17.9999883 C143.776168,17.9999883 144,17.7760981 144,17.5 C144.000059,17.2239019 143.776168,17.0000117 143.500012,17.0000117 Z" id="Shape"></path>
                            <path d="M153.500012,2.00001172 C152.672948,2.00001172 151.999988,1.32705199 151.999988,0.499988281 C151.999988,0.223831622 151.776098,0 151.5,0 C151.223902,0 151.000012,0.223890217 151.000012,0.499988281 C151.000012,1.32705199 150.327052,2.00001172 149.499988,2.00001172 C149.223832,2.00001172 149,2.22390194 149,2.5 C149,2.77615666 149.22389,2.99998828 149.499988,2.99998828 C150.327052,2.99998828 151.000012,3.67294801 151.000012,4.50001172 C151.000012,4.77616838 151.223902,5 151.5,5 C151.776098,5 151.999988,4.77610978 151.999988,4.50001172 C151.999988,3.67294801 152.672948,2.99998828 153.500012,2.99998828 C153.776168,2.99998828 154,2.77609806 154,2.5 C154.000059,2.22390194 153.776168,2.00001172 153.500012,2.00001172 Z" id="Shape"></path>
                        </g>
                        <g id="megaphone" transform="translate(7.000000, 0.000000)">
                            <path d="M12.5874163,19.9713541 L11.5091309,21.0496395 C11.211118,21.3476524 10.728809,21.3476524 10.4308455,21.0496395 C10.1328326,20.7516266 10.1328326,20.2693176 10.4308455,19.9713541 L11.5091309,18.8930687 C11.8066009,18.5955987 11.8066009,18.1122532 11.5091309,17.8147833 L10.5177124,16.8233648 C10.2196996,16.5253519 10.2196996,16.0430429 10.5177124,15.7450794 C10.8157253,15.4470665 11.2980343,15.4470665 11.5959979,15.7450794 L12.5874163,16.7364979 C13.479382,17.6283648 13.479382,19.0793884 12.5874163,19.9713541 Z" id="Shape" fill="#264AA1"></path>
                            <path d="M14.2048691,24.8237124 C13.6093369,25.4192446 12.6437811,25.4192446 12.0482983,24.8237124 L6.65677253,19.4321867 L8.81334335,17.2755665 L14.2048691,22.6670923 C14.8004506,23.2626245 14.8004506,24.2281803 14.2048691,24.8237124 Z" id="Shape" fill="#264AA1"></path>
                            <path d="M6.61358584,12.9191395 L9.95638412,16.2619378 L9.89167811,18.3538519 L6.11760515,22.1279249 C5.22262876,23.0229013 3.7561073,23.001382 2.8611309,22.1063069 L0.70451073,19.9496867 C-0.179706009,19.06547 -0.168946352,17.6313262 0.726128755,16.7363498 L4.50020172,12.9622768 L6.61358584,12.9191395 Z" id="Shape" fill="#264AA1"></path>
                            <g id="Group" transform="translate(15.300429, 0.000000)" fill="#FFFFFF">
                                <path d="M0.789403433,3.05011588 C0.368740343,3.05060944 0.0270472103,2.70891631 0.0270472103,2.28775966 L0.0265536481,0.762454936 C0.0264549356,0.341199571 0.367654506,-5.29395592e-22 0.788909871,-5.29395592e-22 C1.20957296,-0.000493562232 1.55126609,0.341199571 1.55126609,0.762356223 L1.55175966,2.28766094 C1.55180901,2.70891631 1.2106588,3.05011588 0.789403433,3.05011588 Z" id="Shape"></path>
                                <path d="M6.88914163,7.62504292 L5.36383691,7.62454936 C4.9426309,7.62454936 4.60088841,7.28285622 4.60148069,6.86219313 C4.60148069,6.44098712 4.94268026,6.09983691 5.36383691,6.09983691 L6.88914163,6.10033047 C7.31034764,6.10033047 7.65209013,6.44202361 7.65149785,6.8626867 C7.65149785,7.28384335 7.31034764,7.62504292 6.88914163,7.62504292 Z" id="Shape"></path>
                                <path d="M5.91346781,1.6401073 C6.21537983,1.94201931 6.21542918,2.41648069 5.91346781,2.7183927 L4.29601502,4.33584549 C3.99405365,4.63780687 3.51959227,4.63775751 3.21772961,4.33584549 C2.91576824,4.03388412 2.91576824,3.5594721 3.21772961,3.25756009 L4.8351824,1.6401073 C5.13709442,1.33814592 5.61150644,1.33814592 5.91346781,1.6401073 Z" id="Shape"></path>
                            </g>
                            <path d="M12.0482983,3.25756009 L19.5964442,10.805706 C19.8121309,11.0213927 20.0816652,13.2965665 20.3620086,13.3397532 L18.2378155,13.7818863 C15.0891352,14.407279 12.1022446,16.1433841 10.0750365,18.1705923 L9.89172747,18.3539013 L4.500103,12.9623262 L4.68341202,12.7790172 C6.81851288,10.6439163 8.39277897,7.81871674 9.03974034,4.58386052 L9.48182403,2.37334335 L12.0482983,3.25756009 Z" id="Shape" fill="#E2322F"></path>
                            <path d="M6.11755579,16.7363991 C6.41946781,17.0383112 6.41951717,17.5127725 6.11755579,17.8146845 L5.03927039,18.8930193 C4.73730901,19.1949807 4.26284764,19.1949313 3.96098498,18.8930193 C3.65902361,18.5910579 3.65902361,18.1166459 3.96098498,17.8147339 L5.03927039,16.7364485 C5.34123176,16.4344871 5.81564378,16.4344871 6.11755579,16.7363991 Z" id="Shape" fill="#FFFFFF"></path>
                            <path d="M12.0482983,1.10098927 L21.7530644,10.8057554 C22.3461288,11.3988197 22.3461288,12.3693112 21.7530644,12.9623755 C21.6883584,13.0270815 21.6020837,13.0701695 21.5157597,13.1133069 C21.1707103,13.3506116 20.7610043,13.4368369 20.3619592,13.3397532 C20.0816652,13.2966652 19.8120815,13.1780622 19.5963948,12.9623755 L9.89162876,3.25756009 C9.64356438,3.00949571 9.52501073,2.69682403 9.48182403,2.37334335 C9.43873605,2.04986266 9.50349142,1.72628326 9.6651824,1.43522961 C9.74064807,1.31657725 9.79454506,1.19802361 9.89162876,1.10093991 C10.4846931,0.507924893 11.4552339,0.507924893 12.0482983,1.10098927 Z" id="Shape" fill="#264AA1"></path>
                        </g>
                    </g>
                </g>
            </g>
        </g>
    </g>
</svg>