<?xml version="1.0" encoding="UTF-8" standalone="no"?>
<svg width="94px" height="33px" viewBox="0 0 94 33" version="1.1" xmlns="http://www.w3.org/2000/svg" xmlns:xlink="http://www.w3.org/1999/xlink">
    <!-- Generator: Sketch 48.2 (47327) - http://www.bohemiancoding.com/sketch -->
    <title>1</title>
    <desc>Created with Sketch.</desc>
    <defs></defs>
    <g id="Page-1" stroke="none" stroke-width="1" fill="none" fill-rule="evenodd">
        <g id="sprite-bodytypes" transform="translate(0.000000, -8.000000)" fill="#232323" fill-rule="nonzero">
            <g id="cars">
                <path d="M92.872,24.45 C93.3106689,24.7633349 93.6083326,25.2019972 93.765,25.766 C93.9216674,26.3300028 94,27.3326595 94,28.774 C94,29.7140047 93.8433349,30.4973302 93.53,31.124 C93.2793321,31.6253358 92.9346689,31.9699991 92.496,32.158 C92.2453321,32.3460009 92.057334,32.44 91.932,32.44 C91.1799962,32.6280009 89.7386773,32.9413311 87.608,33.38 C84.599985,34.0066698 82.4693396,34.4139991 81.216,34.602 L80.558,34.602 L80.558,33.004 C80.558,30.9986566 79.821674,29.259674 78.349,27.787 C76.876326,26.314326 75.0903438,25.578 72.991,25.578 C70.8916562,25.578 69.105674,26.314326 67.633,27.787 C66.160326,29.259674 65.424,30.9986566 65.424,33.004 L65.424,34.884 L20.774,35.542 L20.774,33.004 C20.774,30.9986566 20.037674,29.259674 18.565,27.787 C17.092326,26.314326 15.3063438,25.578 13.207,25.578 C11.1076562,25.578 9.32167403,26.314326 7.849,27.787 C6.37632597,29.259674 5.64,30.9986566 5.64,33.004 L5.64,34.696 L4.982,34.602 C3.03932362,34.1006642 1.69200376,33.3800047 0.94,32.44 C0.3133302,31.6253293 0,30.5600066 0,29.244 C0,28.4293293 0.12533208,27.7713358 0.376,27.27 C0.56400094,26.8939981 0.78333208,26.643334 1.034,26.518 L1.504,23.792 L1.504,23.51 C1.56666698,22.7579962 1.80166463,22.2253349 2.209,21.912 C2.61633537,21.5986651 3.66599154,21.0973368 5.358,20.408 C6.42333866,19.9693311 8.55398402,19.4993358 11.75,18.998 C14.1313452,18.5593311 16.825985,18.1833349 19.834,17.87 C22.4033462,17.5566651 23.8759981,17.4 24.252,17.4 L24.346,17.4 C24.9100028,17.4 25.4739972,17.3530005 26.038,17.259 C26.6020028,17.1649995 26.946666,17.055334 27.072,16.93 C27.5733358,16.4286642 29.327985,15.3006754 32.336,13.546 C35.594683,11.6659906 38.0073255,10.4440028 39.574,9.88 C41.4540094,9.19066322 43.5219887,8.70500141 45.778,8.423 C48.0340113,8.14099859 50.8853161,8 54.332,8 C57.7786839,8 61.131317,8.21933114 64.39,8.658 C66.8966792,9.03400188 68.6826613,9.40999812 69.748,9.786 C70.6253377,10.0366679 73.7899727,11.5093199 79.242,14.204 L81.216,15.144 C85.5400216,15.144 88.1719953,15.175333 89.112,15.238 C89.7386698,15.300667 90.2713311,15.5826642 90.71,16.084 C90.9606679,16.4600019 91.117333,16.8673311 91.18,17.306 L91.18,19.092 C91.6813358,20.2200056 91.932,21.7866566 91.932,23.792 L92.308,24.074 C92.6213349,24.2620009 92.809333,24.387333 92.872,24.45 Z M2.444,32.346 C2.69466792,32.346 2.88266604,32.1893349 3.008,31.876 C3.13333396,31.5626651 3.196,31.1553358 3.196,30.654 C3.196,30.1526642 3.13333396,29.7453349 3.008,29.432 C2.88266604,29.1186651 2.71033443,28.962 2.491,28.962 C2.27166557,28.962 2.09933396,29.1186651 1.974,29.432 C1.84866604,29.7453349 1.786,30.1526642 1.786,30.654 C1.786,31.1553358 1.84866604,31.5626651 1.974,31.876 C2.09933396,32.1893349 2.25599906,32.346 2.444,32.346 Z M6.298,23.604 C6.73666886,23.1653311 6.956,22.914667 6.956,22.852 C6.956,22.789333 6.7993349,22.695334 6.486,22.57 C6.1726651,22.444666 5.89066792,22.382 5.64,22.382 C5.38933208,22.382 4.88800376,22.5073321 4.136,22.758 C3.38399624,23.0086679 2.72600282,23.2906651 2.162,23.604 C1.78599812,24.2933368 1.50400094,25.3899925 1.316,26.894 C2.2560047,26.831333 3.72865664,25.9226754 5.734,24.168 L6.298,23.604 Z M49.35,17.87 L50.196,10.632 C47.3133189,10.757334 45.1200075,10.9766651 43.616,11.29 C41.6106566,11.7286689 39.5740103,12.5119944 37.506,13.64 C35.4379897,14.7680056 32.6806839,16.6166538 29.234,19.186 L37.13,18.622 C42.3940263,18.3086651 46.4673189,18.0580009 49.35,17.87 Z M52.17,17.682 L55.178,17.494 C63.1993734,16.9926642 68.3379887,16.679334 70.594,16.554 C70.1553311,15.6139953 69.2153405,14.7053377 67.774,13.828 C65.8939906,12.6999944 64.1393415,11.9166689 62.51,11.478 C60.3166557,10.9139972 57.4026848,10.632 53.768,10.632 L52.452,10.632 L52.17,17.682 Z M90.804,23.886 C90.866667,23.4473311 90.866667,22.8520038 90.804,22.1 C90.678666,21.0346613 90.4593349,20.1886698 90.146,19.562 C88.8299934,19.562 87.5453396,19.6559991 86.292,19.844 C85.8533311,19.906667 85.571334,20.0633321 85.446,20.314 C85.383333,20.376667 85.383333,20.439333 85.446,20.502 L85.54,20.69 L86.95,21.912 C87.8273377,22.7266707 88.4226651,23.2279991 88.736,23.416 L89.676,23.886 L90.804,23.886 Z M13.348,26.518 C15.2280094,26.518 16.8259934,27.1916599 18.142,28.539 C19.4580066,29.8863401 20.116,31.4999906 20.116,33.38 C20.116,35.2600094 19.4580066,36.8736599 18.142,38.221 C16.8259934,39.5683401 15.2123429,40.242 13.301,40.242 C11.3896571,40.242 9.77600658,39.5683401 8.46,38.221 C7.14399342,36.8736599 6.486,35.2600094 6.486,33.38 C6.486,31.4999906 7.14399342,29.8863401 8.46,28.539 C9.77600658,27.1916599 11.4053236,26.518 13.348,26.518 Z M13.348,37.14 C14.3506717,37.14 15.2123297,36.7640038 15.933,36.012 C16.6536703,35.2599962 17.014,34.3826717 17.014,33.38 C17.014,32.3773283 16.6536703,31.5156703 15.933,30.795 C15.2123297,30.0743297 14.3350052,29.714 13.301,29.714 C12.2669948,29.714 11.3896703,30.0743297 10.669,30.795 C9.94832973,31.5156703 9.588,32.3773283 9.588,33.38 C9.588,34.3826717 9.96399624,35.2599962 10.716,36.012 C11.4680038,36.7640038 12.3453283,37.14 13.348,37.14 Z M73.132,26.518 C75.0746764,26.518 76.7039934,27.1916599 78.02,28.539 C79.3360066,29.8863401 79.994,31.4999906 79.994,33.38 C79.994,35.2600094 79.3360066,36.8736599 78.02,38.221 C76.7039934,39.5683401 75.0903429,40.242 73.179,40.242 C71.2676571,40.242 69.6540066,39.5683401 68.338,38.221 C67.0219934,36.8736599 66.364,35.2600094 66.364,33.38 C66.364,31.4999906 67.0219934,29.8863401 68.338,28.539 C69.6540066,27.1916599 71.2519906,26.518 73.132,26.518 Z M73.132,37.14 C74.1973387,37.14 75.0903297,36.7640038 75.811,36.012 C76.5316703,35.2599962 76.892,34.3826717 76.892,33.38 C76.892,32.3773283 76.5316703,31.5156703 75.811,30.795 C75.0903297,30.0743297 74.2130052,29.714 73.179,29.714 C72.1449948,29.714 71.2676703,30.0743297 70.547,30.795 C69.8263297,31.5156703 69.466,32.3773283 69.466,33.38 C69.466,34.3826717 69.8263297,35.2599962 70.547,36.012 C71.2676703,36.7640038 72.1293283,37.14 73.132,37.14 Z" id="1"></path>
            </g>
        </g>
    </g>
</svg>