<?xml version="1.0" encoding="UTF-8"?>
<svg width="37px" height="31px" viewBox="0 0 37 31" version="1.1" xmlns="http://www.w3.org/2000/svg" xmlns:xlink="http://www.w3.org/1999/xlink">
    <!-- Generator: Sketch 49.3 (51167) - http://www.bohemiancoding.com/sketch -->
    <title>ic-car copy</title>
    <desc>Created with Sketch.</desc>
    <defs></defs>
    <g id="Salepage" stroke="none" stroke-width="1" fill="none" fill-rule="evenodd">
        <g id="Sale-page/Desktop/d-salepage-selection-Copy" transform="translate(-559.000000, -308.000000)" stroke="#979797">
            <g id="sell-your-car" transform="translate(0.000000, 109.000000)">
                <g id="vehicle" transform="translate(355.000000, 175.000000)">
                    <g id="Tabs/Desktop/Sell-page/m-tabs">
                        <g id="step-vehicle" transform="translate(182.000000, 0.000000)">
                            <g id="ic-car-copy" transform="translate(23.126374, 24.000000)">
                                <path d="M16.7730627,8.1808571 C15.8760085,8.1808571 15.1488024,8.86154635 15.1488024,9.70121909 L15.1488024,27.2939793 C15.1488024,28.133652 15.8760085,28.8143413 16.7730627,28.8143413 L31.3914059,28.8143413 C32.2884602,28.8143413 33.0156663,28.133652 33.0156663,27.2939793 L33.0156663,9.70121909 C33.0156663,8.86154635 32.2884602,8.1808571 31.3914059,8.1808571 L16.7730627,8.1808571 Z M16.7730627,7.4206761 L31.3914059,7.4206761 C32.7369873,7.4206761 33.8277965,8.44170998 33.8277965,9.70121909 L33.8277965,27.2939793 C33.8277965,28.5534884 32.7369873,29.5745223 31.3914059,29.5745223 L16.7730627,29.5745223 C15.4274814,29.5745223 14.3366722,28.5534884 14.3366722,27.2939793 L14.3366722,9.70121909 C14.3366722,8.44170998 15.4274814,7.4206761 16.7730627,7.4206761 Z" id="Rectangle-4" stroke-width="0.5" fill="#A0A0A0" fill-rule="nonzero" transform="translate(24.082234, 18.497599) rotate(10.000000) translate(-24.082234, -18.497599) "></path>
                                <path d="M13.1866918,24.2938702 C10.6518064,24.8210637 8.85888094,25.1867488 7.8079156,25.3909255 C6.2314676,25.6971905 4.28067834,24.6979417 3.99516383,23.4201472 C3.3663521,21.1920072 0.880563022,9.66413762 0.30013014,6.7574369 C0.30013014,5.52471454 0.676624082,3.89310397 2.09354652,3.53838642 C3.49109475,3.22941707 14.8925278,1.12545072 16.0760534,0.841496394 C17.2203775,0.841496394 18.933238,1.09570313 19.2763086,2.35839844 C19.5000371,3.50007512 19.8238469,4.96642127 20.2477377,6.7574369" id="Path-2" stroke-width="1.3"></path>
                            </g>
                        </g>
                    </g>
                </g>
            </g>
        </g>
    </g>
</svg>