<?xml version="1.0" encoding="UTF-8"?>
<svg width="44px" height="44px" viewBox="0 0 44 44" version="1.1" xmlns="http://www.w3.org/2000/svg" xmlns:xlink="http://www.w3.org/1999/xlink">
    <!-- Generator: Sketch 51.3 (57544) - http://www.bohemiancoding.com/sketch -->
    <title>steering-wheel</title>
    <desc>Created with Sketch.</desc>
    <defs></defs>
    <g id="Salepage" stroke="none" stroke-width="1" fill="none" fill-rule="evenodd">
        <g id="Sale-page-spare-parts-ECV" transform="translate(-526.000000, -738.000000)" fill="#264AA1" fill-rule="nonzero" stroke="#FFFFFF" stroke-width="0.8">
            <g id="sell-your-car" transform="translate(0.000000, 109.000000)">
                <g id="vehicle" transform="translate(354.000000, 175.000000)">
                    <g id="Group-5-Copy" transform="translate(141.000000, 177.000000)">
                        <g id="Group-6">
                            <g id="Group-3-Copy-3" transform="translate(0.000000, 264.000000)">
                                <g id="steering-wheel" transform="translate(32.000000, 14.000000)">
                                    <path d="M21,0 C9.436875,0 0,9.43761328 0,21 C0,32.563125 9.43761328,42 21,42 C32.563125,42 42,32.5623867 42,21 C42,9.436875 32.5623867,0 21,0 Z M21,39.5390625 C10.7775117,39.5390625 2.4609375,31.2224883 2.4609375,21 C2.4609375,10.7775117 10.7775117,2.4609375 21,2.4609375 C31.2224883,2.4609375 39.5390625,10.7775117 39.5390625,21 C39.5390625,31.2224883 31.2224883,39.5390625 21,39.5390625 Z" id="Shape"></path>
                                    <path d="M21,5.00390625 C12.1623633,5.00390625 5.00390625,12.2005898 5.00390625,21 C5.00390625,21.0529922 5.00538281,21.1055742 5.005875,21.1584844 C5.00595703,21.1799766 5.00546484,21.2013867 5.00669531,21.223043 C5.12711719,29.9756953 12.2894297,36.9960937 21,36.9960937 C29.8533867,36.9960937 36.9960937,29.7834961 36.9960937,21 C36.9960937,12.1973086 29.8342734,5.00390625 21,5.00390625 Z M21,7.46484375 C26.2493437,7.46484375 30.8102812,10.4686641 33.0543281,14.8476562 L8.94567187,14.8476562 C11.1897187,10.4686641 15.7506562,7.46484375 21,7.46484375 Z M9.8818125,28.709707 C8.57997656,26.838082 7.73833594,24.6239766 7.52144531,22.2319453 C9.53088281,22.2623789 11.15625,23.9054648 11.15625,25.921875 C11.15625,27.0001758 10.675957,28.0168711 9.8818125,28.709707 Z M21,34.5351562 C18.9882656,34.5351562 17.0780039,34.0933359 15.3601875,33.3027187 C16.3238906,31.0901719 18.5221641,29.6132812 21,29.6132812 C23.4778359,29.6132812 25.6761094,31.0901719 26.6398125,33.3027187 C24.9219961,34.0933359 23.0117344,34.5351562 21,34.5351562 Z M28.7810742,32.0687227 C27.3776016,29.1098555 24.3741094,27.1523437 21,27.1523437 C17.6258906,27.1523437 14.6223984,29.1098555 13.2189258,32.0687227 C12.5923711,31.6269844 12.0046992,31.1335664 11.4624727,30.594457 C12.8043398,29.4397031 13.6171875,27.7329609 13.6171875,25.921875 C13.6171875,22.5483398 10.8876797,19.8015234 7.52119922,19.7709258 C7.59765234,18.9255937 7.75121484,18.1022461 7.97647266,17.3085937 L34.0233633,17.3085937 C34.2487031,18.1022461 34.4023477,18.9256758 34.4788008,19.7709258 C31.1123203,19.8015234 28.3828125,22.5483398 28.3828125,25.921875 C28.3828125,27.7329609 29.1956602,29.4397031 30.5375273,30.594457 C29.9953008,31.1335664 29.4076289,31.6269844 28.7810742,32.0687227 Z M32.1181875,28.709707 C31.324043,28.0168711 30.84375,27.0001758 30.84375,25.921875 C30.84375,23.9054648 32.4691172,22.2623789 34.4785547,22.2319453 C34.2616641,24.6239766 33.4200234,26.838082 32.1181875,28.709707 Z" id="Shape"></path>
                                    <path d="M21,18.5390625 C18.9645586,18.5390625 17.3085938,20.1950273 17.3085938,22.2304687 C17.3085938,24.2659102 18.9645586,25.921875 21,25.921875 C23.0354414,25.921875 24.6914062,24.2659102 24.6914062,22.2304687 C24.6914062,20.1950273 23.0354414,18.5390625 21,18.5390625 Z M21,23.4609375 C20.3215195,23.4609375 19.7695312,22.9089492 19.7695312,22.2304687 C19.7695312,21.5519883 20.3215195,21 21,21 C21.6784805,21 22.2304687,21.5519883 22.2304687,22.2304687 C22.2304687,22.9089492 21.6784805,23.4609375 21,23.4609375 Z" id="Shape"></path>
                                </g>
                            </g>
                        </g>
                    </g>
                </g>
            </g>
        </g>
    </g>
</svg>