<?xml version="1.0" encoding="UTF-8"?>
<svg width="46px" height="44px" viewBox="0 0 46 44" version="1.1" xmlns="http://www.w3.org/2000/svg" xmlns:xlink="http://www.w3.org/1999/xlink">
    <!-- Generator: Sketch 51.3 (57544) - http://www.bohemiancoding.com/sketch -->
    <title>damper</title>
    <desc>Created with Sketch.</desc>
    <defs></defs>
    <g id="Salepage" stroke="none" stroke-width="1" fill="none" fill-rule="evenodd">
        <g id="Sale-page-spare-parts-ECV" transform="translate(-869.000000, -604.000000)" fill="#264AA1" fill-rule="nonzero" stroke="#264AA1" stroke-width="0.1">
            <g id="sell-your-car" transform="translate(0.000000, 109.000000)">
                <g id="vehicle" transform="translate(354.000000, 175.000000)">
                    <g id="Group-5-Copy" transform="translate(141.000000, 177.000000)">
                        <g id="Group-6">
                            <g id="Group-3-Copy" transform="translate(345.000000, 131.000000)">
                                <g id="damper" transform="translate(30.000000, 13.000000)">
                                    <path d="M43.3511404,1.49903509 C41.4395614,-0.383421053 38.3442982,-0.493421053 36.3045614,1.24833333 C34.7874561,2.54385965 34.1391228,4.60938596 34.6373684,6.53482456 L33.0353509,8.03789474 L32.5626316,7.53403509 C32.0545614,6.99254386 31.2007895,6.96535088 30.6592982,7.47342105 L29.9235965,8.16368421 C29.8367544,8.24508772 29.7635965,8.33675439 29.702193,8.43508772 C29.547193,8.39421053 29.3864912,8.37 29.2222807,8.36473684 C28.6519298,8.34596491 28.1110526,8.55122807 27.6958772,8.94078947 L26.6662281,9.90684211 C26.1882456,10.3555263 26.1400877,11.0924561 26.5372807,11.5987719 L21.2440351,16.5653509 C21.0083333,16.7864912 20.872807,17.0861404 20.8625439,17.4091228 C20.8522807,17.732193 20.9684211,18.0398246 21.1894737,18.2755263 L21.8566667,18.9866667 L20.9365789,19.85 L19.7085965,18.9784211 C19.3246491,18.7059649 18.8574561,18.5992982 18.3935088,18.6780702 C17.929386,18.7569298 17.5235965,19.0117544 17.2512281,19.3957018 C16.7678947,20.0768421 16.8314035,21.0127193 17.4022807,21.6211404 C17.4827193,21.7068421 17.5722807,21.7849123 17.6684211,21.8530702 L18.3136842,22.3110526 L17.7012281,22.8857018 L16.4732456,22.0141228 C15.6807018,21.4515789 14.5783333,21.6386842 14.0157895,22.4313158 C13.5324561,23.1123684 13.5959649,24.0482456 14.1668421,24.6566667 C14.2471053,24.7422807 14.3366667,24.8203509 14.4329825,24.8886842 L15.0782456,25.3466667 L14.53,25.8610526 L13.3020175,24.9894737 C12.9180702,24.7170175 12.4507895,24.6100877 11.9869298,24.6891228 C11.5227193,24.7678947 11.1170175,25.022807 10.8445614,25.4067544 C10.3612281,26.0878947 10.4247368,27.0237719 10.995614,27.632193 C11.0760526,27.7178947 11.165614,27.7960526 11.2617544,27.8642105 L11.9070175,28.322193 L11.3739474,28.8223684 L10.787807,28.1976316 C10.1177193,27.4834211 8.99122807,27.4475439 8.27719298,28.1176316 L8.16807018,28.2199123 C7.45385965,28.89 7.41789474,30.0164035 8.08815789,30.730614 L8.4445614,31.1105263 L6.84263158,32.6136842 C4.95254386,31.9937719 2.85017544,32.5094737 1.46078947,33.9411404 C-0.407368421,35.8659649 -0.494385965,38.9619298 1.26263158,40.989386 C2.20368421,42.0752632 3.51026316,42.7140351 4.94192982,42.7879825 C5.03482456,42.7927193 5.12736842,42.7951754 5.2195614,42.7951754 C6.54982456,42.7951754 7.80666667,42.2987719 8.7845614,41.3812281 C10.1832456,40.0688596 10.7458772,38.115 10.2654386,36.2615789 L11.8673684,34.7585088 L12.2237719,35.1383333 C12.5484211,35.4842982 12.9883333,35.6832456 13.4626316,35.6982456 C13.4820175,35.6988596 13.5012281,35.6991228 13.5205263,35.6991228 C13.9735088,35.6991228 14.4026316,35.5295614 14.7345614,35.2181579 L14.8435088,35.1159649 C15.1894737,34.7913158 15.3884211,34.3514035 15.4035088,33.877193 C15.4186842,33.4029825 15.2481579,32.9512281 14.9235088,32.6052632 L14.4660526,32.1177193 L15.6671053,30.9907895 L17.0515789,31.9734211 C17.3529825,32.1873684 17.705614,32.2990351 18.0679825,32.2990351 C18.1671053,32.2990351 18.2671053,32.2907018 18.3667544,32.2737719 C18.8308772,32.1949123 19.2366667,31.9400877 19.5090351,31.5562281 C20.0714912,30.7638596 19.8844737,29.6614912 19.0919298,29.0987719 L18.2901754,28.5297368 L18.8384211,28.0153509 L20.2228947,28.9979825 C20.5318421,29.2172807 20.8877193,29.3226316 21.240614,29.3225439 C21.792807,29.3225439 22.337193,29.0642982 22.6804386,28.5807895 C23.242807,27.7885088 23.0557018,26.6861404 22.2632456,26.1232456 L21.4615789,25.5542105 L22.0740351,24.9795614 L23.4585088,25.962193 C23.7599123,26.1761404 24.1124561,26.287807 24.4749123,26.287807 C24.5740351,26.287807 24.6740351,26.2794737 24.7736842,26.2625439 C25.237807,26.1836842 25.6435965,25.9288596 25.9159649,25.545 C26.1884211,25.1611404 26.2951754,24.6940351 26.2164035,24.2299123 C26.1376316,23.7657018 25.8827193,23.3599123 25.4987719,23.0876316 L24.6971053,22.5185965 L24.9492105,22.2820175 L25.6164912,22.9931579 C25.8376316,23.2287719 26.137193,23.3642982 26.4601754,23.3745614 C26.4734211,23.375 26.4864912,23.3751754 26.4996491,23.3751754 C26.8081579,23.3751754 27.1005263,23.2596491 27.3265789,23.0476316 L32.6197368,18.0812281 C32.8394737,18.2777193 33.1180702,18.3903509 33.4162281,18.3998246 C33.4299123,18.4002632 33.4436842,18.4004386 33.457193,18.4004386 C33.7778947,18.4004386 34.0816667,18.2804386 34.3165789,18.06 L35.3461404,17.0939474 C35.9509649,16.5264912 36.1483333,15.6870175 35.9309649,14.9404386 C36.0025439,14.8953509 36.0708772,14.8429825 36.1348246,14.7829825 L36.8705263,14.0927193 C37.1328947,13.8466667 37.2835965,13.5130702 37.295,13.1535965 C37.3064912,12.7940351 37.1772807,12.4516667 36.9311404,12.189386 L36.4584211,11.6855263 L38.0604386,10.1824561 C39.879386,10.7797368 41.8650877,10.3426316 43.2639474,9.03026316 C44.3095614,8.04912281 44.895,6.71903509 44.9122807,5.285 C44.9292982,3.85192982 44.375,2.5072807 43.3511404,1.49903509 Z M9.28719298,35.3670175 C8.97298246,35.6616667 8.85035088,36.1050877 8.96701754,36.5240351 C9.35850877,37.9292105 8.94201754,39.4212281 7.88,40.4175439 C7.09903509,41.1502632 6.07991228,41.5230702 5.01008772,41.4680702 C3.94105263,41.4128947 2.96491228,40.9355263 2.26157895,40.1239474 C0.949824561,38.6101754 1.01464912,36.2989474 2.40929825,34.8620175 C3.15631579,34.0922807 4.17903509,33.6770175 5.22008772,33.6770175 C5.64947368,33.6770175 6.08192982,33.7477193 6.49938596,33.8932456 C6.90921053,34.0363158 7.35894737,33.9420175 7.67315789,33.647193 L9.34894737,32.0747368 L10.9627193,33.7947368 L9.28719298,35.3670175 Z M13.9388596,34.1523684 L13.8299123,34.2545614 C13.7414035,34.3375439 13.6262281,34.3807895 13.5045614,34.3773684 C13.3833333,34.3735088 13.2707895,34.3226316 13.1877193,34.2341228 L9.05210526,29.8264912 C8.88070175,29.6437719 8.88982456,29.3557018 9.07245614,29.1842982 L9.18157895,29.0820175 C9.26640351,29.0023684 9.37622807,28.9590351 9.49210526,28.9590351 C9.49701754,28.9590351 9.50201754,28.9591228 9.50692982,28.9592105 C9.62815789,28.9630702 9.74070175,29.0139474 9.82385965,29.1024561 L13.9594737,33.5100877 C14.0424561,33.5985965 14.0861404,33.7141228 14.082193,33.8354386 C14.0782456,33.9567544 14.0273684,34.069386 13.9388596,34.1523684 Z M13.5614912,31.1541228 L12.2784211,29.7866667 L13.0068421,29.1031579 L14.5670175,30.2105263 L13.5614912,31.1541228 Z M18.3266667,30.1770175 C18.3274561,30.1776316 18.3376316,30.185614 18.3435965,30.1904386 L18.3266667,30.1770175 C18.5246491,30.3177193 18.5715789,30.5934211 18.4308772,30.7914912 C18.3627193,30.8874561 18.2613158,30.9511404 18.1452632,30.9708772 C18.0294737,30.9903509 17.9124561,30.9639474 17.8165789,30.8957895 L12.0267544,26.7864912 C12.0023684,26.7692105 11.9798246,26.7495614 11.9596491,26.7280702 L11.9596491,26.7279825 C11.817193,26.5763158 11.8017544,26.3425439 11.9226316,26.172193 C11.9907895,26.0762281 12.092193,26.0125439 12.2081579,25.9928947 C12.2330702,25.9886842 12.2580702,25.9865789 12.2828947,25.9865789 C12.3735088,25.9865789 12.4616667,26.0144737 12.5370175,26.0679825 L18.3266667,30.1770175 Z M15.6299123,26.642193 L16.1781579,26.127807 L17.7383333,27.2351754 L17.1900877,27.7494737 L15.6299123,26.642193 Z M21.4964912,27.200614 C21.4977193,27.2014912 21.4964912,27.200614 21.4977193,27.2014035 C21.6957895,27.3422807 21.7427193,27.6179825 21.6021053,27.8159649 C21.4614912,28.0141228 21.1858772,28.0609649 20.9877193,27.9203509 L15.1981579,23.8112281 C15.1736842,23.7938596 15.1509649,23.7741228 15.1307895,23.7525439 C14.9885088,23.6007895 14.9728947,23.3670175 15.0936842,23.1967544 C15.1795614,23.0757895 15.3157018,23.0112281 15.4536842,23.0112281 C15.5418421,23.0112281 15.6307895,23.0375439 15.7080702,23.0923684 L21.4964912,27.200614 Z M18.8010526,23.6666667 L19.4135088,23.0920175 L20.9737719,24.199386 L20.3613158,24.7740351 L18.8010526,23.6666667 Z M24.7334211,24.1660526 C24.8292982,24.2340351 24.8929825,24.3354386 24.9126316,24.4514912 C24.9323684,24.5675439 24.9057018,24.6842982 24.8375439,24.7802632 C24.769386,24.8762281 24.6679825,24.9399123 24.5519298,24.9596491 C24.4361404,24.9792105 24.3192105,24.9527193 24.2232456,24.8845614 C24.2221053,24.8837719 24.225614,24.8862281 24.224386,24.8854386 L18.4333333,20.7754386 C18.4089474,20.7581579 18.3864035,20.7385088 18.3662281,20.7170175 C18.2237719,20.5652632 18.2083333,20.3315789 18.3292105,20.1612281 C18.3973684,20.0652632 18.4987719,20.0015789 18.6148246,19.9818421 C18.6397368,19.9776316 18.6647368,19.9755263 18.6895614,19.9755263 C18.7801754,19.9755263 18.8682456,20.0034211 18.9435965,20.0569298 L24.7334211,24.1660526 Z M22.0365789,20.6308772 L22.7613158,19.9508772 L24.044386,21.3183333 L23.5967544,21.7382456 L22.0365789,20.6308772 Z M34.4414035,16.1302632 L33.4587719,17.052193 L32.4121053,15.9366667 C32.1623684,15.6704386 31.7440351,15.657193 31.4778947,15.9069298 C31.2117544,16.1566667 31.1983333,16.575 31.4481579,16.8411404 L31.7109649,17.1212281 L26.5035088,22.007193 L22.2302632,17.4528947 L27.4377193,12.5668421 L29.6389474,14.9128947 C29.8886842,15.1791228 30.3070175,15.1923684 30.5731579,14.9426316 C30.8392982,14.6928947 30.8527193,14.2745614 30.6028947,14.0084211 L27.617807,10.8269298 L28.6004386,9.905 C28.7582456,9.75692982 28.9653509,9.67947368 29.1803509,9.68614035 C29.3965789,9.69298246 29.5971053,9.78368421 29.7451754,9.94140351 L34.4778947,14.9855263 C34.7833333,15.3112281 34.7670175,15.8247368 34.4414035,16.1302632 Z M35.9657018,13.1290351 L35.23,13.8192982 C35.22,13.8285965 35.204386,13.8279825 35.1950877,13.8181579 L30.8270175,9.1627193 C30.8248246,9.16035088 30.8200877,9.15535088 30.8203509,9.145 C30.8207018,9.13473684 30.8257018,9.13008772 30.8280702,9.12780702 L31.5637719,8.43754386 C31.5660526,8.43535088 31.5708772,8.43087719 31.5804386,8.43087719 C31.5807895,8.43087719 31.5810526,8.43087719 31.5814035,8.43087719 C31.5916667,8.43122807 31.5963158,8.43622807 31.5985965,8.43859649 L35.9667544,13.0941228 C35.9689474,13.0964912 35.9736842,13.1014912 35.9734211,13.1117544 C35.9731579,13.1220175 35.9681579,13.1267544 35.9657018,13.1290351 Z M42.3592105,8.06666667 C41.297193,9.06315789 39.7817544,9.38377193 38.404386,8.90377193 C37.9938596,8.76070175 37.5435088,8.85482456 37.2294737,9.14964912 L35.5537719,10.7219298 L33.94,9.00192982 L35.6159649,7.42938596 C35.9300877,7.1345614 36.0527193,6.69175439 35.9360526,6.27359649 C35.5294737,4.81535088 36.0110526,3.23736842 37.1631579,2.25350877 C38.6857018,0.953245614 40.9966667,1.0354386 42.4238596,2.44078947 C43.1889474,3.19429825 43.6032456,4.19885965 43.5902632,5.26921053 C43.5772807,6.3404386 43.1400877,7.33394737 42.3592105,8.06666667 Z" id="Shape"></path>
                                    <path d="M41.5988596,3.55350877 C40.6511404,2.54359649 39.0585965,2.49289474 38.0487719,3.44052632 C37.5594737,3.8995614 37.2782456,4.52166667 37.2569298,5.19210526 C37.235614,5.86263158 37.4766667,6.50131579 37.9357018,6.99061404 C38.3947368,7.47991228 39.0168421,7.76114035 39.6872807,7.78245614 C39.7147368,7.78333333 39.7420175,7.78377193 39.7692105,7.78377193 C40.4096491,7.78377193 41.0164912,7.54394737 41.4857018,7.10368421 C42.4957018,6.15614035 42.5464912,4.56359649 41.5988596,3.55350877 Z M40.5813158,6.13982456 C40.1028947,6.58877193 39.3485088,6.5645614 38.8995614,6.08622807 C38.682193,5.85447368 38.5679825,5.55192982 38.5780702,5.23429825 C38.5881579,4.91666667 38.7214035,4.62210526 38.9531579,4.4045614 C39.1823684,4.1895614 39.4749123,4.08298246 39.7668421,4.08298246 C40.0842982,4.08298246 40.4009649,4.20894737 40.6348246,4.45807018 C41.0837719,4.93649123 41.0596491,5.69087719 40.5813158,6.13982456 Z" id="Shape"></path>
                                    <path d="M7.08763158,35.9346491 C6.62859649,35.4453509 6.00649123,35.1641228 5.33605263,35.142807 C4.66622807,35.1217544 4.02684211,35.3626316 3.53754386,35.8215789 C3.04833333,36.280614 2.76710526,36.9027193 2.74578947,37.5732456 C2.72438596,38.2437719 2.96552632,38.8824561 3.4245614,39.3717544 C3.88359649,39.8610526 4.50570175,40.1422807 5.17614035,40.1635965 C5.20350877,40.1644737 5.23087719,40.1649123 5.25807018,40.1649123 C5.89850877,40.1649123 6.50535088,39.9250877 6.9745614,39.4848246 C7.46377193,39.0257895 7.745,38.4036842 7.76631579,37.7331579 C7.78780702,37.0626316 7.54666667,36.4239474 7.08763158,35.9346491 Z M6.07008772,38.5207018 C5.59166667,38.9696491 4.8372807,38.9455263 4.38833333,38.467193 C4.17096491,38.2355263 4.05675439,37.9328947 4.06684211,37.6152632 C4.07701754,37.2976316 4.21017544,37.0029825 4.44192982,36.7855263 C4.67114035,36.5705263 4.96359649,36.4640351 5.25561404,36.4640351 C5.57307018,36.4640351 5.88973684,36.59 6.12368421,36.8391228 C6.34105263,37.0707895 6.45526316,37.3734211 6.44517544,37.6910526 C6.435,38.0085965 6.30184211,38.3033333 6.07008772,38.5207018 Z" id="Shape"></path>
                                    <path d="M28.4234211,13.9822807 C28.1736842,13.7161404 27.7553509,13.702807 27.4892105,13.9525439 L23.7617544,17.4499123 C23.4955263,17.6996491 23.482193,18.1179825 23.7320175,18.3841228 C23.8621053,18.5227193 24.0378947,18.592807 24.2141228,18.592807 C24.3762281,18.592807 24.5386842,18.5335088 24.6662281,18.4138596 L28.3936842,14.9164912 C28.6599123,14.6667544 28.6732456,14.2484211 28.4234211,13.9822807 Z" id="Shape"></path>
                                </g>
                            </g>
                        </g>
                    </g>
                </g>
            </g>
        </g>
    </g>
</svg>