<?xml version="1.0" encoding="UTF-8" standalone="no"?>
<svg width="72px" height="41px" viewBox="0 0 72 41" version="1.1" xmlns="http://www.w3.org/2000/svg" xmlns:xlink="http://www.w3.org/1999/xlink">
    <!-- Generator: Sketch 48.2 (47327) - http://www.bohemiancoding.com/sketch -->
    <title>4</title>
    <desc>Created with Sketch.</desc>
    <defs></defs>
    <g id="Page-1" stroke="none" stroke-width="1" fill="none" fill-rule="evenodd">
        <g id="sprite-bodytypes" transform="translate(-385.000000, -174.000000)" fill="#232323" fill-rule="nonzero">
            <g id="trucks" transform="translate(0.000000, 168.000000)">
                <path d="M426.64585,27.4653699 C426.64585,26.8024942 426.858914,26.4710614 427.285048,26.4710614 L438.648575,26.4710614 C438.837968,26.4710614 438.991848,26.5657565 439.110218,26.7551495 C439.228589,26.9445426 439.287773,27.1812804 439.287773,27.4653699 C439.287773,27.7494595 439.228589,27.9743604 439.110218,28.1400793 C438.991848,28.3057983 438.837968,28.3886565 438.648575,28.3886565 L435.949738,28.3886565 L435.949738,29.6670532 L429.912864,29.6670532 L429.912864,28.3886565 L427.214026,28.3886565 C426.83524,28.3886565 426.64585,28.0808974 426.64585,27.4653699 Z M456.119997,35.1357504 L456.119997,40.6044476 L455.267733,40.6044476 L455.267733,39.539117 L453.77627,39.539117 L453.77627,38.9709406 C453.77627,37.5031444 453.409326,36.1419023 452.675428,34.8871733 C451.94153,33.6324443 450.947232,32.6381456 449.692503,31.9042475 C448.437774,31.1703494 447.076531,30.8034059 445.608735,30.8034059 C444.140939,30.8034059 442.779697,31.1703494 441.524968,31.9042475 C440.270239,32.6381456 439.27594,33.6324443 438.542042,34.8871733 C437.808144,36.1419023 437.4412,37.5031444 437.4412,38.9709406 L437.4412,39.8232051 L414.145971,39.8232051 L414.145971,32.2948688 L426.432784,32.2948688 L426.432784,31.0874941 L438.648575,31.0874941 C440.637202,29.098867 442.957232,28.1045683 445.608735,28.1045683 C447.834104,28.1045683 449.834538,28.7911079 451.610098,30.1642075 C453.385658,31.5373072 454.604857,33.3128405 455.267733,35.4908606 L455.267733,35.1357504 L456.119997,35.1357504 Z M428.847533,37.1953896 L427.285048,37.1953896 L427.285048,38.6868525 L428.847533,38.6868525 L428.847533,37.1953896 Z M434.742363,37.1953896 L433.108856,37.1953896 L433.108856,38.6868525 L434.742363,38.6868525 L434.742363,37.1953896 Z M396.177394,39.539117 C396.177394,40.9122166 396.46148,42.1669268 397.029659,43.3032852 L388.080882,43.3032852 C387.323309,43.3032852 386.778813,43.0428736 386.447375,42.5220427 C386.257982,42.2379531 386.139613,41.7881514 386.092264,41.1726239 L385.95022,40.1072933 C385.808176,39.4444176 385.666133,37.8819483 385.524088,35.4198386 C385.334695,32.6736392 385.24,30.1642189 385.24,27.8915022 C385.24,25.0032581 385.382043,22.9673132 385.666132,21.7836066 L385.666132,21.6415626 L387.725771,21.8546287 C388.009861,21.9019769 388.258436,21.8427925 388.471503,21.6770736 C388.68457,21.5113547 388.791102,21.2864538 388.791102,21.0023642 L389.714389,12.4797192 C389.761737,12.2429779 389.702552,12.018077 389.536834,11.8050098 C389.371115,11.5919426 389.146214,11.4617369 388.862124,11.4143886 L388.00986,11.3433666 L388.222926,10.6331461 C388.364971,10.064967 388.459666,9.70986032 388.507014,9.56781553 C388.838452,8.57350198 389.501318,7.91063622 390.495631,7.57919837 C391.06381,7.38980531 392.081783,7.29511021 393.549579,7.29511021 C395.443509,7.29511021 397.905582,7.22408888 400.935871,7.08204408 L407.398877,6.94 C408.535235,6.94 409.50586,7.41347554 410.310781,8.36044083 C410.973656,9.16536132 411.305089,9.97026974 411.305089,10.7751902 L411.305089,32.649979 C409.600552,31.1821828 407.611954,30.4482957 405.339238,30.4482957 C403.682048,30.4482957 402.15509,30.8507499 400.758316,31.6556704 C399.361542,32.4605909 398.248875,33.5614215 397.42028,34.9581953 C396.591685,36.3549691 396.177394,37.8819277 396.177394,39.539117 Z M387.938838,36.0590369 C387.938838,35.8696439 387.855979,35.7039275 387.69026,35.5618827 C387.524542,35.4198379 387.346988,35.3488165 387.157595,35.3488165 L386.234309,35.3488165 C386.376353,38.0003193 386.518396,39.5864624 386.660441,40.1072933 L386.660441,40.3203594 L387.157595,40.3203594 C387.394336,40.3203594 387.583727,40.2493381 387.725771,40.1072933 C387.867816,39.9652485 387.938838,39.7995321 387.938838,39.610139 L387.938838,36.0590369 Z M402.853466,26.1159512 C402.853466,25.8792098 402.735097,25.760841 402.498356,25.760841 L398.80521,25.760841 C398.568469,25.760841 398.4501,25.8792098 398.4501,26.1159512 L398.4501,27.1812818 C398.4501,27.4180231 398.568469,27.536392 398.80521,27.536392 L402.498356,27.536392 C402.735097,27.536392 402.853466,27.4180231 402.853466,27.1812818 L402.853466,26.1159512 Z M392.768336,21.7836066 C393.099774,21.7836066 394.283463,21.6889115 396.319438,21.4995185 L400.438717,21.2154303 C400.62811,21.168082 400.841174,21.1444083 401.077915,21.1444083 C401.693443,21.09706 402.202429,20.8248116 402.604889,20.3276548 C403.007349,19.830498 403.208576,19.2504905 403.208576,18.5876148 L403.208576,13.1899396 C403.208576,11.9115365 402.593058,11.2723445 401.362003,11.2723445 L394.472865,11.2723445 C393.147114,11.2723445 392.318532,11.8641889 391.987094,13.0478956 C391.845049,13.5213782 391.679333,14.705067 391.48994,16.5989976 C391.347895,18.2561869 391.276874,19.2978331 391.276874,19.7239674 C391.276874,21.0970671 391.774023,21.7836066 392.768336,21.7836066 Z M412.299398,39.539117 C412.299398,41.4330475 411.624695,43.0665382 410.27527,44.4396378 C408.925844,45.8127375 407.292353,46.499277 405.374749,46.499277 C403.457144,46.499277 401.811817,45.8127375 400.438717,44.4396378 C399.065617,43.0665382 398.379078,41.4212107 398.379078,39.503606 C398.379078,37.5860012 399.065617,35.9525106 400.438717,34.6030851 C401.811817,33.2536596 403.457144,32.5789569 405.374749,32.5789569 C407.292353,32.5789569 408.925844,33.2536596 410.27527,34.6030851 C411.624695,35.9525106 412.299398,37.5978381 412.299398,39.539117 Z M409.103406,39.539117 C409.103406,38.4974552 408.736462,37.6096885 408.002564,36.8757904 C407.268666,36.1418923 406.3809,35.7749488 405.339238,35.7749488 C404.297576,35.7749488 403.409809,36.1418923 402.675911,36.8757904 C401.942013,37.6096885 401.57507,38.4974552 401.57507,39.539117 C401.57507,40.5807788 401.942013,41.4685454 402.675911,42.2024435 C403.409809,42.9363416 404.297576,43.3032852 405.339238,43.3032852 C406.3809,43.3032852 407.268666,42.9363416 408.002564,42.2024435 C408.736462,41.4685454 409.103406,40.5807788 409.103406,39.539117 Z M452.568895,39.539117 C452.568895,41.4330475 451.894193,43.0665382 450.544767,44.4396378 C449.195341,45.8127375 447.561851,46.499277 445.644246,46.499277 C443.726641,46.499277 442.081314,45.8127375 440.708214,44.4396378 C439.335115,43.0665382 438.648575,41.4212107 438.648575,39.503606 C438.648575,37.5860012 439.335115,35.9525106 440.708214,34.6030851 C442.081314,33.2536596 443.726641,32.5789569 445.644246,32.5789569 C447.561851,32.5789569 449.195341,33.2536596 450.544767,34.6030851 C451.894193,35.9525106 452.568895,37.5978381 452.568895,39.539117 Z M449.372903,39.539117 C449.372903,38.4974552 449.00596,37.6096885 448.272062,36.8757904 C447.538164,36.1418923 446.650397,35.7749488 445.608735,35.7749488 C444.567073,35.7749488 443.679307,36.1418923 442.945409,36.8757904 C442.21151,37.6096885 441.844567,38.4974552 441.844567,39.539117 C441.844567,40.5807788 442.21151,41.4685454 442.945409,42.2024435 C443.679307,42.9363416 444.567073,43.3032852 445.608735,43.3032852 C446.650397,43.3032852 447.538164,42.9363416 448.272062,42.2024435 C449.00596,41.4685454 449.372903,40.5807788 449.372903,39.539117 Z" id="4"></path>
            </g>
        </g>
    </g>
</svg>