<svg xmlns="http://www.w3.org/2000/svg" xmlns:xlink="http://www.w3.org/1999/xlink" width="18" height="19" viewBox="0 0 18 19"><defs><path id="ohcwa" d="M1074.56 1372.75c.03-2.6-2.19-4.99-4.94-5.32l-.17-.02a2.57 2.57 0 0 0-.42-.05c-.57 0-.72.4-.76.63-.03.23 0 .42.11.57.19.26.52.3.78.34.08 0 .15.02.21.03 2.47.55 3.3 1.42 3.7 3.87.02.06.02.13.03.2.01.3.05.91.7.91l.18-.01c.6-.1.59-.65.58-.92v-.2-.03z"/><path id="ohcwb" d="M1068.87 1366.47l.2.02c4.05.62 5.91 2.54 6.43 6.63l.01.24c0 .32.02.99.73 1h.02a.7.7 0 0 0 .53-.2c.22-.23.2-.58.2-.86l-.01-.18a8.26 8.26 0 0 0-7.84-8.1l-.15-.01-.21-.01c-.67 0-.8.47-.8.75-.05.65.58.7.89.72z"/><path id="ohcwc" d="M1075.3 1378.4a12.9 12.9 0 0 1-.26-.2c-.44-.36-.91-.69-1.37-1l-.28-.2c-.58-.41-1.1-.61-1.6-.61-.67 0-1.25.37-1.73 1.1-.22.32-.47.47-.8.47-.18 0-.4-.05-.63-.16a7.64 7.64 0 0 1-4-3.89c-.36-.83-.24-1.38.41-1.82.37-.25 1.06-.72 1.01-1.62-.05-1.02-2.3-4.09-3.25-4.44-.4-.15-.82-.15-1.26 0a3.64 3.64 0 0 0-2.26 1.86c-.38.82-.36 1.79.05 2.8a22.53 22.53 0 0 0 4.94 7.52 23.96 23.96 0 0 0 7.5 4.98c.27.11.54.17.75.22l.17.04.07.01h.02c1.38 0 3.03-1.26 3.54-2.69.44-1.25-.37-1.87-1.02-2.37z"/><path id="ohcwd" d="M1069.47 1369.8c-.23 0-.72 0-.9.5-.08.24-.07.44.03.6.15.25.43.33.68.37.92.15 1.4.66 1.5 1.6.04.45.33.75.72.75h.08c.46-.06.68-.4.66-1 .01-.64-.32-1.36-.89-1.94a2.67 2.67 0 0 0-1.88-.89z"/></defs><g><g transform="translate(-1059 -1365)"><g><use fill="#fff" xlink:href="#ohcwa"/></g><g><use fill="#fff" xlink:href="#ohcwb"/></g><g><use fill="#fff" xlink:href="#ohcwc"/></g><g><use fill="#fff" xlink:href="#ohcwd"/></g></g></g></svg>