<?xml version="1.0" encoding="UTF-8"?>
<svg width="36px" height="36px" viewBox="0 0 36 36" version="1.1" xmlns="http://www.w3.org/2000/svg" xmlns:xlink="http://www.w3.org/1999/xlink">
    <!-- Generator: Sketch 51.3 (57544) - http://www.bohemiancoding.com/sketch -->
    <title>whatsapp</title>
    <desc>Created with Sketch.</desc>
    <defs></defs>
    <g id="Directories" stroke="none" stroke-width="1" fill="none" fill-rule="evenodd">
        <g id="Listening-page" transform="translate(-1167.000000, -845.000000)">
            <g id="carinfo" transform="translate(163.000000, 761.000000)">
                <g id="whatsapp" transform="translate(1004.000000, 84.000000)">
                    <rect id="Rectangle-2" fill="#2AB201" x="0" y="0" width="36" height="36" rx="18"></rect>
                    <g id="ic-whatsapp" transform="translate(7.000000, 7.000000)" fill="#FFFFFF" fill-rule="nonzero">
                        <path d="M21.7636774,10.601871 C21.7636774,16.4567097 16.9804516,21.2030323 11.0787742,21.2030323 C9.20593548,21.2030323 7.44664516,20.724 5.91516129,19.8851613 L0,21.7636774 L1.92819355,16.0741935 C0.955935484,14.4774194 0.396,12.6024516 0.396,10.6011613 C0.396709677,4.74632258 5.17851613,0 11.0801935,0 C16.9811613,0.00141935484 21.7636774,4.74703226 21.7636774,10.601871 Z M11.0780645,1.69045161 C6.12522581,1.69045161 2.0963871,5.68877419 2.0963871,10.604 C2.0963871,12.5541935 2.73225806,14.3596129 3.80741935,15.8286452 L2.68612903,19.137871 L6.13658065,18.0414194 C7.55593548,18.9725161 9.25419355,19.5147097 11.0780645,19.5147097 C16.0309032,19.5147097 20.0611613,15.5170968 20.0611613,10.601871 C20.0625806,5.68877419 16.0316129,1.69045161 11.0780645,1.69045161 Z M16.4744516,13.043871 C16.4077419,12.9367097 16.2331613,12.8714194 15.972,12.7408387 C15.7115484,12.6102581 14.4220645,11.9821935 14.1829032,11.8970323 C13.9416129,11.8097419 13.7670323,11.7657419 13.5924516,12.0261935 C13.42,12.2866452 12.9175484,12.8714194 12.7635484,13.046 C12.6109677,13.219871 12.4583871,13.241871 12.1965161,13.1134194 C11.9346452,12.9814194 11.090129,12.7089032 10.0894839,11.8239355 C9.31096774,11.134129 8.78509677,10.2846452 8.63322581,10.0241935 C8.47922581,9.76445161 8.6176129,9.62393548 8.74748387,9.49477419 C8.86458065,9.37767742 9.00935484,9.19103226 9.14064516,9.03845161 C9.27193548,8.88729032 9.31522581,8.78012903 9.40251613,8.60625806 C9.4883871,8.4323871 9.44509677,8.28122581 9.38051613,8.14993548 C9.31522581,8.01935484 8.79219355,6.74193548 8.57290323,6.22174194 C8.35503226,5.70225806 8.13716129,5.78812903 7.98387097,5.78812903 C7.83129032,5.78812903 7.65670968,5.76683871 7.48212903,5.76683871 C7.30754839,5.76683871 7.02367742,5.83 6.78451613,6.09045161 C6.54535484,6.35090323 5.86832258,6.97896774 5.86832258,8.25780645 C5.86832258,9.53806452 6.80580645,10.7721935 6.93709677,10.9453548 C7.06909677,11.1178065 8.7496129,13.8280645 11.4116129,14.8684516 C14.0750323,15.908129 14.0750323,15.5610968 14.5547742,15.5170968 C15.0359355,15.4730968 16.1047097,14.8890323 16.321871,14.2829677 C16.5404516,13.6740645 16.5404516,13.1524516 16.4744516,13.043871 Z" id="Shape"></path>
                    </g>
                </g>
            </g>
        </g>
    </g>
</svg>