<?xml version="1.0" encoding="UTF-8"?>
<svg width="39px" height="42px" viewBox="0 0 39 42" version="1.1" xmlns="http://www.w3.org/2000/svg" xmlns:xlink="http://www.w3.org/1999/xlink">
    <!-- Generator: Sketch 51.3 (57544) - http://www.bohemiancoding.com/sketch -->
    <title>ic-spare-parts copy 3</title>
    <desc>Created with Sketch.</desc>
    <defs></defs>
    <g id="Salepage" stroke="none" stroke-width="1" fill="none" fill-rule="evenodd">
        <g id="Sale-page-spare-parts-ECV" transform="translate(-643.000000, -473.000000)" fill="#264AA1" fill-rule="nonzero" stroke="#264AA1" stroke-width="0.2">
            <g id="sell-your-car" transform="translate(0.000000, 109.000000)">
                <g id="vehicle" transform="translate(354.000000, 175.000000)">
                    <g id="Group-5-Copy" transform="translate(141.000000, 177.000000)">
                        <g id="Group-6">
                            <g id="Group-3-Copy" transform="translate(115.000000, 0.000000)">
                                <g id="ic-spare-parts-copy-3" transform="translate(28.000000, 8.000000)">
                                    <g id="tire" transform="translate(5.653846, 4.711538)">
                                        <path d="M37.6870245,20.0520711 C37.6866302,19.9848085 37.6848954,19.918019 37.684028,19.8509141 C37.6830029,19.7590489 37.6818989,19.6672626 37.6799276,19.5757129 C37.6794545,19.5530818 37.6786659,19.5305294 37.6781139,19.5078983 C37.5496604,13.9997747 35.8653347,9.03282749 33.2297908,5.48919858 C30.8869537,2.3224139 27.7916897,0.28048439 24.3638188,0 C24.2965562,0 24.2965562,0 24.2292147,0 C24.1811136,0.00425812681 24.1334068,0.0104876086 24.0854635,0.0156131316 C23.9098552,0.00630833602 23.733616,0 23.5563518,0 L14.1359559,0 C10.6361699,0 7.4345317,1.82720953 4.9666318,4.8428307 C4.89645156,4.90283875 4.83841487,4.97499034 4.79465079,5.05652559 C1.85804152,8.76275185 0.00528323141,14.1786949 0.00528323141,20.1866752 C0.00528323141,31.2893466 6.33041519,40.3733505 14.1359559,40.3733505 L23.5564306,40.3733505 C23.7483618,40.3733505 23.9390312,40.3662536 24.1290698,40.3553717 C24.1848986,40.3614435 24.2405697,40.3683827 24.2965562,40.3733505 C30.7562922,39.8350129 36.1394319,33.2407515 37.4178951,24.1567477 C37.4253074,24.0864886 37.432562,24.0152832 37.4399743,23.944551 C37.6015465,22.7260171 37.6870245,21.4701062 37.6870245,20.1866752 L37.6870245,20.0520711 Z M15.431767,30.7808948 C15.4174944,30.7027502 15.3876086,30.6291793 15.3442388,30.5638091 C14.1518845,27.585486 13.4630142,24.0192259 13.4630142,20.1867541 C13.4630142,10.2526231 18.1535774,2.10343579 24.1305681,1.36575475 C30.9289041,1.81033473 36.3412987,10.1065063 36.3412987,20.1866752 C36.3412987,30.2674751 30.9282733,38.5640409 24.1293853,39.0077535 C20.4752816,38.561833 17.3394078,35.4051416 15.431767,30.7808948 Z M2.18836176,26.8878629 C2.33542485,26.8418909 2.48248793,26.7444271 2.62955101,26.6464113 L3.50428066,25.3006067 L4.91734792,26.713674 C5.18647731,26.9828033 5.59021081,26.9828033 5.85941905,26.713674 L7.40709044,25.1660026 L9.02202446,26.7809366 C9.29115385,27.050066 9.69488735,27.050066 9.96409559,26.7809366 L11.5790296,25.1660026 L12.6848021,26.1553862 C12.9193933,27.3558626 13.2228243,28.5088687 13.5887866,29.6025764 L12.3865755,29.0014709 C12.0501046,28.7996041 11.7137126,28.9342082 11.5118458,29.2033376 L10.6371162,30.5491423 L9.22404892,29.136075 C8.95491954,28.8669456 8.55118603,28.8669456 8.28197779,29.136075 L6.7341487,30.6837464 L5.18647731,29.136075 C4.91734792,28.8669456 4.51361442,28.8669456 4.24440618,29.136075 L3.27292243,30.1075587 C2.84521725,29.0938091 2.4809897,28.0165819 2.18836176,26.8878629 Z M1.35392662,20.5178629 L3.03328452,21.4652173 C3.3024139,21.5998214 3.63888478,21.5324799 3.84075153,21.3306131 L5.38842292,19.7829417 L7.00335694,21.3306131 C7.27248632,21.5997425 7.67621983,21.5997425 7.94542807,21.3306131 L9.56036209,19.7156791 L12.1359768,21.2730496 C12.1683859,22.2407483 12.2432974,23.1907837 12.3588188,24.1178725 L11.848159,23.6857515 C11.5790296,23.4838848 11.1752961,23.5511474 10.9734294,23.7530142 L9.42575797,25.3006855 L7.87808658,23.7530142 C7.60895719,23.4838848 7.20522369,23.4838848 6.93601545,23.7530142 L5.38834406,25.3006855 L3.84067267,23.7530142 C3.70606855,23.61841 3.5042018,23.5511474 3.30233505,23.5511474 C3.1004683,23.5511474 2.89860154,23.6857515 2.76399743,23.8202768 L1.81877213,25.2380753 C1.53363534,23.7307773 1.37308819,22.1487255 1.35392662,20.5178629 Z M3.55198745,9.63172514 L5.05187319,10.6316752 C5.25373994,10.7662794 5.59021081,10.7662794 5.79207757,10.6316752 L7.40701159,9.55507885 L9.08920824,10.6990167 C9.29107499,10.8336209 9.62754586,10.8336209 9.82941262,10.6990167 L11.5116093,9.55507885 L13.6557338,10.5965063 C13.301915,11.6273672 13.003373,12.7110605 12.7662584,13.8378082 L11.9152639,12.9868136 C11.6461345,12.7176843 11.242401,12.7176843 10.9731928,12.9868136 L9.4255214,14.534485 L7.87785002,12.9868136 C7.60872063,12.7176843 7.20498713,12.7176843 6.93577889,12.9868136 L5.38834406,14.5344062 L3.84067267,12.9867348 C3.70606855,12.8521307 3.57154329,12.784868 3.36967654,12.784868 C3.16780978,12.784868 3.03320566,12.8521307 2.8986804,12.9867348 L2.10729965,13.805478 C2.4715272,12.3196283 2.95900386,10.9191777 3.55198745,9.63172514 Z M5.71866431,6.01846798 L9.96401674,4.77753943 L11.7135549,5.92147731 C11.9154216,6.05608143 12.2518925,6.05608143 12.4537593,5.92147731 L14.1359559,4.77753943 L16.0127647,5.68917284 C15.2910122,6.79447216 14.6521355,8.03161571 14.111038,9.37442388 L11.6462922,8.14201159 C11.4444255,8.07474895 11.1752961,8.07474895 10.9734294,8.20927422 L9.35849533,9.28587061 L7.74356131,8.20927422 C7.54169456,8.0746701 7.20522369,8.0746701 7.00335694,8.20927422 L5.38842292,9.28587061 L4.16160927,8.41689733 C4.63228999,7.55210332 5.15335855,6.74913099 5.71866431,6.01846798 Z M9.76214998,18.3026118 C9.4930206,18.1680077 9.15654973,18.2353492 8.95468297,18.437216 L7.40701159,19.9848874 L5.8593402,18.437216 C5.59021081,18.1680866 5.18647731,18.1680866 4.91726907,18.437216 L3.23507242,20.1194126 L1.37505954,19.0484937 C1.41606373,18.0422353 1.51084648,17.0567943 1.65554393,16.0981638 C1.73905053,16.0644931 1.82247827,16.0143418 1.88934664,15.9475523 L3.36967654,14.3998809 L4.91734792,15.9474734 C5.18647731,16.2166028 5.59021081,16.2166028 5.85941905,15.9474734 L7.40709044,14.3998021 L8.95476183,15.9474734 C9.22389121,16.2166028 9.62762472,16.2166028 9.89683296,15.9474734 L11.4445043,14.3998021 L12.319234,15.2745317 C12.3693853,15.324683 12.4242678,15.3654506 12.4819891,15.3969134 C12.2664805,16.7885323 12.1426006,18.2344818 12.1209945,19.7178082 L9.76214998,18.3026118 Z M20.2931284,1.34580463 C19.0035468,2.13852591 17.8177374,3.24981815 16.7722095,4.61533634 L14.4050853,3.43173479 C14.2032185,3.36447216 13.9340892,3.36447216 13.7322224,3.49899743 L12.1172884,4.57559382 L10.5023544,3.49899743 C10.3004876,3.36439331 10.0986209,3.36439331 9.8967541,3.36439331 L7.56495655,4.03063244 C9.48481976,2.32777599 11.7323222,1.34572578 14.1359559,1.34572578 L20.2931284,1.34572578 L20.2931284,1.34580463 Z M3.86779852,31.3968249 L4.71548117,30.5491423 L6.26315256,32.0968136 C6.53228194,32.365943 6.93601545,32.365943 7.20522369,32.0968136 L8.75281622,30.5491423 L10.3004876,32.0968136 C10.4350917,32.2314178 10.569617,32.2986804 10.7714837,32.2986804 C11.0406131,32.2986804 11.2424799,32.1640763 11.3098214,31.9622095 L12.3191551,30.4145381 L14.2625958,31.3862584 C14.768682,32.581215 15.353859,33.6868297 16.0075603,34.6844931 L14.7414773,35.5285484 L13.1265433,34.451952 C12.9246765,34.3173479 12.5882057,34.3173479 12.3863389,34.451952 L10.7714837,35.5285484 L9.15654973,34.451952 C8.95468297,34.3173479 8.6182121,34.3173479 8.41634535,34.451952 L6.75346798,35.5605632 C5.64903605,34.4048761 4.67439813,32.997644 3.86779852,31.3968249 Z M14.1359559,39.0275459 C11.798954,39.0275459 9.60948825,38.0992742 7.72526714,36.4827631 L8.75281622,35.7976778 L10.4350129,36.8742742 C10.6368796,37.0088783 10.9733505,37.0088783 11.1752173,36.8742742 L12.7901513,35.7976778 L14.3378227,36.9416157 C14.5396894,37.0762198 14.8761603,37.0762198 15.078027,36.9416157 L16.7982314,35.7948391 C17.8426553,37.1446653 19.0272031,38.2425523 20.3164693,39.0276247 L14.1359559,39.0276247 L14.1359559,39.0275459 Z" id="Shape"></path>
                                        <path d="M24.9021564,5.38313968 C21.418299,5.38313968 18.4976183,9.28121822 17.3497377,14.8717444 C17.3429562,14.9045478 17.3361748,14.93743 17.329551,14.9703122 C17.2987979,15.1235259 17.2691487,15.2777647 17.2409977,15.4333441 C17.2313775,15.4866495 17.2223093,15.5402704 17.2130045,15.5937335 C17.1940006,15.7031043 17.1757065,15.813027 17.1580431,15.9235018 C17.146215,15.9972304 17.1344657,16.0709591 17.1233473,16.1450821 C17.1047377,16.2684889 17.0870743,16.3926843 17.0701995,16.5175105 C17.0600274,16.5926585 17.0501706,16.6679643 17.0406292,16.7433489 C17.0264355,16.8555584 17.0130303,16.9683988 17.000177,17.0817123 C16.9898471,17.1731043 16.9800692,17.2647329 16.9706855,17.356598 C16.9601191,17.4596604 16.9500257,17.5631172 16.9406421,17.667047 C16.9344915,17.7347827 16.928262,17.8025185 16.9225845,17.8704908 C16.9101255,18.0205504 16.8988494,18.1713985 16.8888349,18.3230351 C16.8851287,18.3794947 16.8818957,18.4361909 16.878505,18.4928082 C16.8704619,18.626466 16.863365,18.7607547 16.8572144,18.8955954 C16.8554796,18.934786 16.8532716,18.9737399 16.8516946,19.0130093 C16.8446765,19.1817573 16.8396299,19.3516093 16.8356872,19.5220921 C16.8346621,19.5657773 16.8338735,19.6093836 16.8330061,19.6531477 C16.8296942,19.8302543 16.8274075,20.0079916 16.8274075,20.1867541 C16.8274075,20.3655954 16.8296942,20.5432539 16.8330061,20.7203605 C16.8337947,20.7640457 16.8346621,20.8077309 16.8356872,20.8514162 C16.8396299,21.0218989 16.8447554,21.191672 16.8516946,21.3604989 C16.8532716,21.3996894 16.8554796,21.4387222 16.8572144,21.4779128 C16.863365,21.6127535 16.8704619,21.7469633 16.878505,21.8806212 C16.8818957,21.9372385 16.8851287,21.9939347 16.8888349,22.0504731 C16.8989282,22.2021098 16.9101255,22.3529578 16.9225845,22.5030174 C16.9281831,22.5709897 16.9344915,22.6387255 16.9406421,22.7065401 C16.9501046,22.8103911 16.9601191,22.9137689 16.9706855,23.0168313 C16.9800692,23.1086965 16.9898471,23.2004039 17.000177,23.2918748 C17.0130303,23.4051094 17.0264355,23.5179498 17.0406292,23.6301593 C17.0501706,23.7056228 17.0600274,23.7808497 17.0701995,23.8559977 C17.0870743,23.9807451 17.1047377,24.1048616 17.1233473,24.2281896 C17.1345446,24.3023914 17.1462939,24.3761989 17.158122,24.4500064 C17.1757853,24.5604812 17.1940795,24.6703251 17.2130045,24.779617 C17.2223093,24.833159 17.2313775,24.8867799 17.2409977,24.9400853 C17.2690698,25.0956646 17.298719,25.2499034 17.3294722,25.4030383 C17.3360959,25.4359994 17.3428774,25.4688816 17.3496588,25.5017638 C18.4974606,31.09229 21.4182201,34.9902897 24.9020776,34.9902897 C29.4104088,34.9902897 32.9767477,28.463291 32.9767477,20.1867541 C32.9767477,11.9102173 29.4104876,5.38313968 24.9021564,5.38313968 Z M18.2628693,22.3148713 C18.2593997,22.2733151 18.2555359,22.2319166 18.252224,22.1902816 C18.247335,22.1285388 18.2431558,22.0664805 18.2386611,22.0045011 C18.2324316,21.9172095 18.2265175,21.8298391 18.2212343,21.7421532 C18.2182379,21.6926328 18.2150837,21.6431123 18.2124026,21.593513 C18.2049115,21.4567799 18.19813,21.3197313 18.1927679,21.1820518 C18.1918217,21.157055 18.1911909,21.1318217 18.1902446,21.1068249 C18.1859076,20.9852317 18.182438,20.8632443 18.179757,20.7409414 C18.1788896,20.701672 18.1781011,20.6624815 18.1773914,20.6231332 C18.1749469,20.4780415 18.1732121,20.3327132 18.1732121,20.1867541 C18.1732121,20.0596411 18.1747103,19.9328436 18.1762874,19.8061249 C18.2136643,17.2961957 18.6189749,14.9272578 19.2849775,12.9126907 C20.2730995,14.5984358 20.8648214,17.2607902 20.8648214,20.1866752 C20.8648214,23.1125603 20.2730995,25.7749147 19.2850563,27.4607387 C18.7759736,25.920795 18.4193161,24.1737802 18.2628693,22.3148713 Z M24.9021564,33.644485 C22.9229949,33.644485 21.1036707,31.8074976 19.8570647,28.9605455 C21.2822755,27.2091938 22.2105472,23.8724783 22.2105472,20.1866752 C22.2105472,16.5008722 21.2821967,13.1641567 19.8570647,11.412805 C21.1035919,8.56585291 22.922916,6.72886547 24.9021564,6.72886547 C28.535758,6.72886547 31.6310219,12.9194722 31.6310219,20.1866752 C31.6310219,27.4538783 28.535758,33.644485 24.9021564,33.644485 Z" id="Shape"></path>
                                    </g>
                                </g>
                            </g>
                        </g>
                    </g>
                </g>
            </g>
        </g>
    </g>
</svg>